<?xml version="1.0" encoding="UTF-8"?>
<svg id="_レイヤー_1" data-name="レイヤー 1" xmlns="http://www.w3.org/2000/svg" viewBox="0 0 425.2 425.2">
  <defs>
    <style>
      .cls-1 {
        fill: #4db673;
        stroke: #4db673;
      }

      .cls-1, .cls-2, .cls-3 {
        stroke-miterlimit: 10;
      }

      .cls-1, .cls-3 {
        stroke-width: .46px;
      }

      .cls-4 {
        fill: #fef5ec;
        stroke-linecap: round;
        stroke-linejoin: round;
      }

      .cls-4, .cls-2 {
        stroke: #000;
        stroke-width: .35px;
      }

      .cls-5, .cls-2 {
        fill: none;
      }

      .cls-3 {
        fill: #81ba6d;
        stroke: #81ba6d;
      }
    </style>
  </defs>
  <g>
    <path class="cls-4" d="M259.94,112.03s1.75-13.11,0-17.05-8.31-6.12-10.27-19.45c-1.97-13.33-6.99-27.32,0-28.85s8.11,17.48,11.05,17.05-1.43-43.71,6-43.49,5.77,29.49,5.77,29.49c0,0,.3-34.03,6.57-33.44s4.18,21.35,3.43,32.84c0,0,3.73-27.77,10-27.17s-.6,28.96-.6,28.96c0,0,5.85-22.43,11.05-20.9,3.16.93,2.09,12.54-1.64,38.36-3.73,25.82-10.15,24.03-10.15,28.36s-1.49,20.3-1.49,20.3"/>
    <path class="cls-4" d="M165.12,112.03s-1.75-13.11,0-17.05,8.31-6.12,10.27-19.45c1.97-13.33,6.99-27.32,0-28.85s-8.11,17.48-11.05,17.05,1.43-43.71-6-43.49-5.77,29.49-5.77,29.49c0,0-.3-34.03-6.57-33.44s-4.18,21.35-3.43,32.84c0,0-3.73-27.77-10-27.17s.6,28.96.6,28.96c0,0-5.85-22.43-11.05-20.9-3.16.93-2.09,12.54,1.64,38.36s10.15,24.03,10.15,28.36,1.49,20.3,1.49,20.3"/>
    <g>
      <polygon class="cls-5" points="179.56 250.84 202.44 229.94 179.56 229.94 179.56 250.84"/>
      <polygon class="cls-5" points="202.44 229.94 179.56 250.84 179.56 303.2 245.49 242.97 245.49 229.94 202.44 229.94"/>
      <polygon class="cls-5" points="245.49 138.25 201.07 178.83 245.49 178.83 245.49 138.25"/>
      <polygon class="cls-1" points="245.49 101.71 245.49 138.25 285.49 101.71 245.49 101.71"/>
      <polygon class="cls-1" points="179.56 178.83 179.56 146.12 119.68 200.82 119.68 253.18 201.07 178.83 179.56 178.83"/>
      <polygon class="cls-3" points="179.56 313.41 179.56 303.2 168.38 313.41 179.56 313.41"/>
      <polygon class="cls-3" points="179.56 101.71 170.86 101.71 119.68 148.46 119.68 200.82 179.56 146.12 179.56 101.71"/>
      <polygon class="cls-1" points="119.68 101.71 119.68 148.46 170.86 101.71 119.68 101.71"/>
      <polygon class="cls-1" points="119.68 305.54 119.68 313.41 168.38 313.41 179.56 303.2 179.56 250.84 119.68 305.54"/>
      <polygon class="cls-3" points="305.38 292.99 283.01 313.41 305.38 313.41 305.38 292.99"/>
      <polygon class="cls-1" points="305.38 240.63 245.49 295.33 245.49 313.41 283.01 313.41 305.38 292.99 305.38 240.63"/>
      <polygon class="cls-1" points="305.38 135.91 202.44 229.94 245.49 229.94 245.49 242.97 305.38 188.27 305.38 135.91"/>
      <polygon class="cls-3" points="179.56 229.94 202.44 229.94 305.38 135.91 305.38 101.71 285.49 101.71 245.49 138.25 245.49 178.83 201.07 178.83 119.68 253.18 119.68 305.54 179.56 250.84 179.56 229.94"/>
      <polygon class="cls-3" points="305.38 188.27 245.49 242.97 245.49 295.33 305.38 240.63 305.38 188.27"/>
    </g>
    <path class="cls-2" d="M305.38,313.41h-59.88v-83.47h-65.93v83.47h-59.88V101.71h59.88v77.12h65.93v-77.12h59.88v211.7Z"/>
  </g>
  <g>
    <path d="M145.06,362.93c-2.65,2.51-6.41,4.11-11.01,4.11-7.52,0-14.77-5.99-14.77-19.02s7.45-19.09,14.91-19.09c5.15,0,8.15,1.67,10.73,3.83l-.84,1.11c-2.58-2.16-5.22-3.62-9.96-3.62-6.83,0-13.3,5.99-13.3,17.62s6.27,17.83,13.3,17.83c4.18,0,7.59-1.46,10.1-3.76l.84.97Z"/>
    <path d="M174.04,330.06l-.63,1.39c-1.39-.56-2.86-1.04-5.71-1.04-4.46,0-10.8,3.13-10.8,13.44v22.43h-1.53v-36.57h1.53v8.01c1.18-5.78,6.2-8.78,11.08-8.78,2.79,0,4.81.49,6.06,1.11Z"/>
    <path d="M207.34,347.47c0,.28,0,.49-.07.77h-27.24c.14,11.21,5.71,17.48,13.03,17.48,5.15,0,8.22-1.18,11.56-3.13l.63,1.11c-3.55,2.09-6.9,3.34-12.33,3.34-7.52,0-14.35-6.34-14.35-19.09s6.48-19.02,14.49-19.02,14.28,6.69,14.28,18.53ZM205.88,346.98c-.21-10.87-5.43-16.72-12.82-16.72s-12.75,5.85-13.03,16.72h25.84Z"/>
    <path d="M242.24,366.28h-1.53v-6.2c-2.93,3.97-7.45,6.97-13.03,6.97-6.2,0-12.47-2.65-12.47-10.94s6.13-11.91,13.58-11.91c4.95,0,9.06,1.46,11.91,3.06v-6.06c0-8.15-3.34-10.87-10.66-10.87-4.39,0-7.66,1.25-10.87,2.86l-.56-1.32c3.2-1.6,6.83-2.93,11.49-2.93,8.01,0,12.12,3.07,12.12,12.05v25.29ZM240.71,358.06v-9.4c-3.06-1.74-6.97-3.13-11.98-3.13-6.76,0-11.98,3.48-11.98,10.52s5.43,9.68,11.15,9.68c4.95,0,10.1-3,12.82-7.66Z"/>
    <path d="M305.91,366.28h-1.53v-22.29c0-9.82-4.67-13.72-11.49-13.72-5.43,0-12.05,3-12.05,13.65v22.36h-1.53v-22.36c0-9.89-4.74-13.65-11.49-13.65-5.43,0-12.05,3-12.05,13.65v22.36h-1.53v-36.57h1.53v7.94c1.32-5.78,6.48-8.71,12.26-8.71,6.9,0,11.28,4.04,12.19,10.31,1.39-7.11,6.69-10.31,12.89-10.31,7.45,0,12.82,4.25,12.82,14.77v22.57Z"/>
  </g>
  <g>
    <path d="M182.58,403.92h-.82v-11.89c0-5.17-2.45-7.32-6.32-7.32-3.01,0-6.61,1.63-6.61,7.28v11.93h-.82v-26.64l.82-.45v11.82c.74-3.08,3.46-4.64,6.76-4.64,4.16,0,6.98,2.27,6.98,7.88v12.04Z"/>
    <path d="M190.31,378.4c0,.37-.33.71-.67.71-.45,0-.74-.33-.74-.71,0-.41.3-.71.74-.71.33,0,.67.3.67.71ZM189.98,403.92h-.82v-19.51h.82v19.51Z"/>
    <path d="M211.27,403.92h-.82v-11.89c0-5.17-2.45-7.32-6.32-7.32-3.01,0-6.61,1.63-6.61,7.28v11.93h-.82v-19.51h.82v4.24c.74-3.08,3.46-4.64,6.76-4.64,4.16,0,6.98,2.27,6.98,7.88v12.04Z"/>
    <path d="M233.3,394.15c0,6.58-3.72,10.18-8.36,10.18s-8.36-3.6-8.36-10.18,3.71-10.14,8.36-10.14,8.36,3.64,8.36,10.14ZM232.48,394.15c0-6.13-3.31-9.44-7.54-9.44s-7.54,3.31-7.54,9.44,3.31,9.47,7.54,9.47,7.54-3.34,7.54-9.47Z"/>
    <path d="M251.91,403.92h-.85l-6.99-11.22-4.5,5.91v5.31h-.82v-26.64l.82-.45v20.66l9.96-13.08h.89l-5.87,7.65,7.36,11.85Z"/>
    <path d="M258.15,378.4c0,.37-.33.71-.67.71-.45,0-.74-.33-.74-.71,0-.41.3-.71.74-.71.33,0,.67.3.67.71ZM257.82,403.92h-.82v-19.51h.82v19.51Z"/>
  </g>
</svg>