<?xml version="1.0" encoding="UTF-8"?>
<svg id="_レイヤー_1" data-name="レイヤー 1" xmlns="http://www.w3.org/2000/svg" xmlns:xlink="http://www.w3.org/1999/xlink" viewBox="0 0 1080 1080">
  <defs>
    <style>
      .cls-1, .cls-2, .cls-3, .cls-4, .cls-5, .cls-6, .cls-7, .cls-8, .cls-9 {
        stroke-linecap: round;
        stroke-linejoin: round;
      }

      .cls-1, .cls-2, .cls-4, .cls-5, .cls-6, .cls-7, .cls-8, .cls-9 {
        stroke-width: 3.3px;
      }

      .cls-1, .cls-2, .cls-10 {
        fill: #fff;
      }

      .cls-1, .cls-3, .cls-4, .cls-5, .cls-7, .cls-9 {
        stroke: #000;
      }

      .cls-11 {
        clip-path: url(#clippath-6);
      }

      .cls-12 {
        clip-path: url(#clippath-7);
      }

      .cls-13 {
        clip-path: url(#clippath-4);
      }

      .cls-2, .cls-6 {
        stroke: #3d3939;
      }

      .cls-3 {
        stroke-width: 3.27px;
      }

      .cls-3, .cls-14, .cls-6, .cls-7 {
        fill: none;
      }

      .cls-15 {
        clip-path: url(#clippath-9);
      }

      .cls-4 {
        fill: #ff4c00;
      }

      .cls-16 {
        clip-path: url(#clippath-10);
      }

      .cls-17 {
        clip-path: url(#clippath-11);
      }

      .cls-18 {
        clip-path: url(#clippath-1);
      }

      .cls-19 {
        fill: #f8d6e5;
      }

      .cls-20 {
        clip-path: url(#clippath-5);
      }

      .cls-21 {
        clip-path: url(#clippath-8);
      }

      .cls-22 {
        clip-path: url(#clippath-3);
      }

      .cls-5 {
        fill: #fff0f2;
      }

      .cls-23 {
        fill: url(#_ドット白小);
      }

      .cls-24 {
        clip-path: url(#clippath-2);
      }

      .cls-8 {
        fill: #3e3a39;
        stroke: #3e3a39;
      }

      .cls-25 {
        clip-path: url(#clippath);
      }

      .cls-9 {
        fill: #3e2a39;
      }
    </style>
    <clipPath id="clippath">
      <path class="cls-14" d="M33.42,28.88c-2.26,0-4.09-1.84-4.09-4.09s1.84-4.09,4.09-4.09,4.09,1.84,4.09,4.09-1.84,4.09-4.09,4.09ZM33.42,21.7c-1.7,0-3.09,1.39-3.09,3.09s1.39,3.09,3.09,3.09,3.09-1.39,3.09-3.09-1.39-3.09-3.09-3.09Z"/>
    </clipPath>
    <clipPath id="clippath-1">
      <rect class="cls-14" x="-187.35" y="-104.09" width="356.89" height="356.89"/>
    </clipPath>
    <clipPath id="clippath-2">
      <rect class="cls-14" x="-187.35" y="-104.09" width="356.89" height="356.89"/>
    </clipPath>
    <clipPath id="clippath-3">
      <path class="cls-14" d="M14.02,28.88c-2.26,0-4.09-1.84-4.09-4.09s1.84-4.09,4.09-4.09,4.09,1.84,4.09,4.09-1.84,4.09-4.09,4.09ZM14.02,21.7c-1.7,0-3.09,1.39-3.09,3.09s1.39,3.09,3.09,3.09,3.09-1.39,3.09-3.09-1.39-3.09-3.09-3.09Z"/>
    </clipPath>
    <clipPath id="clippath-4">
      <rect class="cls-14" x="-206.76" y="-104.09" width="356.89" height="356.89"/>
    </clipPath>
    <clipPath id="clippath-5">
      <rect class="cls-14" x="-206.76" y="-104.09" width="356.89" height="356.89"/>
    </clipPath>
    <clipPath id="clippath-6">
      <path class="cls-14" d="M23.72,9.48c-2.26,0-4.09-1.84-4.09-4.09s1.84-4.09,4.09-4.09,4.09,1.84,4.09,4.09-1.84,4.09-4.09,4.09ZM23.72,2.3c-1.7,0-3.09,1.39-3.09,3.09s1.39,3.09,3.09,3.09,3.09-1.39,3.09-3.09-1.39-3.09-3.09-3.09Z"/>
    </clipPath>
    <clipPath id="clippath-7">
      <rect class="cls-14" x="-197.06" y="-123.5" width="356.89" height="356.89"/>
    </clipPath>
    <clipPath id="clippath-8">
      <rect class="cls-14" x="-197.06" y="-123.5" width="356.89" height="356.89"/>
    </clipPath>
    <clipPath id="clippath-9">
      <path class="cls-14" d="M4.32,9.48C2.06,9.48.22,7.64.22,5.39S2.06,1.3,4.32,1.3s4.09,1.84,4.09,4.09-1.84,4.09-4.09,4.09ZM4.32,2.3c-1.7,0-3.09,1.39-3.09,3.09s1.39,3.09,3.09,3.09,3.09-1.39,3.09-3.09-1.39-3.09-3.09-3.09Z"/>
    </clipPath>
    <clipPath id="clippath-10">
      <rect class="cls-14" x="-216.46" y="-123.5" width="356.89" height="356.89"/>
    </clipPath>
    <clipPath id="clippath-11">
      <rect class="cls-14" x="-216.46" y="-123.5" width="356.89" height="356.89"/>
    </clipPath>
    <pattern id="_ドット白小" data-name="ドット白小" x="0" y="0" width="38.81" height="38.81" patternTransform="translate(-794.46 -1561.97) scale(.89 .79)" patternUnits="userSpaceOnUse" viewBox="0 0 38.81 38.81">
      <g>
        <rect class="cls-14" width="38.81" height="38.81"/>
        <g>
          <circle class="cls-10" cx="33.42" cy="24.79" r="3.59"/>
          <g class="cls-25">
            <g class="cls-18">
              <circle class="cls-10" cx="124.92" cy="118.96" r="44.61"/>
              <circle class="cls-10" cx="-53.52" cy="118.96" r="44.61"/>
              <circle class="cls-10" cx="35.7" cy="-59.48" r="44.61"/>
              <circle class="cls-10" cx="-142.74" cy="-59.48" r="44.61"/>
            </g>
            <g class="cls-24">
              <circle class="cls-10" cx="124.92" cy="118.96" r="44.61"/>
              <circle class="cls-10" cx="-53.52" cy="118.96" r="44.61"/>
              <circle class="cls-10" cx="35.7" cy="-59.48" r="44.61"/>
              <circle class="cls-10" cx="-142.74" cy="-59.48" r="44.61"/>
            </g>
          </g>
        </g>
        <g>
          <circle class="cls-10" cx="14.02" cy="24.79" r="3.59"/>
          <g class="cls-22">
            <g class="cls-13">
              <circle class="cls-10" cx="105.52" cy="118.96" r="44.61"/>
              <circle class="cls-10" cx="-72.93" cy="118.96" r="44.61"/>
              <circle class="cls-10" cx="16.3" cy="-59.48" r="44.61"/>
              <circle class="cls-10" cx="-162.15" cy="-59.48" r="44.61"/>
            </g>
            <g class="cls-20">
              <circle class="cls-10" cx="105.52" cy="118.96" r="44.61"/>
              <circle class="cls-10" cx="-72.93" cy="118.96" r="44.61"/>
              <circle class="cls-10" cx="16.3" cy="-59.48" r="44.61"/>
              <circle class="cls-10" cx="-162.15" cy="-59.48" r="44.61"/>
            </g>
          </g>
        </g>
        <g>
          <circle class="cls-10" cx="23.72" cy="5.39" r="3.59"/>
          <g class="cls-11">
            <g class="cls-12">
              <circle class="cls-10" cx="115.22" cy="99.56" r="44.61"/>
              <circle class="cls-10" cx="-63.22" cy="99.56" r="44.61"/>
              <circle class="cls-10" cx="26" cy="-78.89" r="44.61"/>
              <circle class="cls-10" cx="-152.45" cy="-78.89" r="44.61"/>
            </g>
            <g class="cls-21">
              <circle class="cls-10" cx="115.22" cy="99.56" r="44.61"/>
              <circle class="cls-10" cx="-63.22" cy="99.56" r="44.61"/>
              <circle class="cls-10" cx="26" cy="-78.89" r="44.61"/>
              <circle class="cls-10" cx="-152.45" cy="-78.89" r="44.61"/>
            </g>
          </g>
        </g>
        <g>
          <circle class="cls-10" cx="4.32" cy="5.39" r="3.59"/>
          <g class="cls-15">
            <g class="cls-16">
              <circle class="cls-10" cx="95.82" cy="99.56" r="44.61"/>
              <circle class="cls-10" cx="-82.63" cy="99.56" r="44.61"/>
              <circle class="cls-10" cx="6.59" cy="-78.89" r="44.61"/>
              <circle class="cls-10" cx="-171.85" cy="-78.89" r="44.61"/>
            </g>
            <g class="cls-17">
              <circle class="cls-10" cx="95.82" cy="99.56" r="44.61"/>
              <circle class="cls-10" cx="-82.63" cy="99.56" r="44.61"/>
              <circle class="cls-10" cx="6.59" cy="-78.89" r="44.61"/>
              <circle class="cls-10" cx="-171.85" cy="-78.89" r="44.61"/>
            </g>
          </g>
        </g>
      </g>
    </pattern>
  </defs>
  <rect class="cls-19" width="1079.38" height="1080.58"/>
  <g>
    <path class="cls-10" d="M523.81,1005.05c-49.31,0-97.14-12.43-142.17-36.94-43.5-23.68-82.58-57.58-116.13-100.76-33.56-43.19-59.91-93.48-78.32-149.49-19.06-57.99-28.72-119.58-28.72-183.08s9.66-125.1,28.72-183.08c18.41-56,44.76-106.3,78.32-149.49,33.56-43.18,72.63-77.08,116.13-100.76,45.03-24.51,92.87-36.94,142.17-36.94s97.14,12.43,142.17,36.94c43.5,23.68,82.58,57.58,116.13,100.76,33.56,43.19,59.91,93.48,78.32,149.49,19.06,57.99,28.72,119.58,28.72,183.08s-9.66,125.1-28.72,183.08c-18.41,56-44.76,106.3-78.32,149.49-33.56,43.18-72.63,77.08-116.13,100.76-45.03,24.51-92.87,36.94-142.17,36.94Z"/>
    <path class="cls-10" d="M523.81,64.92c49.24,0,97.01,12.41,141.98,36.89,43.45,23.65,82.48,57.52,116,100.65,33.53,43.15,59.86,93.41,78.25,149.36,19.05,57.95,28.7,119.5,28.7,182.95s-9.66,125.01-28.7,182.95c-18.39,55.96-44.72,106.21-78.25,149.36-33.52,43.14-72.55,77-116,100.65-44.97,24.48-92.74,36.89-141.98,36.89s-97.01-12.41-141.98-36.89c-43.45-23.65-82.48-57.52-116-100.65-33.53-43.15-59.86-93.41-78.25-149.36-19.05-57.95-28.7-119.5-28.7-182.95s9.66-125.01,28.7-182.95c18.39-55.96,44.72-106.21,78.25-149.36,33.52-43.14,72.55-77,116-100.65,44.97-24.48,92.74-36.89,141.98-36.89M523.81,64.09c-202,0-365.76,210.73-365.76,470.69s163.76,470.69,365.76,470.69,365.76-210.73,365.76-470.69S725.82,64.09,523.81,64.09h0Z"/>
  </g>
  <rect class="cls-23" x="-.62" width="1080" height="1080.58"/>
  <g>
    <path class="cls-5" d="M670.36,561.72s-5.94,77.19-9.44,85.95-20.58,34.26-15.07,40.29c4.06,4.44,17.52-10.16,17.52-10.16,0,0-15.89,21.09-9.41,23.9,6.48,2.8,20.62-19.34,20.62-19.34,1.06.95-13.8,22.73-5.18,25.94,6.04,2.25,16.36-22.4,18.5-22.43-1.67,1.04-8.84,28.2,0,23.23,6.23-3.5,9.98-21.79,9.98-21.79,0,0-.3,16.19,5.44,16.07,9.13-.19,3.15-60.61,3.15-60.61l1.91-84.44-38.02,3.39Z"/>
    <path class="cls-5" d="M409,617.22s-11.56,73.9-2.8,96.67c8.76,22.77,10.25,30.38,7.01,32.58-8.6,5.84-12.96-17.17-12.96-17.17,0,0,0,36.09-6.66,36.79-6.66.7-5.61-29.08-5.61-29.08,0,0-1.75,29.81-7.36,29.09-5.61-.71-4.91-30.49-4.91-30.49,0,0-1.05,31.23-5.26,30.51s-5.61-28.75-5.61-28.75c0,0,3.15,23.12-3.85,24.88-7.01,1.75-7.01-53.96,0-62.71s23.47-79.53,23.47-79.53l24.53-2.78Z"/>
    <g>
      <path class="cls-5" d="M368.07,466.45l35.34,173.82,63.08-18.49,7.16,151.26s-83.02-25.87-78.81,34.29c4.21,60.16,141.38,25.87,141.38,25.87-4.21-21.06,0-222.6,0-222.6,10.23,4.81,28.28,229.22,28.28,229.22,60.76-4.81,141.98-77.01,110.7-107.69-31.28-30.68-70.33,21.37-70.33,21.37,7.98-33.26-11.97-163.65-11.97-163.65l91.82-8.61-40.46-189.73-276.18,74.94Z"/>
      <path class="cls-9" d="M487.78,222.64c-289.8,32.02-175.62,444.37-175.62,444.37l91.25-26.75-35.34-173.82,276.18-74.94,40.46,189.73,78.47-7.36c2.84-52.84,39.13-385.99-275.4-351.24Z"/>
    </g>
    <ellipse class="cls-2" cx="477.72" cy="519.89" rx="31.33" ry="42.46" transform="translate(-116.99 139.33) rotate(-14.81)"/>
    <ellipse class="cls-8" cx="477.61" cy="519.49" rx="18.96" ry="25.56" transform="translate(-116.89 139.29) rotate(-14.81)"/>
    <circle class="cls-19" cx="474.72" cy="508.53" r="10.72"/>
    <path class="cls-6" d="M466.87,478.84c-5.19-3.37-11.57-12.24-7.05-26.68"/>
    <path class="cls-6" d="M454.31,485.12c-5.19-3.37-11.57-12.24-7.05-26.68"/>
    <path class="cls-6" d="M481.98,479.62c-5.19-3.37-11.57-12.24-7.05-26.68"/>
    <g>
      <ellipse class="cls-2" cx="575.07" cy="494.16" rx="31.33" ry="42.46" transform="translate(-107.18 163.36) rotate(-14.81)"/>
      <ellipse class="cls-8" cx="574.96" cy="493.76" rx="18.96" ry="25.56" transform="translate(-107.08 163.32) rotate(-14.81)"/>
      <circle class="cls-19" cx="572.06" cy="482.8" r="10.72"/>
      <path class="cls-6" d="M564.22,453.11c-5.19-3.37-11.57-12.24-7.05-26.68"/>
      <path class="cls-6" d="M551.66,459.39c-5.19-3.37-11.57-12.24-7.05-26.68"/>
      <path class="cls-6" d="M579.33,453.89c-5.19-3.37-11.57-12.24-7.05-26.68"/>
    </g>
    <ellipse class="cls-1" cx="539.03" cy="546.84" rx="12.63" ry="6.13" transform="translate(-137.27 183.23) rotate(-17.15)"/>
    <ellipse class="cls-4" cx="536.75" cy="574.25" rx="33.99" ry="7.86"/>
    <line class="cls-7" x1="291.52" y1="453.89" x2="334.51" y2="660.46"/>
    <line class="cls-7" x1="304.35" y1="379.12" x2="363.1" y2="652.08"/>
    <line class="cls-7" x1="321.7" y1="333.46" x2="385.27" y2="645.59"/>
    <line class="cls-7" x1="368.07" y1="466.45" x2="339.67" y2="303.34"/>
    <line class="cls-7" x1="397.59" y1="458.44" x2="363.1" y2="276.36"/>
    <line class="cls-7" x1="420.73" y1="452.16" x2="385.27" y2="258.39"/>
    <line class="cls-7" x1="443.25" y1="446.05" x2="408.58" y2="244.72"/>
    <line class="cls-7" x1="466.87" y1="439.64" x2="433.9" y2="234.27"/>
    <line class="cls-7" x1="497.08" y1="431.44" x2="464" y2="226.29"/>
    <line class="cls-7" x1="524.19" y1="424.08" x2="494.38" y2="221.96"/>
    <line class="cls-7" x1="551.93" y1="416.56" x2="524.19" y2="220.11"/>
    <line class="cls-3" x1="579.33" y1="409.13" x2="552.2" y2="221.96"/>
    <line class="cls-7" x1="607.25" y1="401.55" x2="582.78" y2="224.24"/>
    <line class="cls-7" x1="629.13" y1="395.61" x2="607.25" y2="229.74"/>
    <line class="cls-7" x1="644.76" y1="389.14" x2="627.16" y2="236.4"/>
    <line class="cls-7" x1="703.65" y1="579.46" x2="652.61" y2="248.48"/>
    <line class="cls-7" x1="726.98" y1="577.28" x2="680.93" y2="268.26"/>
    <line class="cls-7" x1="745.74" y1="575.52" x2="713.01" y2="303.34"/>
    <line class="cls-7" x1="763.18" y1="573.88" x2="748.93" y2="379.12"/>
  </g>
</svg>