<?xml version="1.0" encoding="UTF-8"?>
<svg xmlns="http://www.w3.org/2000/svg" viewBox="0 0 425.2 425.2">
  <defs>
    <style>
      .cls-1 {
        fill: #00a1e9;
        stroke-width: .64px;
      }

      .cls-1, .cls-2, .cls-3, .cls-4, .cls-5 {
        stroke-miterlimit: 10;
      }

      .cls-1, .cls-6 {
        stroke: #00a1e9;
      }

      .cls-7, .cls-8 {
        stroke-width: 3.78px;
      }

      .cls-7, .cls-8, .cls-4 {
        stroke: #00a0e9;
      }

      .cls-7, .cls-8, .cls-5, .cls-6, .cls-9 {
        stroke-linecap: round;
      }

      .cls-7, .cls-8, .cls-6, .cls-9 {
        stroke-linejoin: round;
      }

      .cls-7, .cls-5, .cls-6, .cls-9 {
        fill: none;
      }

      .cls-10 {
        fill: #fef3ee;
      }

      .cls-8, .cls-4 {
        fill: #00a0e9;
      }

      .cls-2 {
        stroke-width: .54px;
      }

      .cls-2, .cls-11 {
        fill: #231815;
      }

      .cls-2, .cls-5, .cls-9 {
        stroke: #231815;
      }

      .cls-3 {
        fill: #fff;
        stroke: #fff;
        stroke-width: 1px;
      }

      .cls-4 {
        stroke-width: 1.72px;
      }

      .cls-5, .cls-6, .cls-9 {
        stroke-width: 6px;
      }
    </style>
  </defs>
  <g id="_レイヤー_5" data-name="レイヤー 5">
    <rect class="cls-3" x="0" y="0" width="425.2" height="425.2"/>
  </g>
  <g id="_クリップ文字" data-name="クリップ文字">
    <g>
      <path class="cls-11" d="M249.48,363.64c1.41,1.58,3.15,2.38,5.22,2.38.94,0,1.7-.19,2.26-.56.67-.46,1-1.09,1-1.91,0-.74-.29-1.34-.87-1.8-.38-.31-1.3-.75-2.77-1.32l-.39-.15-.7-.28s-.13-.05-.26-.1c-1.5-.57-2.48-1.04-2.92-1.4-.07-.06-.15-.15-.26-.26-.73-.78-1.1-1.73-1.1-2.84,0-1.43.51-2.58,1.54-3.45,1.07-.92,2.52-1.37,4.34-1.37,1.27,0,2.4.19,3.4.56.79.31,1.58.78,2.37,1.41l-1.41,1.97c-1.21-1.15-2.65-1.72-4.33-1.72-1.1,0-1.9.26-2.4.77-.42.44-.64.97-.64,1.59,0,.71.31,1.28.92,1.7.39.27,1.22.64,2.48,1.09l.82.3c1.8.65,3.04,1.28,3.71,1.91.93.87,1.39,1.96,1.39,3.27,0,1.62-.64,2.89-1.92,3.8-1.05.75-2.49,1.12-4.3,1.12-2.83,0-5.09-.96-6.79-2.88l1.58-1.8Z"/>
      <path class="cls-11" d="M282.69,366.04c-1.37,1.55-3.21,2.32-5.52,2.32s-4.02-.79-5.16-2.37c-.81-1.11-1.21-2.5-1.21-4.15,0-1.74.48-3.22,1.44-4.45,1.19-1.49,2.78-2.23,4.76-2.23s3.76.62,5.16,1.86l-1.34,1.89c-1.08-1.05-2.27-1.58-3.58-1.58-1.19,0-2.12.47-2.79,1.42-.56.81-.84,1.82-.84,3.04s.29,2.28.87,3.04c.66.85,1.61,1.28,2.84,1.28,1.49,0,2.71-.61,3.68-1.84l1.68,1.74Z"/>
      <path class="cls-11" d="M291.82,350.01h2.77v7.66c1.02-1.56,2.42-2.34,4.18-2.34,1.51,0,2.66.51,3.46,1.52.6.76.9,1.88.9,3.37v7.72h-2.76v-7.36c0-1-.17-1.73-.51-2.19-.38-.53-.99-.79-1.82-.79s-1.58.35-2.27,1.07c-.51.51-.89,1.18-1.17,2v7.28h-2.77v-17.93Z"/>
      <path class="cls-11" d="M318.21,355.17c1.88,0,3.43.64,4.65,1.91,1.16,1.21,1.74,2.77,1.74,4.68s-.52,3.34-1.56,4.53c-1.22,1.38-2.84,2.07-4.87,2.07s-3.74-.73-4.96-2.19c-.97-1.17-1.45-2.64-1.45-4.4,0-2.45.91-4.29,2.73-5.51,1.08-.72,2.31-1.09,3.71-1.09ZM318.17,357.27c-.8,0-1.52.28-2.15.83-.95.82-1.42,2.04-1.42,3.67,0,.76.12,1.45.35,2.07.23.59.55,1.07.96,1.47.63.59,1.39.88,2.29.88,1.19,0,2.13-.5,2.8-1.51.52-.78.78-1.76.78-2.92,0-1.34-.35-2.43-1.04-3.27-.68-.81-1.54-1.22-2.56-1.22Z"/>
      <path class="cls-11" d="M339.19,355.17c1.88,0,3.43.64,4.65,1.91,1.16,1.21,1.74,2.77,1.74,4.68s-.52,3.34-1.56,4.53c-1.22,1.38-2.84,2.07-4.87,2.07s-3.74-.73-4.96-2.19c-.97-1.17-1.45-2.64-1.45-4.4,0-2.45.91-4.29,2.73-5.51,1.08-.72,2.31-1.09,3.71-1.09ZM339.15,357.27c-.8,0-1.52.28-2.15.83-.95.82-1.42,2.04-1.42,3.67,0,.76.12,1.45.35,2.07.23.59.55,1.07.96,1.47.63.59,1.39.88,2.29.88,1.19,0,2.13-.5,2.8-1.51.52-.78.78-1.76.78-2.92,0-1.34-.35-2.43-1.04-3.27-.68-.81-1.54-1.22-2.56-1.22Z"/>
      <path class="cls-11" d="M354.75,350.01h2.77v15.31c0,.32.16.48.48.48h1.7l-.3,2.14h-2.33c-.54,0-.99-.1-1.34-.3-.66-.35-.98-.99-.98-1.91v-15.73Z"/>
    </g>
    <g>
      <path class="cls-11" d="M197.27,320.67h6.15c1.94,0,3.45.28,4.54.83.6.31,1.12.73,1.54,1.28.67.88,1.01,1.9,1.01,3.06,0,1.47-.42,2.68-1.26,3.64-.65.75-1.56,1.27-2.71,1.55-.89.22-1.96.33-3.22.33h-3.21v6.31h-2.86v-16.99ZM200.12,322.85v6.32h2.71c1.6,0,2.71-.2,3.35-.61.81-.52,1.21-1.4,1.21-2.64,0-2.04-1.4-3.06-4.21-3.06h-3.06Z"/>
      <path class="cls-11" d="M219.47,328.99h.09c.94-2.71,2.4-4.07,4.36-4.07.57,0,1.11.11,1.64.32l-.74,2.58c-.4-.13-.81-.19-1.22-.19-1.09,0-1.99.53-2.72,1.58-.48.69-.82,1.58-1.01,2.66v5.79h-2.83v-12.37h2.68l-.24,3.71Z"/>
      <path class="cls-11" d="M238.16,324.89c1.95,0,3.56.64,4.84,1.91,1.21,1.21,1.81,2.77,1.81,4.68s-.54,3.34-1.62,4.53c-1.26,1.38-2.95,2.07-5.06,2.07s-3.89-.73-5.16-2.19c-1.01-1.17-1.51-2.64-1.51-4.4,0-2.45.95-4.29,2.84-5.51,1.12-.72,2.41-1.09,3.86-1.09ZM238.11,326.99c-.83,0-1.58.28-2.24.83-.99.82-1.48,2.04-1.48,3.67,0,.76.12,1.45.36,2.07.23.59.57,1.07,1,1.47.65.59,1.45.88,2.39.88,1.24,0,2.21-.5,2.91-1.51.54-.78.81-1.76.81-2.92,0-1.34-.36-2.43-1.09-3.27-.71-.81-1.6-1.22-2.66-1.22Z"/>
      <path class="cls-11" d="M263.88,325.28v9.21c0,1.63-.45,2.89-1.35,3.76-.95.92-2.35,1.38-4.2,1.38-2.31,0-4.2-.53-5.67-1.58l1.23-1.93c1.16.89,2.58,1.34,4.24,1.34,1.97,0,2.96-.89,2.96-2.66v-.9c-.84.88-1.91,1.32-3.21,1.32-1.44,0-2.68-.44-3.71-1.33-1.15-.98-1.73-2.24-1.73-3.76,0-1.07.32-2.04.97-2.93.62-.85,1.43-1.48,2.43-1.87.66-.26,1.35-.39,2.06-.39,1.34,0,2.45.45,3.33,1.34l.33-1h2.31ZM261.09,328.89c-.64-1.17-1.59-1.76-2.86-1.76-.93,0-1.66.3-2.17.89-.48.55-.72,1.25-.72,2.11s.24,1.55.72,2.08c.52.57,1.24.86,2.15.86,1.36,0,2.32-.61,2.89-1.82v-2.36Z"/>
      <path class="cls-11" d="M277.41,328.99h.09c.94-2.71,2.4-4.07,4.36-4.07.57,0,1.11.11,1.64.32l-.74,2.58c-.4-.13-.81-.19-1.22-.19-1.09,0-1.99.53-2.72,1.58-.48.69-.82,1.58-1.01,2.66v5.79h-2.83v-12.37h2.68l-.24,3.71Z"/>
      <path class="cls-11" d="M299.71,329.69v-.2c0-1.69-.83-2.53-2.5-2.53-1.56,0-2.97.46-4.22,1.36l-1.09-1.9c1.64-1.03,3.44-1.55,5.4-1.55s3.3.52,4.23,1.57c.65.72.97,1.77.97,3.17v4.32c0,1.6.26,2.83.77,3.71h-2.6c-.31-.57-.51-1.22-.61-1.95h-.07c-.36.68-.94,1.26-1.75,1.73-.65.38-1.52.57-2.59.57-1.27,0-2.32-.36-3.15-1.07-.87-.75-1.3-1.71-1.3-2.87,0-2.92,2.46-4.38,7.37-4.38h1.14ZM299.71,331.62h-.85c-1.66,0-2.91.2-3.74.61-.71.35-1.07.95-1.07,1.8,0,.57.21,1.03.64,1.36.4.32.93.48,1.58.48.86,0,1.63-.29,2.31-.88.75-.64,1.13-1.47,1.13-2.48v-.9Z"/>
      <path class="cls-11" d="M315.21,325.28v2.18c.23-.62.63-1.15,1.17-1.58.71-.56,1.45-.84,2.23-.84,1.83,0,3.05.86,3.64,2.58.22-.59.53-1.08.94-1.46.77-.75,1.7-1.12,2.79-1.12,1.35,0,2.41.51,3.19,1.53.6.78.89,1.91.89,3.37v7.71h-2.77v-7.43c0-1.99-.66-2.98-1.98-2.98-.63,0-1.21.33-1.75.98-.45.55-.74,1.21-.87,1.98v7.45h-2.79v-7.43c0-1.99-.66-2.98-1.98-2.98-.51,0-1,.25-1.45.76-.54.61-.92,1.41-1.13,2.4v7.25h-2.77v-12.37h2.64Z"/>
      <path class="cls-11" d="M342.34,325.28v2.18c.23-.62.63-1.15,1.17-1.58.71-.56,1.45-.84,2.23-.84,1.83,0,3.05.86,3.64,2.58.22-.59.53-1.08.94-1.46.77-.75,1.7-1.12,2.79-1.12,1.35,0,2.41.51,3.19,1.53.6.78.89,1.91.89,3.37v7.71h-2.77v-7.43c0-1.99-.66-2.98-1.98-2.98-.63,0-1.21.33-1.75.98-.45.55-.74,1.21-.87,1.98v7.45h-2.79v-7.43c0-1.99-.66-2.98-1.98-2.98-.51,0-1,.25-1.45.76-.54.61-.92,1.41-1.13,2.4v7.25h-2.77v-12.37h2.64Z"/>
      <path class="cls-11" d="M366.84,319.96h3.14v2.81h-3.14v-2.81ZM366.97,325.28h2.88v12.37h-2.88v-12.37Z"/>
      <path class="cls-11" d="M382.08,325.28v2.14c1.19-1.58,2.68-2.38,4.47-2.38,1.26,0,2.3.35,3.13,1.04.94.78,1.41,2.07,1.41,3.85v7.71h-2.88v-7.36c0-.97-.19-1.71-.56-2.23-.36-.5-.97-.75-1.83-.75s-1.68.35-2.4,1.07c-.53.52-.93,1.19-1.21,2.01v7.27h-2.88v-12.37h2.75Z"/>
      <path class="cls-11" d="M410.34,325.28v9.21c0,1.63-.45,2.89-1.35,3.76-.95.92-2.35,1.38-4.2,1.38-2.32,0-4.2-.53-5.67-1.58l1.22-1.93c1.16.89,2.58,1.34,4.24,1.34,1.97,0,2.96-.89,2.96-2.66v-.9c-.84.88-1.91,1.32-3.21,1.32-1.44,0-2.68-.44-3.71-1.33-1.15-.98-1.73-2.24-1.73-3.76,0-1.07.32-2.04.97-2.93.62-.85,1.43-1.48,2.43-1.87.66-.26,1.35-.39,2.06-.39,1.33,0,2.45.45,3.33,1.34l.33-1h2.31ZM407.55,328.89c-.64-1.17-1.59-1.76-2.87-1.76-.93,0-1.66.3-2.17.89-.48.55-.72,1.25-.72,2.11s.24,1.55.72,2.08c.52.57,1.24.86,2.15.86,1.36,0,2.32-.61,2.89-1.82v-2.36Z"/>
    </g>
    <path class="cls-2" d="M259.91,315.62c-2.03-1.31-3.92-2.65-5.68-4.03-2.32,1.39-5,2.09-8.04,2.09-4.19,0-7.71-1.28-10.54-3.85-3.35-3.05-5.02-7.13-5.02-12.27,0-4.3,1.22-7.9,3.66-10.8,2.92-3.48,6.9-5.22,11.93-5.22,4.67,0,8.45,1.5,11.33,4.51,2.86,2.96,4.29,6.78,4.29,11.47s-1.44,8.32-4.33,11.38c2,1.33,3.74,2.4,5.23,3.22l-2.83,3.5ZM245.59,300.77c3.58,2.11,6.3,3.87,8.16,5.29,1.76-2.02,2.64-4.85,2.64-8.47,0-2.47-.45-4.62-1.35-6.46-.69-1.42-1.62-2.59-2.79-3.51-1.72-1.37-3.73-2.05-6.02-2.05-3.03,0-5.5,1.13-7.41,3.39-1.83,2.18-2.75,5.06-2.75,8.62,0,3.08.7,5.68,2.1,7.79,1.92,2.92,4.67,4.38,8.25,4.38,1.72,0,3.19-.38,4.42-1.13-2.9-1.94-5.48-3.55-7.73-4.85l2.48-3Z"/>
    <path class="cls-2" d="M280.46,282.27h5.19v26.32h14.62v4.37h-19.82v-30.69Z"/>
    <rect class="cls-2" x="319.9" y="290.61" width="5.19" height="22.35"/>
    <path class="cls-2" d="M345.24,282.27h11.1c3.5,0,6.23.5,8.2,1.5,1.09.55,2.02,1.33,2.79,2.31,1.22,1.59,1.83,3.43,1.83,5.53,0,2.65-.76,4.84-2.27,6.57-1.18,1.36-2.81,2.29-4.89,2.79-1.6.4-3.54.59-5.81.59h-5.79v11.4h-5.16v-30.69ZM350.39,286.21v11.41h4.89c2.89,0,4.9-.37,6.04-1.11,1.46-.94,2.19-2.53,2.19-4.77,0-3.69-2.53-5.53-7.6-5.53h-5.52Z"/>
    <circle class="cls-1" cx="322.5" cy="277.49" r="3.36"/>
    <path class="cls-6" d="M178.11,348.82c-67.59-8.39-121.94-64.24-126.6-135.3-5.27-80.38,55.05-149.77,134.72-154.99s148.53,55.7,153.8,136.08c1.65,25.12-3.11,49.16-12.86,70.51"/>
    <path class="cls-10" d="M283.6,168.74c14.89,24.84,4.74,35.42-7.18,36.51-14.34,1.32-15.45-18.35-24.12-26.51-6.18-5.82-19.62-11.96-34.31-2.2-14.96,9.94-13.32,32.55-2.73,42.78,9.52,9.18,19.41,7.19,24.26,9.67,7.98,4.09,11.37,17.48,5.66,22.7-3.61,3.29-8.1,8.19-34.3.18,0,0,2.3,40.17,2.92,51.07l-80.5,8.68-1.66-199.9s.3-27.65,28.89-18.16c0,0,1.67-20.45,16.61-20.36,14.81.09,18.23,12.21,19.93,23.66,1.69,11.46,3.59,51.42,3.59,51.42,0,0,19.57-12.17,47.15-6.66,23.96,4.79,35.79,27.12,35.79,27.12Z"/>
    <path class="cls-9" d="M213.8,302.94c-.62-10.9-2.92-51.07-2.92-51.07,26.2,8.01,30.69,3.11,34.3-.18,5.71-5.22,2.32-18.61-5.66-22.7-4.85-2.48-14.74-.49-24.26-9.67-10.59-10.23-12.23-32.84,2.73-42.78,14.69-9.76,28.13-3.62,34.31,2.2,8.67,8.16,9.78,27.83,24.12,26.51,11.92-1.09,22.07-11.67,7.18-36.51,0,0-11.83-22.33-35.79-27.12-27.58-5.51-47.15,6.66-47.15,6.66,0,0-1.9-39.96-3.59-51.42-1.7-11.45-5.12-23.57-19.93-23.66-14.94-.09-16.61,20.36-16.61,20.36-28.59-9.49-28.89,18.16-28.89,18.16l1.66,199.9"/>
    <path class="cls-5" d="M201.12,148c-4.96,3.35-16.12,12.03-19.07,27.38"/>
    <path class="cls-9" d="M160.53,93.56c-.69,3.09,1.6,66.8,1.6,66.8"/>
    <rect class="cls-8" x="259.7" y="198.51" width="19" height="62.27" transform="translate(615.92 158.99) rotate(128.01)"/>
    <polygon class="cls-7" points="310.59 262.01 299.94 241.62 288.23 256.59 310.59 262.01"/>
    <polygon class="cls-4" points="307.11 259.37 303.91 253.25 300.4 257.74 307.11 259.37"/>
  </g>
</svg>