<?xml version="1.0" encoding="UTF-8"?>
<svg id="_レイヤー_4" data-name="レイヤー 4" xmlns="http://www.w3.org/2000/svg" viewBox="0 0 425.2 425.2">
  <defs>
    <style>
      .cls-1 {
        fill: #fff;
      }

      .cls-2 {
        fill: #231815;
      }

      .cls-3 {
        fill: #5a452d;
      }
    </style>
  </defs>
  <rect class="cls-1" x="0" y=".91" width="425.2" height="425.2"/>
  <g>
    <g>
      <path class="cls-3" d="M94.27,228.28c17.25-31.78,68.13-126.81,72.88-150.61l29,5-101.87,145.61Z"/>
      <path class="cls-3" d="M167.65,78.42l27.38,4.72-94.83,135.55c20.41-37.9,62.45-117.61,67.46-140.27M166.63,76.93c-4.67,26.94-78.51,161.27-78.51,161.27l109.14-155.99-30.63-5.28h0Z"/>
    </g>
    <g>
      <path class="cls-3" d="M224.69,112.7l23.91-4.21c4.07,19.63,45.08,95.83,60.33,123.75l-84.24-119.54Z"/>
      <path class="cls-3" d="M248.11,109.24c4.31,18.56,37.31,80.96,54.92,113.51l-77.22-109.58,22.3-3.92M249.12,107.74l-25.55,4.49,91.52,129.87s-62-111.89-65.97-134.36h0Z"/>
    </g>
    <g>
      <path class="cls-3" d="M54.72,239.31c12.36-22.89,41.23-77.29,44.35-91.98l17.85,3.08-62.2,88.9Z"/>
      <path class="cls-3" d="M99.56,148.08l16.24,2.8-55.31,79.05c13.64-25.55,35.76-68.16,39.07-81.85M98.55,146.59c-2.97,17.13-49.92,102.54-49.92,102.54l69.39-99.19-19.48-3.36h0Z"/>
    </g>
    <g>
      <path class="cls-3" d="M295.1,150.31l17.85-3.05c3.1,14.7,31.88,69.14,44.21,92.04l-62.06-88.99Z"/>
      <path class="cls-3" d="M312.46,148c3.29,13.7,25.35,56.35,38.95,81.91l-55.19-79.14,16.24-2.77M313.47,146.51l-19.48,3.33,69.24,99.29s-46.82-85.48-49.76-102.62h0Z"/>
    </g>
    <g>
      <path class="cls-3" d="M346.86,173.03l14.33-2.45c2.49,11.8,25.6,55.52,35.5,73.9l-49.83-71.46Z"/>
      <path class="cls-3" d="M360.79,171.18c2.64,11,20.35,45.24,31.27,65.77l-44.31-63.54,13.04-2.23M361.6,169.98l-15.64,2.67,55.6,79.72s-37.59-68.64-39.95-82.4h0Z"/>
    </g>
  </g>
  <g>
    <path class="cls-2" d="M179.53,314.68v-.89l3.25-.27h.48l3.23.27v.89h-6.96ZM181.95,314.68l7.45-20.11h1.91l7.77,20.11h-2.93l-6.88-18.17h.4l-6.5,18.17h-1.21ZM185.18,307.99v-.99h9.62v.99h-9.62ZM192.87,314.68v-.89l3.57-.27h1.29l3.71.27v.89h-8.57Z"/>
    <path class="cls-2" d="M204.9,295.46v-.89h7.61v.89l-3.52.27h-.67l-3.41-.27ZM212.16,314.84l-5.48-20.27h3.01l4.46,18.04h-.59l4.81-18.04h1.69l4.84,18.04h-.59l4.35-18.04h1.13l-5.13,20.27h-1.72l-4.92-17.63h.64l-4.78,17.63h-1.72ZM215.38,295.46v-.89h7.61v.89l-3.2.27h-1.08l-3.33-.27ZM225.68,295.46v-.89h6.21v.89l-2.63.27h-.62l-2.96-.27Z"/>
    <path class="cls-2" d="M235.21,314.68v-.89l3.25-.27h.48l3.23.27v.89h-6.96ZM237.63,314.68l7.45-20.11h1.91l7.77,20.11h-2.93l-6.88-18.17h.4l-6.51,18.17h-1.21ZM240.86,307.99v-.99h9.62v.99h-9.62ZM248.54,314.68v-.89l3.57-.27h1.29l3.71.27v.89h-8.57Z"/>
  </g>
  <g>
    <path class="cls-2" d="M115.48,342.09v-.84l3.06-.25h.46l3.04.25v.84h-6.55ZM117.76,342.09l7.01-18.93h1.8l7.31,18.93h-2.76l-6.48-17.11h.38l-6.12,17.11h-1.14ZM120.79,335.79v-.94h9.06v.94h-9.06ZM128.03,342.09v-.84l3.37-.25h1.21l3.49.25v.84h-8.07Z"/>
    <path class="cls-2" d="M148.61,342.52c-1.43,0-2.71-.27-3.83-.82-1.12-.55-2-1.35-2.64-2.42-.64-1.06-.96-2.37-.96-3.92s.34-2.76,1.01-3.83c.67-1.07,1.6-1.9,2.78-2.48,1.18-.58,2.52-.87,4.02-.87.94,0,1.81.14,2.59.43.78.29,1.45.69,1.99,1.2.54.51.9,1.13,1.09,1.83-.19.68-.6,1.01-1.24,1.01-.34,0-.63-.11-.87-.33-.24-.22-.42-.59-.52-1.11l-.61-2.35,1.7,1.29c-.73-.51-1.38-.83-1.95-.96-.57-.13-1.2-.2-1.87-.2-.98,0-1.87.23-2.68.7-.81.46-1.45,1.14-1.92,2.04-.47.89-.71,1.99-.71,3.29s.25,2.4.75,3.3c.5.9,1.17,1.58,2.01,2.04.84.46,1.78.68,2.81.68.88,0,1.71-.15,2.49-.44s1.5-.76,2.14-1.41l.51.38c-.68.94-1.51,1.67-2.52,2.19-1,.51-2.19.77-3.56.77Z"/>
    <path class="cls-2" d="M168.5,342.52c-1.43,0-2.71-.27-3.83-.82-1.12-.55-2-1.35-2.64-2.42-.64-1.06-.96-2.37-.96-3.92s.34-2.76,1.01-3.83c.67-1.07,1.6-1.9,2.78-2.48,1.18-.58,2.52-.87,4.02-.87.94,0,1.81.14,2.59.43.78.29,1.45.69,1.99,1.2.54.51.9,1.13,1.09,1.83-.19.68-.6,1.01-1.24,1.01-.34,0-.63-.11-.87-.33-.24-.22-.42-.59-.52-1.11l-.61-2.35,1.7,1.29c-.73-.51-1.38-.83-1.95-.96-.57-.13-1.2-.2-1.87-.2-.98,0-1.87.23-2.68.7-.81.46-1.45,1.14-1.92,2.04-.47.89-.71,1.99-.71,3.29s.25,2.4.75,3.3c.5.9,1.17,1.58,2.01,2.04.84.46,1.78.68,2.81.68.88,0,1.71-.15,2.49-.44s1.5-.76,2.14-1.41l.51.38c-.68.94-1.51,1.67-2.52,2.19-1,.51-2.19.77-3.56.77Z"/>
    <path class="cls-2" d="M189.1,342.52c-1.38,0-2.64-.28-3.76-.83-1.12-.56-2.01-1.38-2.67-2.46-.66-1.08-.99-2.38-.99-3.9,0-1.15.2-2.16.59-3.05.4-.89.94-1.63,1.63-2.24.69-.61,1.48-1.07,2.37-1.39.89-.32,1.83-.48,2.82-.48,1.33,0,2.56.28,3.68.84,1.12.56,2.02,1.37,2.71,2.43.68,1.06,1.02,2.36,1.02,3.9s-.33,2.82-.99,3.9c-.66,1.08-1.55,1.9-2.67,2.46-1.12.56-2.37.83-3.76.83ZM189.1,341.71c1.42,0,2.54-.54,3.38-1.63.84-1.09,1.25-2.66,1.25-4.72s-.42-3.64-1.25-4.73c-.83-1.1-1.96-1.64-3.38-1.64s-2.54.55-3.38,1.64c-.84,1.1-1.25,2.67-1.25,4.73s.42,3.63,1.25,4.72c.83,1.09,1.96,1.63,3.38,1.63Z"/>
    <path class="cls-2" d="M209.25,342.52c-.95,0-1.76-.17-2.45-.51-.69-.34-1.22-.91-1.58-1.72-.36-.81-.54-1.91-.54-3.29l.08-7.62.63.43-2.99-.2v-.71l4.71-.46.3.28-.1,4.02v4.45c0,1.35.27,2.29.8,2.83.53.54,1.29.81,2.29.81s1.96-.24,2.78-.73c.83-.49,1.59-1.11,2.3-1.87l.13.51c-.52.71-1.11,1.35-1.75,1.92-.64.57-1.34,1.02-2.1,1.35-.76.33-1.59.49-2.51.49ZM214.86,342.32v-12.93l.68.43-3.04-.2v-.71l4.73-.46.33.28-.1,4.02v9.14l-1.21-.81,3.57.23v.78l-4.96.23Z"/>
    <path class="cls-2" d="M225.1,342.09v-.78l2.86-.23h1.24l3.04.23v.78h-7.14ZM227.3,342.09c.02-.46.03-1.04.04-1.75,0-.71.02-1.44.03-2.2s.01-1.43.01-2.02v-1.75c0-.86,0-1.64-.01-2.34,0-.7-.03-1.38-.06-2.04l-2.1-.08v-.63l4.35-.99.33.18.1,2.86v4.78c0,.59,0,1.27.01,2.02,0,.76.02,1.49.02,2.2,0,.71.02,1.29.04,1.75h-2.76ZM237.5,342.09c.02-.42.03-.99.04-1.7,0-.71.02-1.45.03-2.21,0-.77.01-1.46.01-2.06v-3.09c0-1.2-.21-2.05-.62-2.54-.41-.5-1.05-.75-1.91-.75-.73,0-1.59.19-2.59.58-1,.39-2.01,1.05-3.02,1.97l-.15-.53c.83-.93,1.62-1.65,2.38-2.16s1.51-.88,2.24-1.1c.73-.22,1.46-.33,2.19-.33.81,0,1.52.16,2.14.47.62.31,1.1.81,1.44,1.51s.52,1.64.52,2.83v3.14c0,.61,0,1.29.01,2.06s.02,1.51.03,2.21c0,.71.02,1.27.04,1.7h-2.76ZM235.35,342.09v-.78l2.86-.23h1.24l3.01.23v.78h-7.11Z"/>
    <path class="cls-2" d="M255.41,342.45c-1.55-.02-2.64-.37-3.28-1.05-.63-.68-.95-1.66-.95-2.92,0-.39,0-.73.01-1.01,0-.29.01-.56.01-.83v-7.01h-2.81v-.81l3.82-.25-1.09.71,1.04-4.83h1.72l-.08,4.98v8.76c0,1.06.2,1.83.61,2.29.41.46,1.02.7,1.85.7.71,0,1.32-.1,1.85-.29.52-.19,1.07-.47,1.64-.82l.38.56c-.54.54-1.2.98-1.99,1.33s-1.7.52-2.75.52ZM252.47,329.62v-.99h6.45v1.09l-6.45-.1Z"/>
    <path class="cls-2" d="M266.18,342.09v-.78l3.32-.23h1.44l3.42.23v.78h-8.17ZM268.89,342.09c.02-.42.03-.99.04-1.71,0-.72.02-1.46.03-2.23,0-.77.01-1.45.01-2.04v-1.57c0-.64,0-1.22-.01-1.72,0-.51-.02-.99-.03-1.44s-.02-.92-.04-1.39l-2.56-.08v-.66l4.99-.96.3.18-.08,3.69v3.95c0,.59,0,1.27.01,2.04s.02,1.51.03,2.23c0,.72.02,1.29.04,1.71h-2.73ZM270.13,324.71c-.4,0-.78-.15-1.11-.44s-.51-.68-.51-1.15c0-.3.08-.57.23-.8s.35-.4.61-.53c.25-.13.51-.19.78-.19.46,0,.84.14,1.16.43s.48.65.48,1.09c0,.47-.16.86-.48,1.15s-.71.44-1.16.44Z"/>
    <path class="cls-2" d="M281.7,342.09v-.78l2.86-.23h1.24l3.04.23v.78h-7.14ZM283.9,342.09c.02-.46.03-1.04.04-1.75,0-.71.02-1.44.03-2.2s.01-1.43.01-2.02v-1.75c0-.86,0-1.64-.01-2.34,0-.7-.03-1.38-.06-2.04l-2.1-.08v-.63l4.35-.99.33.18.1,2.86v4.78c0,.59,0,1.27.01,2.02,0,.76.02,1.49.02,2.2,0,.71.02,1.29.04,1.75h-2.76ZM294.1,342.09c.02-.42.03-.99.04-1.7,0-.71.02-1.45.03-2.21,0-.77.01-1.46.01-2.06v-3.09c0-1.2-.21-2.05-.62-2.54-.41-.5-1.05-.75-1.91-.75-.73,0-1.59.19-2.59.58-1,.39-2.01,1.05-3.02,1.97l-.15-.53c.83-.93,1.62-1.65,2.38-2.16s1.51-.88,2.24-1.1c.73-.22,1.46-.33,2.19-.33.81,0,1.52.16,2.14.47.62.31,1.1.81,1.44,1.51s.52,1.64.52,2.83v3.14c0,.61,0,1.29.01,2.06s.02,1.51.03,2.21c0,.71.02,1.27.04,1.7h-2.76ZM291.95,342.09v-.78l2.86-.23h1.24l3.01.23v.78h-7.11Z"/>
    <path class="cls-2" d="M312.97,348.75c-1.5,0-2.72-.17-3.67-.52s-1.64-.81-2.09-1.4c-.45-.59-.67-1.24-.67-1.95,0-.83.28-1.52.85-2.09.56-.57,1.27-.98,2.11-1.25l.3.25c-.51.42-.89.81-1.16,1.18s-.4.84-.4,1.43c0,1.06.43,1.89,1.29,2.48.86.59,2.13.89,3.82.89,1.91,0,3.32-.33,4.25-1,.93-.67,1.39-1.49,1.39-2.47,0-.49-.18-.91-.53-1.25-.35-.35-1.03-.52-2.02-.52h-4.55c-1.54,0-2.66-.28-3.38-.85-.72-.57-1.08-1.3-1.08-2.21,0-.64.21-1.23.62-1.76.41-.53,1.07-1.06,1.96-1.58l.38.28c-.47.46-.81.82-1,1.1s-.29.61-.29,1c0,.51.2.92.6,1.24.4.32,1.12.48,2.16.48h4.25c1.2,0,2.16.13,2.9.4.73.27,1.27.66,1.61,1.16s.51,1.11.51,1.8c0,.91-.3,1.76-.9,2.54-.6.79-1.5,1.42-2.71,1.9-1.21.48-2.72.72-4.54.72ZM313.07,337.36c-1.2,0-2.21-.2-3.05-.61-.83-.41-1.46-.95-1.89-1.65-.42-.69-.63-1.48-.63-2.35s.21-1.64.63-2.33,1.05-1.24,1.89-1.65c.84-.4,1.85-.61,3.05-.61s2.24.2,3.06.61c.83.41,1.45.95,1.87,1.65.42.69.63,1.47.63,2.33s-.21,1.66-.63,2.35c-.42.69-1.05,1.24-1.87,1.65-.83.4-1.85.61-3.06.61ZM313.07,336.6c.96,0,1.73-.35,2.3-1.05.57-.7.86-1.63.86-2.8s-.29-2.09-.86-2.77c-.57-.68-1.34-1.03-2.3-1.03s-1.71.34-2.29,1.03c-.58.68-.87,1.61-.87,2.77s.29,2.1.86,2.8c.57.7,1.34,1.05,2.3,1.05ZM317.07,329.92l-.13-.51,3.8-1.14.43.3v1.57l-4.1-.23Z"/>
  </g>
  <g>
    <path class="cls-2" d="M179.7,356.05v-.83h3.95v1.09h-.33l-3.62-.25ZM179.7,374.14v-.84l3.62-.28h.86l3.59.28v.84h-8.07ZM182.23,374.14c.03-1.43.05-2.89.05-4.38v-10.17c0-1.47-.02-2.93-.05-4.38h2.73c-.02,1.43-.03,2.9-.04,4.4,0,1.5-.01,3.06-.01,4.68v.48c0,1.75,0,3.39.01,4.91,0,1.52.02,3,.04,4.45h-2.73ZM193.67,359.85l-.91-4.63,1.34.89h-10.45v-.89h11.16l.23,4.63h-1.37ZM183.65,365.21v-.94h7.77v.94h-7.77ZM191.29,367.84l-.38-2.76v-.68l.38-2.68h.99v6.12h-.99Z"/>
    <path class="cls-2" d="M201.01,374.14v-.78l3.32-.23h1.44l3.42.23v.78h-8.17ZM203.72,374.14c.02-.42.03-.99.04-1.71,0-.72.02-1.46.03-2.23,0-.77.01-1.45.01-2.04v-1.57c0-.64,0-1.22-.01-1.72,0-.51-.02-.99-.03-1.44s-.02-.92-.04-1.39l-2.56-.08v-.66l4.99-.96.3.18-.08,3.69v3.95c0,.59,0,1.27.01,2.04,0,.77.02,1.51.03,2.23,0,.72.02,1.29.04,1.71h-2.73ZM204.96,356.76c-.4,0-.78-.15-1.11-.44s-.51-.68-.51-1.15c0-.3.08-.57.23-.8s.35-.4.61-.53c.25-.13.51-.19.78-.19.46,0,.84.14,1.16.43s.48.65.48,1.09c0,.47-.16.86-.48,1.15s-.71.44-1.16.44Z"/>
    <path class="cls-2" d="M214.86,374.14v-.76l3.29-.25h1.67l3.85.25v.76h-8.81ZM217.56,374.14c.03-.42.05-.99.06-1.71,0-.72.02-1.46.03-2.23s.01-1.45.01-2.04v-1.75c0-.89,0-1.69-.03-2.39-.02-.7-.04-1.36-.08-1.99l-2.53-.08v-.66l4.78-.96.3.18.13,3.92v3.72c0,.59,0,1.27.01,2.04,0,.77.02,1.51.04,2.23.02.72.03,1.29.05,1.71h-2.78ZM220.22,365.41l-.68-.78h.48c.29-.91.72-1.69,1.3-2.34s1.24-1.16,1.96-1.52c.73-.36,1.44-.54,2.15-.54.62,0,1.13.12,1.51.35.38.24.64.59.77,1.06,0,.29-.06.55-.16.78-.11.24-.27.43-.48.57-.21.14-.48.22-.8.22-.37,0-.7-.09-1-.28s-.61-.46-.95-.81l-.78-.81h1.54c-1.01.1-1.94.49-2.77,1.16-.84.68-1.53,1.65-2.09,2.94Z"/>
    <path class="cls-2" d="M234.93,374.14c.02-.42.03-.99.04-1.71,0-.72.02-1.46.03-2.23,0-.77.01-1.45.01-2.04v-1.75c0-.86,0-1.64-.01-2.34,0-.7-.03-1.38-.06-2.04l-2.13-.08v-.63l4.38-.99.3.18.13,2.91v4.73c0,.59,0,1.27.01,2.04s.02,1.51.03,2.23c0,.72.02,1.29.04,1.71h-2.76ZM232.91,374.14v-.78l2.68-.23h1.24l2.91.23v.78h-6.83ZM243.51,374.14c.02-.42.03-.99.04-1.7,0-.71.02-1.45.03-2.21,0-.77.01-1.46.01-2.06v-3.21c0-1.16-.21-1.98-.63-2.45s-.98-.71-1.67-.71c-.47,0-.96.11-1.47.34-.51.23-.99.54-1.44.92-.46.39-.88.82-1.27,1.29l-.1-.48c.51-.79,1.05-1.46,1.63-2,.58-.54,1.19-.95,1.83-1.23.64-.28,1.28-.42,1.92-.42,1.13,0,2.05.37,2.75,1.1.7.73,1.05,1.9,1.05,3.51v3.34c0,.61,0,1.29.01,2.06s.02,1.51.03,2.21c0,.71.02,1.27.04,1.7h-2.76ZM241.46,374.14v-.78l2.66-.23h1.57l2.63.23v.78h-6.86ZM252.09,374.14c.02-.42.03-.99.04-1.7,0-.71.02-1.45.03-2.21s.01-1.46.01-2.06v-3.06c0-1.23-.21-2.09-.63-2.58-.42-.49-.98-.73-1.67-.73s-1.36.22-2.1.65c-.74.43-1.43,1.02-2.08,1.76l-.28-.56c.61-.83,1.2-1.49,1.78-1.99.58-.5,1.18-.86,1.78-1.09.61-.23,1.25-.34,1.92-.34,1.18,0,2.12.38,2.82,1.13.7.75,1.05,1.97,1.05,3.66v3.16c0,.61,0,1.29.01,2.06,0,.77.02,1.51.02,2.21,0,.71.02,1.27.04,1.7h-2.76ZM250.04,374.14v-.78l2.66-.23h1.44l2.81.23v.78h-6.91Z"/>
  </g>
</svg>