<?xml version="1.0" encoding="UTF-8"?>
<svg xmlns="http://www.w3.org/2000/svg" viewBox="0 0 425.2 425.2">
  <defs>
    <style>
      .cls-1, .cls-2 {
        fill: #231815;
      }

      .cls-3 {
        fill: #5a452d;
      }

      .cls-2 {
        font-family: ShizukaGoStdN-R-90ms-RKSJ-H, 'TOT-ShizukaGo StdN';
        font-size: 300px;
        opacity: 0;
      }
    </style>
  </defs>
  <g id="_レイヤー_1" data-name="レイヤー 1">
    <text class="cls-2" transform="translate(78.04 303.82)"><tspan x="0" y="0">Ａ</tspan></text>
    <g id="AWA_会計事務所" data-name="AWA　会計事務所">
      <g>
        <path class="cls-1" d="M91.84,315.23v-.9l2.94-.33h.51l3.27.33v.9h-6.72ZM94,315.23l7.32-22.02h1.68l7.44,22.02h-2.7l-6.6-20.25h.6l-.12.42-6.36,19.83h-1.26ZM97.24,307.76l.12-.96h9.12l.12.96h-9.36ZM104.02,315.23v-.9l4.02-.33h.87l3.9.33v.9h-8.79Z"/>
        <path class="cls-1" d="M113.26,294.29v-.9h8.46v.9l-3.9.33h-.72l-3.84-.33ZM121.81,315.44l-6.21-22.05h2.73l5.16,19.32h-.54l.15-.45,5.61-18.87h1.32l5.76,19.41h-.51l.09-.48,4.95-18.93h1.29l-6.03,22.05h-1.41l-5.79-19.2h.54l-.15.45-5.55,18.75h-1.41ZM125.32,294.29v-.9h8.37v.9l-3.78.33h-.93l-3.66-.33ZM136.96,294.29v-.9h7.32v.9l-3.36.33h-.6l-3.36-.33Z"/>
        <path class="cls-1" d="M144.61,315.23v-.9l2.94-.33h.51l3.27.33v.9h-6.72ZM146.77,315.23l7.32-22.02h1.68l7.44,22.02h-2.7l-6.6-20.25h.6l-.12.42-6.36,19.83h-1.26ZM150.01,307.76l.12-.96h9.12l.12.96h-9.36ZM156.79,315.23v-.9l4.02-.33h.87l3.9.33v.9h-8.79Z"/>
        <path class="cls-1" d="M195.1,291.8c-.68,1.02-1.54,2.05-2.58,3.1s-2.19,2.07-3.46,3.04c-1.27.98-2.61,1.89-4.02,2.71-1.41.83-2.83,1.54-4.25,2.12l-.24-.42c1.28-.68,2.58-1.51,3.9-2.49,1.32-.98,2.56-2.04,3.73-3.18s2.19-2.29,3.06-3.45c.87-1.16,1.5-2.25,1.88-3.27l3.75.9c-.04.16-.16.28-.34.38-.19.09-.49.15-.89.19.66.88,1.46,1.74,2.4,2.57s1.98,1.62,3.1,2.37,2.31,1.43,3.54,2.04c1.23.61,2.48,1.14,3.74,1.58l-.06.48c-.32.06-.62.18-.89.36-.27.18-.5.4-.67.66-.18.26-.31.53-.39.81-1.6-.76-3.13-1.7-4.6-2.81-1.47-1.11-2.78-2.32-3.93-3.64s-2.07-2.67-2.77-4.05ZM182.11,305.72h20.43l1.56-1.89c.36.3.69.57.99.79.3.23.61.48.93.74.32.26.61.52.87.78-.08.3-.34.45-.78.45h-23.73l-.27-.87ZM182.8,314.54c.88,0,2.02-.04,3.42-.12,1.4-.08,2.98-.17,4.75-.29s3.67-.24,5.7-.39c2.03-.15,4.12-.29,6.29-.43l.03.54c-1.42.24-3.02.5-4.8.79-1.78.29-3.78.59-5.99.9-2.21.31-4.67.64-7.36,1-.16.36-.42.58-.78.66l-1.26-2.67ZM187.03,300.32h10.56l1.47-1.86c.36.28.69.54.98.76.29.23.59.48.9.74s.6.51.85.75c-.06.32-.32.48-.78.48h-13.74l-.24-.87ZM190.93,306.11h2.79c-.5,1.02-1.08,2.11-1.75,3.27-.67,1.16-1.35,2.27-2.04,3.33-.69,1.06-1.35,1.95-1.96,2.67h-.84c.32-.56.65-1.23,1-2s.71-1.58,1.07-2.45c.36-.86.69-1.71.99-2.55s.55-1.6.75-2.28ZM197.83,308.84c1.4.62,2.58,1.26,3.52,1.92s1.71,1.3,2.3,1.93c.58.63,1.01,1.23,1.3,1.8.29.57.45,1.08.48,1.53.03.45-.04.8-.19,1.07-.16.26-.39.41-.69.45-.3.04-.64-.07-1.02-.33-.22-.66-.55-1.36-.98-2.09-.43-.73-.93-1.46-1.5-2.19-.57-.73-1.17-1.42-1.79-2.08s-1.22-1.25-1.8-1.77l.36-.24Z"/>
        <path class="cls-1" d="M213.61,295.91h9.6l1.32-1.68c.56.46,1.03.84,1.41,1.16.38.31.73.61,1.05.92-.08.32-.34.48-.78.48h-12.36l-.24-.87ZM215.05,292.16h6.42l1.29-1.68c.56.44,1.03.82,1.41,1.14.38.32.72.62,1.02.9-.08.32-.34.48-.78.48h-9.12l-.24-.84ZM215.14,299.72h6.69l1.26-1.56c.5.42.94.79,1.3,1.1.37.31.7.6.98.88-.08.3-.33.45-.75.45h-9.24l-.24-.87ZM215.14,303.53h6.69l1.26-1.53c.5.42.94.78,1.3,1.08.37.3.7.59.98.87-.08.3-.33.45-.75.45h-9.24l-.24-.87ZM215.35,307.4v-.93l2.01.93h6.54v.87h-6.69v8.64c0,.06-.08.14-.24.24-.16.1-.36.19-.6.27-.24.08-.49.12-.75.12h-.27v-10.14ZM216.16,314.48h7.32v.87h-7.32v-.87ZM222.58,307.4h-.3l1.05-1.2,2.4,1.86c-.08.12-.24.23-.46.33-.23.1-.51.18-.83.24v7.44s-.09.12-.27.23c-.18.11-.39.21-.64.3s-.47.13-.68.13h-.27v-9.33ZM226,299.99h11.61l1.41-1.86c.34.28.64.54.9.76.26.23.54.48.83.74.29.26.55.51.79.75-.06.32-.31.48-.75.48h-14.55l-.24-.87ZM232.27,290.12l3.18.33c-.04.24-.15.44-.33.6-.18.16-.48.28-.9.36v25.38c0,.12-.08.24-.22.36-.15.12-.35.22-.59.32-.24.09-.48.13-.72.13h-.42v-27.48Z"/>
        <path class="cls-1" d="M246.73,307.64h23.91l1.35-1.8c.56.48,1.04.88,1.44,1.21.4.33.75.66,1.05.97-.06.3-.32.45-.78.45h-26.7l-.27-.84ZM246.79,293.18h23.04l1.53-1.86c.36.3.69.56.99.78.3.22.6.46.92.74.31.27.6.52.88.76-.06.32-.33.48-.81.48h-26.28l-.27-.9ZM250.09,311.3h18.84v.87h-18.57l-.27-.87ZM250.27,303.98h18.69v.87h-18.45l-.24-.87ZM250.96,296.45v-.93l2.13.93h15.66v.87h-15.81v4.83c0,.06-.08.14-.25.24-.17.1-.38.18-.64.25-.26.07-.52.1-.78.1h-.3v-6.3ZM252.07,300.32h16.74v.87h-16.74v-.87ZM259.42,290.09l3.06.33c-.04.2-.14.38-.3.52-.16.15-.43.25-.81.29v23.46c0,.52-.08.98-.23,1.38-.15.4-.46.73-.94.99-.48.26-1.24.44-2.28.54-.06-.3-.15-.57-.27-.79-.12-.23-.29-.43-.51-.58-.28-.16-.66-.3-1.12-.42s-1.11-.22-1.91-.3v-.48c.78.04,1.44.08,1.97.12.53.04,1.03.08,1.5.1.47.03.79.04.97.04.32,0,.54-.05.67-.17.13-.11.2-.29.2-.55v-24.48ZM267.91,296.45h-.3l1.08-1.17,2.43,1.8c-.1.12-.26.24-.48.35-.22.11-.47.19-.75.25v3.96c0,.06-.1.14-.3.24-.2.1-.42.18-.67.25-.25.07-.49.1-.71.1h-.3v-5.79ZM268,303.98h-.27l1.05-1.17,2.4,1.8c-.1.12-.27.24-.5.34-.23.11-.49.2-.76.26v7.92c0,.08-.1.17-.29.28-.19.11-.41.21-.65.29-.24.08-.48.12-.72.12h-.27v-9.84Z"/>
        <path class="cls-1" d="M285.19,299.6h2.07v.48c-.7,2.36-1.67,4.58-2.9,6.66-1.23,2.08-2.72,3.93-4.48,5.55l-.42-.39c.92-1.12,1.74-2.35,2.47-3.71.73-1.35,1.37-2.76,1.92-4.23.55-1.47,1-2.93,1.33-4.37ZM279.76,299.57h11.28v.87h-11.01l-.27-.87ZM280.18,291.86h10.26v.87h-9.99l-.27-.87ZM285.46,299.66h1.92v14.94c0,.5-.07.96-.21,1.38-.14.42-.43.76-.87,1.04-.44.27-1.12.45-2.04.55-.02-.3-.08-.58-.18-.84-.1-.26-.24-.47-.42-.63-.22-.18-.54-.33-.95-.44-.41-.11-.96-.21-1.67-.28v-.48c.64.04,1.18.08,1.62.11.44.03.85.05,1.25.07.39.02.66.03.82.03.28,0,.47-.04.57-.13.1-.09.15-.24.15-.44v-14.88ZM282.97,294.53c1.16.24,2.1.55,2.83.93.73.38,1.29.78,1.67,1.2s.62.83.72,1.21c.1.39.09.73-.01,1.01-.11.28-.3.46-.57.54-.27.08-.58.02-.94-.18-.2-.52-.52-1.05-.96-1.6-.44-.55-.93-1.08-1.47-1.58s-1.06-.92-1.56-1.26l.3-.27ZM289.57,291.86h-.36l1.29-1.26,2.19,2.13c-.12.12-.27.2-.46.23-.19.03-.43.05-.74.07-.38.38-.87.8-1.47,1.26-.6.46-1.21.91-1.84,1.35-.63.44-1.2.82-1.7,1.14l-.42-.27c.38-.38.79-.86,1.25-1.42.45-.57.88-1.15,1.3-1.74s.74-1.08.96-1.49ZM290.29,299.57h-.33l1.2-1.23,2.19,2.1c-.2.16-.6.26-1.2.3-.42.56-1,1.17-1.72,1.83-.73.66-1.42,1.21-2.05,1.65l-.39-.27c.26-.38.54-.84.86-1.38.31-.54.6-1.08.87-1.62.27-.54.46-1,.58-1.38ZM296.62,303.2l2.97.3c-.02.2-.11.37-.25.51-.15.14-.4.23-.74.27-.1.94-.25,1.91-.46,2.91s-.52,1.99-.93,2.96c-.41.97-.97,1.91-1.67,2.82-.7.91-1.59,1.75-2.66,2.52-1.07.77-2.37,1.46-3.88,2.08l-.36-.48c1.62-.8,2.94-1.73,3.96-2.79,1.02-1.06,1.82-2.21,2.38-3.45.57-1.24.97-2.51,1.2-3.81.23-1.3.38-2.58.44-3.84ZM302.17,294.05h2.43c-1.12,2.88-2.91,5.23-5.35,7.06-2.45,1.83-5.49,3.24-9.11,4.21l-.21-.48c3.16-1.14,5.78-2.62,7.86-4.42,2.08-1.81,3.54-3.93,4.38-6.38ZM290.08,306.65h14.25v.9h-13.98l-.27-.9ZM295.9,290.12l2.82,1.08c-.06.16-.19.29-.38.4-.19.11-.43.15-.74.11-.76,1.48-1.67,2.8-2.71,3.97s-2.16,2.12-3.31,2.83l-.36-.3c.9-.94,1.77-2.12,2.61-3.53.84-1.41,1.53-2.93,2.07-4.57ZM294.76,294.74c.84,1.38,1.83,2.61,2.99,3.69,1.15,1.08,2.54,2,4.17,2.76,1.63.76,3.59,1.36,5.89,1.8l-.06.33c-.28.1-.52.3-.72.58-.2.29-.34.67-.42,1.12-1.72-.48-3.21-1.04-4.48-1.69-1.27-.65-2.38-1.38-3.32-2.19s-1.77-1.7-2.47-2.67c-.71-.97-1.36-2.01-1.94-3.13l.36-.6ZM294.76,294.02h8.64l1.41-1.8c.34.28.64.53.9.75.26.22.53.46.81.71s.55.5.81.73c-.08.32-.35.48-.81.48h-11.76v-.87ZM303.4,306.68h-.3l1.11-1.14,2.22,1.83c-.12.1-.27.19-.45.25-.18.07-.43.13-.75.17-.1,1.56-.25,2.95-.43,4.16-.19,1.21-.44,2.22-.74,3.03-.3.81-.65,1.38-1.05,1.72-.38.3-.83.53-1.37.67-.53.15-1.08.23-1.67.23,0-.28-.04-.54-.1-.78-.07-.24-.22-.43-.44-.57-.22-.16-.6-.3-1.14-.42-.54-.12-1.08-.23-1.62-.33v-.51c.42.02.9.06,1.44.11s1.05.09,1.54.12c.49.03.84.04,1.06.04.5,0,.86-.09,1.08-.27.38-.32.71-1.22.99-2.71.28-1.49.48-3.35.6-5.59Z"/>
        <path class="cls-1" d="M315.04,297.65v-1.08l2.28,1.08h-.36v5.19c0,1.06-.04,2.22-.11,3.48s-.24,2.56-.5,3.88c-.26,1.33-.67,2.63-1.21,3.9s-1.3,2.46-2.26,3.55l-.39-.33c.78-1.48,1.35-3.03,1.71-4.67.36-1.63.59-3.28.69-4.95.1-1.67.15-3.29.15-4.88v-5.19ZM313.03,292.55h10.32l1.38-1.77c.36.28.67.53.95.75.27.22.55.46.84.71.29.25.55.49.79.71-.08.32-.34.48-.78.48h-13.26l-.24-.87ZM315.79,297.65h8.43v.87h-8.43v-.87ZM315.82,304.82h8.43v.9h-8.43v-.9ZM328,292.85l2.58.87c-.08.18-.3.3-.66.36v6.84c0,1.06-.04,2.17-.13,3.34-.09,1.17-.27,2.34-.54,3.52-.27,1.18-.67,2.35-1.2,3.5-.53,1.15-1.23,2.26-2.08,3.32-.86,1.06-1.94,2.04-3.24,2.94l-.42-.36c1.22-1.2,2.21-2.45,2.96-3.74s1.32-2.62,1.72-4,.67-2.79.81-4.23c.14-1.44.21-2.88.21-4.32v-8.04ZM322.96,297.65h-.3l1.08-1.2,2.4,1.86c-.1.1-.27.21-.5.31-.23.11-.5.2-.83.26v8.01c0,.06-.09.13-.27.22s-.39.18-.63.25c-.24.08-.47.12-.69.12h-.27v-9.84ZM337.27,290.24l2.61,2.13c-.26.3-.77.31-1.53.03-.78.24-1.7.5-2.76.77-1.06.27-2.17.52-3.33.75-1.16.23-2.3.42-3.42.55l-.18-.48c1.02-.32,2.07-.7,3.17-1.14,1.09-.44,2.12-.89,3.09-1.35.97-.46,1.75-.88,2.35-1.26ZM328.72,300.02h7.95l1.41-1.8c.32.28.61.53.87.75.26.22.53.46.82.71s.56.48.79.71c-.08.32-.33.48-.75.48h-11.1v-.84ZM334.51,300.29h1.98v16.68c0,.08-.15.21-.45.39-.3.18-.7.27-1.2.27h-.33v-17.34Z"/>
      </g>
    </g>
  </g>
  <g id="_土柱" data-name="土柱">
    <g>
      <g>
        <path class="cls-3" d="M93.22,225.71c17.25-31.78,68.13-126.81,72.88-150.61l29,5-101.87,145.61Z"/>
        <path class="cls-3" d="M166.61,75.85l27.38,4.72-94.83,135.55c20.41-37.9,62.45-117.61,67.46-140.27M165.58,74.36c-4.67,26.94-78.51,161.27-78.51,161.27l109.14-155.99-30.63-5.28h0Z"/>
      </g>
      <g>
        <path class="cls-3" d="M223.65,110.13l23.91-4.21c4.07,19.63,45.08,95.83,60.33,123.75l-84.24-119.54Z"/>
        <path class="cls-3" d="M247.06,106.67c4.31,18.56,37.31,80.96,54.92,113.51l-77.22-109.58,22.3-3.92M248.08,105.18l-25.55,4.49,91.52,129.87s-62-111.89-65.97-134.36h0Z"/>
      </g>
      <g>
        <path class="cls-3" d="M53.67,236.75c12.36-22.88,41.23-77.29,44.35-91.98l17.85,3.08-62.2,88.9Z"/>
        <path class="cls-3" d="M98.52,145.51l16.24,2.8-55.31,79.05c13.64-25.55,35.76-68.16,39.07-81.85M97.51,144.02c-2.97,17.13-49.92,102.54-49.92,102.54l69.39-99.19-19.48-3.36h0Z"/>
      </g>
      <g>
        <path class="cls-3" d="M294.06,147.74l17.85-3.05c3.1,14.7,31.88,69.14,44.21,92.04l-62.06-88.99Z"/>
        <path class="cls-3" d="M311.41,145.43c3.29,13.7,25.35,56.35,38.95,81.91l-55.19-79.14,16.24-2.77M312.42,143.95l-19.48,3.33,69.24,99.29s-46.82-85.48-49.76-102.62h0Z"/>
      </g>
      <g>
        <path class="cls-3" d="M345.81,170.46l14.33-2.45c2.49,11.8,25.6,55.52,35.5,73.9l-49.83-71.45Z"/>
        <path class="cls-3" d="M359.74,168.61c2.64,11,20.35,45.24,31.27,65.77l-44.31-63.54,13.04-2.23M360.56,167.42l-15.64,2.67,55.6,79.72s-37.59-68.64-39.95-82.4h0Z"/>
      </g>
    </g>
  </g>
</svg>