<?xml version="1.0" encoding="UTF-8"?>
<svg id="_レイヤー_1" data-name="レイヤー 1" xmlns="http://www.w3.org/2000/svg" viewBox="0 0 425.2 425.2">
  <defs>
    <style>
      .cls-1 {
        fill: #fef5ec;
        stroke-linecap: round;
        stroke-linejoin: round;
      }

      .cls-1, .cls-2 {
        stroke: #000;
        stroke-width: .35px;
      }

      .cls-3 {
        fill: #5780bb;
        stroke: #5780bb;
      }

      .cls-3, .cls-2, .cls-4 {
        stroke-miterlimit: 10;
      }

      .cls-3, .cls-4 {
        stroke-width: .46px;
      }

      .cls-5, .cls-2 {
        fill: none;
      }

      .cls-4 {
        fill: #24b7ec;
        stroke: #24b7ec;
      }
    </style>
  </defs>
  <g>
    <path class="cls-1" d="M260.01,108.87s1.75-13.11,0-17.05-8.31-6.12-10.27-19.45c-1.97-13.33-6.99-27.32,0-28.85s8.11,17.48,11.05,17.05-1.43-43.71,6-43.49,5.77,29.49,5.77,29.49c0,0,.3-34.03,6.57-33.44,6.27.6,4.18,21.35,3.43,32.84,0,0,3.73-27.77,10-27.17s-.6,28.96-.6,28.96c0,0,5.85-22.43,11.05-20.9,3.16.93,2.09,12.54-1.64,38.36-3.73,25.82-10.15,24.03-10.15,28.36s-1.49,20.3-1.49,20.3"/>
    <path class="cls-1" d="M165.19,108.87s-1.75-13.11,0-17.05,8.31-6.12,10.27-19.45,6.99-27.32,0-28.85-8.11,17.48-11.05,17.05,1.43-43.71-6-43.49-5.77,29.49-5.77,29.49c0,0-.3-34.03-6.57-33.44s-4.18,21.35-3.43,32.84c0,0-3.73-27.77-10-27.17-6.27.6.6,28.96.6,28.96,0,0-5.85-22.43-11.05-20.9-3.16.93-2.09,12.54,1.64,38.36,3.73,25.82,10.15,24.03,10.15,28.36s1.49,20.3,1.49,20.3"/>
    <g>
      <polygon class="cls-5" points="179.63 247.68 202.51 226.78 179.63 226.78 179.63 247.68"/>
      <polygon class="cls-5" points="202.51 226.78 179.63 247.68 179.63 300.04 245.56 239.81 245.56 226.78 202.51 226.78"/>
      <polygon class="cls-5" points="245.56 135.09 201.14 175.67 245.56 175.67 245.56 135.09"/>
      <polygon class="cls-4" points="245.56 98.55 245.56 135.09 285.56 98.55 245.56 98.55"/>
      <polygon class="cls-4" points="179.63 175.67 179.63 142.96 119.75 197.66 119.75 250.02 201.14 175.67 179.63 175.67"/>
      <polygon class="cls-3" points="179.63 310.26 179.63 300.04 168.45 310.26 179.63 310.26"/>
      <polygon class="cls-3" points="179.63 98.55 170.93 98.55 119.75 145.3 119.75 197.66 179.63 142.96 179.63 98.55"/>
      <polygon class="cls-4" points="119.75 98.55 119.75 145.3 170.93 98.55 119.75 98.55"/>
      <polygon class="cls-4" points="119.75 302.38 119.75 310.26 168.45 310.26 179.63 300.04 179.63 247.68 119.75 302.38"/>
      <polygon class="cls-3" points="305.44 289.83 283.08 310.26 305.44 310.26 305.44 289.83"/>
      <polygon class="cls-4" points="305.44 237.47 245.56 292.17 245.56 310.26 283.08 310.26 305.44 289.83 305.44 237.47"/>
      <polygon class="cls-4" points="305.44 132.75 202.51 226.78 245.56 226.78 245.56 239.81 305.44 185.11 305.44 132.75"/>
      <polygon class="cls-3" points="179.63 226.78 202.51 226.78 305.44 132.75 305.44 98.55 285.56 98.55 245.56 135.09 245.56 175.67 201.14 175.67 119.75 250.02 119.75 302.38 179.63 247.68 179.63 226.78"/>
      <polygon class="cls-3" points="305.44 185.11 245.56 239.81 245.56 292.17 305.44 237.47 305.44 185.11"/>
    </g>
    <path class="cls-2" d="M305.44,310.26h-59.88v-83.47h-65.93v83.47h-59.88V98.55h59.88v77.12h65.93v-77.12h59.88v211.7Z"/>
  </g>
  <g>
    <path d="M145.06,359.78c-2.65,2.51-6.41,4.11-11.01,4.11-7.52,0-14.77-5.99-14.77-19.02s7.45-19.09,14.91-19.09c5.15,0,8.15,1.67,10.73,3.83l-.84,1.11c-2.58-2.16-5.22-3.62-9.96-3.62-6.83,0-13.3,5.99-13.3,17.62s6.27,17.83,13.3,17.83c4.18,0,7.59-1.46,10.1-3.76l.84.97Z"/>
    <path d="M174.04,326.9l-.63,1.39c-1.39-.56-2.86-1.04-5.71-1.04-4.46,0-10.8,3.13-10.8,13.44v22.43h-1.53v-36.57h1.53v8.01c1.18-5.78,6.2-8.78,11.08-8.78,2.79,0,4.81.49,6.06,1.11Z"/>
    <path d="M207.34,344.31c0,.28,0,.49-.07.77h-27.24c.14,11.21,5.71,17.48,13.03,17.48,5.15,0,8.22-1.18,11.56-3.13l.63,1.11c-3.55,2.09-6.9,3.34-12.33,3.34-7.52,0-14.35-6.34-14.35-19.09s6.48-19.02,14.49-19.02,14.28,6.69,14.28,18.53ZM205.88,343.83c-.21-10.87-5.43-16.72-12.82-16.72s-12.75,5.85-13.03,16.72h25.84Z"/>
    <path d="M242.24,363.12h-1.53v-6.2c-2.93,3.97-7.45,6.97-13.03,6.97-6.2,0-12.47-2.65-12.47-10.94s6.13-11.91,13.58-11.91c4.95,0,9.05,1.46,11.91,3.06v-6.06c0-8.15-3.34-10.87-10.66-10.87-4.39,0-7.66,1.25-10.87,2.86l-.56-1.32c3.2-1.6,6.83-2.93,11.49-2.93,8.01,0,12.12,3.07,12.12,12.05v25.29ZM240.71,354.9v-9.4c-3.07-1.74-6.97-3.13-11.98-3.13-6.76,0-11.98,3.48-11.98,10.52s5.43,9.68,11.14,9.68c4.95,0,10.1-3,12.82-7.66Z"/>
    <path d="M305.91,363.12h-1.53v-22.29c0-9.82-4.67-13.72-11.49-13.72-5.43,0-12.05,3-12.05,13.65v22.36h-1.53v-22.36c0-9.89-4.74-13.65-11.49-13.65-5.43,0-12.05,3-12.05,13.65v22.36h-1.53v-36.57h1.53v7.94c1.32-5.78,6.48-8.71,12.26-8.71,6.9,0,11.28,4.04,12.19,10.31,1.39-7.11,6.69-10.31,12.89-10.31,7.45,0,12.82,4.25,12.82,14.77v22.57Z"/>
  </g>
  <g>
    <path d="M155.38,400.69c0,4.05-.85,5.87-4.01,6.8l-.37-.67c2.82-.82,3.57-2.34,3.57-6.13v-19.95h.82v19.95ZM155.72,374.72c0,.37-.33.71-.67.71-.45,0-.74-.33-.74-.71,0-.41.3-.71.74-.71.33,0,.67.3.67.71Z"/>
    <path d="M175.3,400.24h-.82v-3.31c-1.56,2.12-3.98,3.72-6.95,3.72-3.31,0-6.65-1.41-6.65-5.83s3.27-6.35,7.25-6.35c2.64,0,4.83.78,6.35,1.63v-3.23c0-4.35-1.78-5.8-5.68-5.8-2.34,0-4.09.67-5.8,1.52l-.3-.71c1.71-.85,3.64-1.56,6.13-1.56,4.27,0,6.47,1.63,6.47,6.43v13.49ZM174.48,395.86v-5.02c-1.63-.93-3.71-1.67-6.39-1.67-3.6,0-6.39,1.86-6.39,5.61s2.9,5.17,5.95,5.17c2.64,0,5.39-1.6,6.84-4.09Z"/>
    <path d="M192.28,395.67c0,3.2-2.42,4.98-6.06,4.98-2.53,0-4.42-.86-5.98-2.08l.41-.59c1.52,1.15,3.27,1.97,5.57,1.97,3.31,0,5.28-1.56,5.28-4.27,0-2.34-1.08-3.49-5.17-5.2-4.12-1.71-5.5-2.82-5.5-5.69,0-2.49,1.97-4.46,5.39-4.46,2.71,0,4.5.82,5.68,1.78l-.45.59c-1.19-.97-2.86-1.67-5.28-1.67-2.86,0-4.57,1.71-4.57,3.71,0,2.42,1.15,3.34,5.09,5.02,4.24,1.82,5.57,2.93,5.57,5.91Z"/>
    <path d="M225.42,400.24h-.82v-11.89c0-5.24-2.49-7.32-6.13-7.32-2.9,0-6.43,1.6-6.43,7.28v11.93h-.82v-11.93c0-5.28-2.53-7.28-6.13-7.28-2.9,0-6.43,1.6-6.43,7.28v11.93h-.82v-19.51h.82v4.24c.71-3.08,3.46-4.64,6.54-4.64,3.68,0,6.02,2.16,6.5,5.5.74-3.79,3.57-5.5,6.87-5.5,3.98,0,6.84,2.27,6.84,7.88v12.04Z"/>
    <path d="M232.59,374.72c0,.37-.33.71-.67.71-.45,0-.74-.33-.74-.71,0-.41.3-.71.74-.71.33,0,.67.3.67.71ZM232.25,400.24h-.82v-19.51h.82v19.51Z"/>
    <path d="M253.54,400.24h-.82v-11.89c0-5.17-2.45-7.32-6.32-7.32-3.01,0-6.61,1.63-6.61,7.28v11.93h-.82v-19.51h.82v4.24c.74-3.08,3.46-4.64,6.76-4.64,4.16,0,6.98,2.27,6.98,7.88v12.04Z"/>
    <path d="M274.2,390.21c0,.15,0,.26-.04.41h-14.53c.07,5.98,3.05,9.33,6.95,9.33,2.75,0,4.38-.63,6.17-1.67l.33.59c-1.9,1.12-3.68,1.78-6.58,1.78-4.01,0-7.65-3.38-7.65-10.18s3.46-10.14,7.73-10.14,7.62,3.57,7.62,9.88ZM273.42,389.95c-.11-5.8-2.9-8.92-6.84-8.92s-6.8,3.12-6.95,8.92h13.78Z"/>
  </g>
</svg>