<?xml version="1.0" encoding="UTF-8"?>
<svg xmlns="http://www.w3.org/2000/svg" viewBox="0 0 425.2 425.2">
  <defs>
    <style>
      .cls-1 {
        fill: #f9d7e6;
      }

      .cls-2 {
        stroke: #fff;
        stroke-miterlimit: 10;
      }

      .cls-2, .cls-3 {
        fill: #fff;
      }

      .cls-3, .cls-4, .cls-5 {
        stroke-linecap: round;
        stroke-linejoin: round;
        stroke-width: 4px;
      }

      .cls-3, .cls-5 {
        stroke: #3d3939;
      }

      .cls-6, .cls-4 {
        fill: #3e3a39;
      }

      .cls-4 {
        stroke: #3e3a39;
      }

      .cls-5 {
        fill: none;
      }
    </style>
  </defs>
  <g id="_レイヤー_2" data-name="レイヤー 2">
    <rect class="cls-2" width="425.2" height="425.2"/>
  </g>
  <g id="_レイヤー_1" data-name="レイヤー 1">
    <ellipse class="cls-1" cx="230.03" cy="292.48" rx="8.55" ry="9.47"/>
    <path class="cls-6" d="M131.25,289.5v-7.62c0-.76.3-1.42.86-1.99.53-.56,1.19-.79,1.92-.79s1.39.23,1.95.79c.53.56.83,1.23.83,1.99v20.79c-.03.73-.3,1.39-.83,1.92-.56.56-1.19.83-1.95.83s-1.39-.26-1.92-.83c-.56-.53-.83-1.19-.86-1.92v-8.31h-10.36v8.31c0,.73-.27,1.36-.79,1.85-.53.56-1.16.83-1.89.79-.76.03-1.36-.23-1.89-.79-.53-.5-.79-1.13-.83-1.85v-20.79c-.03-.76.23-1.39.76-1.95.56-.56,1.19-.83,1.95-.83s1.39.26,1.92.83c.53.56.79,1.19.76,1.95v7.62h10.36Z"/>
    <path class="cls-6" d="M156.81,281.92c0-.7.27-1.29.79-1.85.53-.53,1.13-.79,1.85-.76.7.03,1.32.3,1.85.83.5.53.76,1.16.73,1.85v20.76c.03.73-.23,1.32-.73,1.85-.53.56-1.16.83-1.89.83s-1.36-.26-1.89-.83c-.5-.53-.76-1.12-.73-1.85v-20.83Z"/>
    <path class="cls-6" d="M202.81,279.1c.7-.03,1.26.17,1.75.66.46.5.73,1.06.73,1.75s-.27,1.22-.73,1.72c-.5.46-1.06.73-1.75.7h-6.72v18.71c.03.73-.2,1.39-.7,1.92-.56.6-1.23.86-1.95.83-.76.03-1.39-.23-1.95-.83-.53-.53-.76-1.19-.73-1.92v-18.71h-6.92c-.7.03-1.26-.23-1.75-.7-.5-.5-.73-1.06-.73-1.72,0-.7.23-1.26.73-1.75s1.06-.7,1.75-.66h18.97Z"/>
    <path class="cls-6" d="M229.98,279.1c2.68,0,5.1.76,7.32,2.35,1.46,1.06,2.48,2.42,3.11,4.11,1.72,4.47,1.72,8.91,0,13.41-.63,1.69-1.66,3.05-3.11,4.11-2.22,1.56-4.63,2.35-7.32,2.35s-5.1-.79-7.32-2.35c-1.46-1.06-2.48-2.42-3.11-4.11-1.66-4.5-1.66-8.94,0-13.41.63-1.69,1.66-3.05,3.11-4.11,2.22-1.59,4.64-2.35,7.32-2.35ZM224.75,287.88c-.93,3.08-.93,6.12,0,9.21.23.76.66,1.42,1.32,1.89,1.13.89,2.38,1.33,3.84,1.33s2.72-.43,3.84-1.33c.66-.46,1.09-1.12,1.32-1.89.96-3.08.96-6.13,0-9.21-.23-.76-.66-1.42-1.32-1.89-1.13-.89-2.38-1.32-3.84-1.32s-2.71.43-3.84,1.32c-.66.46-1.09,1.13-1.32,1.89Z"/>
    <path class="cls-6" d="M264.98,302.71c.03.73-.23,1.36-.76,1.89-.56.56-1.19.83-1.92.79-.76.03-1.36-.23-1.92-.79-.53-.53-.79-1.16-.79-1.89v-20c.03-.86.36-1.66.93-2.28.56-.66,1.29-1.09,2.19-1.23.86-.13,1.66.03,2.45.46.73.46,1.29,1.09,1.59,1.92l5.03,14.77,4.9-14.6c.3-.89.86-1.59,1.66-2.09.83-.46,1.69-.63,2.58-.46.93.13,1.69.6,2.32,1.33.6.7.89,1.49.89,2.45v19.67c0,.73-.26,1.39-.79,1.92-.56.6-1.23.86-1.99.86s-1.39-.26-1.92-.86c-.56-.53-.86-1.19-.86-1.92v-10.53l-3.44,10.83c-.2.73-.6,1.29-1.19,1.75-.63.5-1.32.73-2.09.73s-1.46-.23-2.05-.73c-.63-.46-1.03-1.03-1.23-1.75l-3.58-10.83v10.6Z"/>
    <path class="cls-6" d="M305.64,281.92c0-.7.26-1.29.79-1.85.53-.53,1.13-.79,1.85-.76.7.03,1.32.3,1.85.83.5.53.76,1.16.73,1.85v20.76c.03.73-.23,1.32-.73,1.85-.53.56-1.16.83-1.89.83s-1.36-.26-1.89-.83c-.5-.53-.76-1.12-.73-1.85v-20.83Z"/>
    <ellipse class="cls-3" cx="153.22" cy="207.23" rx="38" ry="51.5"/>
    <ellipse class="cls-4" cx="153.22" cy="206.73" rx="23" ry="31"/>
    <circle class="cls-1" cx="153.22" cy="192.98" r="13"/>
    <path class="cls-5" d="M153.22,155.73c-5.04-5.55-9.77-17.94,0-33.47"/>
    <path class="cls-5" d="M136.55,159.21c-5.04-5.55-9.77-17.94,0-33.47"/>
    <path class="cls-5" d="M170.7,161.34c-5.04-5.55-9.77-17.94,0-33.47"/>
    <g>
      <ellipse class="cls-3" cx="275.35" cy="207.23" rx="38" ry="51.5"/>
      <ellipse class="cls-4" cx="275.35" cy="206.73" rx="23" ry="31"/>
      <circle class="cls-1" cx="275.35" cy="192.98" r="13"/>
      <path class="cls-5" d="M275.35,155.73c-5.04-5.55-9.77-17.94,0-33.47"/>
      <path class="cls-5" d="M258.68,159.21c-5.04-5.55-9.77-17.94,0-33.47"/>
      <path class="cls-5" d="M292.82,161.34c-5.04-5.55-9.77-17.94,0-33.47"/>
    </g>
  </g>
</svg>