<?xml version="1.0" encoding="UTF-8"?>
<svg xmlns="http://www.w3.org/2000/svg" viewBox="0 0 1080 1350">
  <defs>
    <style>
      .cls-1 {
        fill: #fff;
      }

      .cls-1, .cls-2, .cls-3, .cls-4, .cls-5, .cls-6, .cls-7, .cls-8 {
        stroke: #000;
        stroke-linecap: round;
        stroke-linejoin: round;
      }

      .cls-1, .cls-2, .cls-3, .cls-4, .cls-7, .cls-8 {
        stroke-width: 5px;
      }

      .cls-2 {
        fill: #fff209;
      }

      .cls-3 {
        fill: #72bb38;
      }

      .cls-4 {
        fill: #f9dee0;
      }

      .cls-5 {
        stroke-width: 11px;
      }

      .cls-6 {
        stroke-width: 13px;
      }

      .cls-7 {
        fill: #ed8c72;
      }

      .cls-9 {
        fill: #faf8d8;
        stroke: #faf8d8;
        stroke-miterlimit: 10;
        stroke-width: 1.79px;
      }

      .cls-10 {
        fill: #f2a7c8;
      }

      .cls-8 {
        fill: #fef7ef;
      }
    </style>
  </defs>
  <g id="_背景" data-name="背景">
    <rect class="cls-9" width="1080" height="1347.51"/>
  </g>
  <g id="_茎" data-name="茎">
    <path class="cls-3" d="M520.29,346.68l18.96,358.02-33.24,8.19s-5.48-361.42-12.33-375.8c-6.85-14.38,22.79-2.74,22.79-2.74l3.83,12.33Z"/>
    <polygon class="cls-3" points="443.94 423.38 487.28 784.96 532.71 781.54 471.07 411.74 443.94 423.38"/>
    <path class="cls-3" d="M385.78,599.93s31.56,39.69,41.89,112.97c10.33,73.28,17.23,62.99,17.23,62.99l42.37-5.99s-19.71-128.57-46.81-169.96h-54.69Z"/>
    <path class="cls-3" d="M592.72,757.98s35.48-136.86,36.95-177.76h40.4l-47.79,189.67-29.56-11.91Z"/>
    <polygon class="cls-3" points="482.34 629.98 496.64 769.89 520.29 765.48 509.94 622.59 482.34 629.98"/>
    <polygon class="cls-3" points="566.6 647.72 549.36 765.97 575.47 765.97 585.82 652.16 566.6 647.72"/>
    <path class="cls-3" d="M537.53,560.02c-3.45,31.04-17.24,185.75-17.24,201.52s37.05,7.51,37.05,7.51l.86-201.64-20.67-7.39Z"/>
    <path class="cls-3" d="M693.23,497.44c-3.94,13.3-82.78,238.47-91.64,268.53l-27.59-7.99s85.24-261.52,94.11-280.24l25.13,19.71Z"/>
    <polygon class="cls-3" points="644.4 494.98 566.74 840.43 525.17 817.83 612.14 494.98 644.4 494.98"/>
    <polygon class="cls-3" points="611.46 430.92 501.31 813.72 541.48 813.72 649.12 423.38 613.51 417.22 611.46 430.92"/>
    <polygon class="cls-3" points="601.19 353.53 580.64 813.72 503.04 801.34 560.2 353.53 601.19 353.53"/>
    <polygon class="cls-3" points="525.17 432.97 520.29 795.1 558.2 795.1 552.11 422.7 525.17 417.22 525.17 432.97"/>
    <path class="cls-3" d="M466.96,524.73s28.76,227.04,25.68,241.24l23.3-3.1-6.52-244.3-42.46,6.16Z"/>
    <path class="cls-3" d="M379.31,477.74c14.38,27.14,95.87,280.24,95.87,280.24h33.39s-84.07-292.14-92.29-295.56c-8.22-3.42-36.98,15.32-36.98,15.32Z"/>
    <polygon class="cls-3" points="383.55 382.32 508.7 754.86 536.78 742.49 403.75 360.64 377.14 369.01 383.55 382.32"/>
  </g>
  <g id="_花束下のところ" data-name="花束下のところ">
    <path class="cls-4" d="M436.02,769.89l77.23,272.13s-26.97,50.67-29.42,56.8l128.71-4.9-28.6-57.61,60.47-295.01h-212.88l4.49,28.6Z"/>
    <path class="cls-7" d="M540.89,1004.66s-35.27,52.26-37.04,49.37-10.15-33.25-14.98-35.79c-4.83-2.54,46.7-21.21,46.7-21.21l5.31,7.62Z"/>
    <path class="cls-7" d="M557.22,1000.57s33.33,46.88,35,44.29c1.67-2.59,9.59-29.83,14.15-32.11,4.57-2.28-44.13-19.02-44.13-19.02l-5.02,6.84Z"/>
    <path class="cls-7" d="M538.62,976.69c-12.02-4.72-43.52-12.48-50.83-13.24-7.3-.76-23.28-1.95-25.41,6.4s.15,47.16,10.5,53.7c10.35,6.54,68.59-21.3,68.59-21.3l-2.86-25.56Z"/>
    <path class="cls-7" d="M556.74,974.03c11.65-5.58,42.5-15.61,49.73-16.9s23.08-3.64,25.81,4.54c2.73,8.18,3.28,47.05-6.56,54.33-9.84,7.28-69.96-16.26-69.96-16.26l.99-25.7Z"/>
    <path class="cls-7" d="M541.48,984.5c-12.69-3.69-27.88-4.67-25.67,2.09s25.67-2.09,25.67-2.09Z"/>
    <path class="cls-7" d="M580.72,981.81c-.23,7.11-25.23,5.18-25.23,5.18-13.21.01,25.46-12.29,25.23-5.18"/>
    <path class="cls-7" d="M536.49,971.97c2.59-1.07,21.15-2.59,24.04-1.98,2.89.61,1.37,31.96,0,33.48s-18.72,3.96-21.46,3.2-2.59-34.7-2.59-34.7Z"/>
  </g>
  <g id="_手" data-name="手">
    <path class="cls-8" d="M427.67,712.89s-5.96,34.08,66.02,39.19c0,0,17.46-17.89,27.69-14.91,10.22,2.98,0,11.93,0,11.93,0,0,32.8-6.82,34.08,2.98,1.28,9.8-16.19,8.09-16.19,8.09,0,0,19.43.19,18.91,6.37-.52,6.19-18.56,7.99-18.56,7.99,0,0,18.58-2.32,18.57,4.38-.01,6.7-13.41,7.22-13.41,7.22,0,0,12.11-1.55,12.37,4.38.26,5.93-7.73,16.75-54.12,10.82-46.39-5.93-81.97-26.33-91.49-41.49-6.94-11.06-10.8-40.31,16.12-46.96Z"/>
    <path class="cls-8" d="M636.43,718.83s.77,25.26-35.49,36.07c0,0-32.87-15.75-37.21-7.76-4.34,7.99,9.81,11.64,9.81,11.64,0,0-17.57-1.14-17.34,4.79s17.34,4.79,17.34,4.79c0,0-16.66,1.6-16.2,6.62.46,5.02,16.2,4.11,16.2,4.11,0,0-15.29.32-15.06,6.21s15.06,3.83,15.06,3.83c0,0-18.03.23-15.51,6.85,2.51,6.62,54.56,13.01,84.23-24.42,29.68-37.44,15.18-52.27-5.82-52.73Z"/>
  </g>
  <g id="_花" data-name="花">
    <path class="cls-1" d="M405.97,330.6s-2.14-19.85-24.13-14.35c-21.99,5.5-9.77,24.85-9.77,24.85,0,0-28.1,9.97-19.24,27.68,8.86,17.71,27.49,17.41,34.51,10.38,0,0-2.18,9.69,12.52,11.11,14.7,1.41,9.82-15.99,9.82-15.99,0,0,21.03,6.72,21.94-6.72.92-13.44-8.86-16.19-8.86-16.19,0,0,16.49-11.3,7.33-23.21-9.16-11.91-24.13,2.44-24.13,2.44Z"/>
    <ellipse class="cls-2" cx="391.98" cy="352.29" rx="9.66" ry="11.74"/>
    <path class="cls-1" d="M382.05,530.21s9.76-20.73,26.19-17.99c16.44,2.74,23.28,28.95,23.28,28.95,0,0,29.62-8.56,35.44,9.93,6.38,20.26-13.01,32.53-26.71,35.27,0,0,20.54,15.41.68,29.1-19.86,13.7-38.35-9.31-38.35-9.31,0,0-4.45,14.25-20.54,13.66s-38.69-20.1-17.12-46.13c0,0-20.2-10.61-14.38-27.05,5.82-16.44,31.5-16.44,31.5-16.44Z"/>
    <path class="cls-1" d="M479.29,576.44s1.03-16.09,19.52-12.33c18.49,3.77,14.04,22.94,14.04,22.94,0,0,28.15-5.14,28.63,15.41.48,20.54-23.84,20.13-23.84,20.13,0,0,15.75,29.17-18.83,30.2-34.58,1.03-26.71-25.5-22.6-32.95,0,0-24.65,1.11-23.28-17.38s6.16-31.84,26.37-26.02Z"/>
    <path class="cls-1" d="M564.89,608.18s-9.14-26.09,10.33-28.92c19.46-2.82,17.5,19.09,17.5,19.09,0,0,17.47-11.12,27.35,4.88,9.88,16.01-13.74,28.37-13.74,28.37,0,0,17.52,24.19-2.74,36.1-20.26,11.91-35.17-10.37-35.17-10.37,0,0-29.2,8.73-32.28-11.43-3.08-20.16,13.23-18.79,13.23-18.79,0,0-21.84-5.31-10.11-23.97,10.11-16.09,25.65,5.04,25.65,5.04Z"/>
    <path class="cls-1" d="M636.54,529.97s9.5-23.04,30.73-14.82c21.23,8.22,5.82,32.53,5.82,32.53,0,0,22.6-11.98,27.05,10.96,4.45,22.94-32.16,29.88-32.16,29.88,0,0,7.08,20.05-14.45,24.53-21.53,4.48-29.06-29.42-29.06-29.42,0,0-34.41,1.25-31.76-20.09,2.65-21.34,20.11-16.55,20.11-16.55,0,0-14.1-18.69-.68-28.42,13.41-9.73,24.39,11.4,24.39,11.4Z"/>
    <path class="cls-1" d="M530.19,533.68s-4.92-38.73,19.17-36.34c24.09,2.4,10.84,32.19,10.84,32.19,0,0,31.06-13.01,35.17,8.56,4.11,21.57-17.46,32.01-31.16,27.82,0,0,5.68,22.8-14.85,22.17-20.53-.63-27.15-14.66-22.82-28.06,0,0-22.6,5.12-21.57-13.03,1.03-18.15,25.22-13.31,25.22-13.31Z"/>
    <path class="cls-1" d="M452.87,477.74s-9.08-35.18,15.35-37.92c24.43-2.74,24.43,32.53,24.43,32.53,0,0,24.3-12.66,32.01-1.02s3.27,30.13-16.08,32.87c0,0,11.05,22.6-3.64,29.1-14.69,6.51-22.6-2.05-22.6-2.05,0,0-18.35,16.85-31.12,4.49s-6.5-25.38,0-29.15c0,0-17.81.68-17.47-14.38.34-15.07,19.12-14.47,19.12-14.47Z"/>
    <path class="cls-1" d="M365.95,442.21s-3.84-27.39,19.82-25c23.66,2.4,15.44,25,15.44,25,0,0,35.61-8.22,34.93,12.67-.68,20.89-27.29,19.86-27.29,19.86,0,0,18.05,21.57-2.15,27.73-20.2,6.16-27.39-11.3-27.39-11.3,0,0-22.6,17.25-31.5,6.06s7.19-25.23,7.19-25.23c0,0-20.54-6.51-17.46-21.23,3.08-14.72,28.42-8.56,28.42-8.56Z"/>
    <path class="cls-1" d="M431.7,375.1s-1.03-23.63,19.17-21.57c20.2,2.05,16.09,21.57,16.09,21.57,0,0,33.34-5.47,31.05,15.76s-23.86,16.77-23.86,16.77c0,0,18.17,14.42,2.05,24.65-16.12,10.23-31.84-5.36-31.84-5.36,0,0-17.81,19.06-29.45,3.31s6.16-24.65,6.16-24.65c0,0-21.91-9.19-15.75-23.43,6.16-14.24,26.37-7.05,26.37-7.05Z"/>
    <path class="cls-1" d="M487.51,303.2s.96-18.49,17.43-19.52c16.47-1.03,20.24,16.78,20.24,16.78,0,0,28.76-4.79,26.02,16.44-2.74,21.23-18.49,17.81-18.49,17.81,0,0,12.98,21.91-4.47,27.05-17.45,5.14-25.2-14.38-25.2-14.38,0,0-24.09,14.72-32.99.68-8.9-14.04,3.77-22.94,3.77-22.94,0,0-15.75-6.85-11.64-17.12,4.11-10.27,25.34-4.79,25.34-4.79Z"/>
    <path class="cls-1" d="M522.84,394.94s.62-31.13,23.9-25.65c23.28,5.48,13.45,29.1,13.45,29.1,0,0,37.22,5.14,26.61,25.34-10.61,20.2-31.03,3.77-31.03,3.77,0,0,15.62,15.07-1.5,22.26-17.12,7.19-27.73-13.28-27.73-13.28,0,0-22.06,13.43-26.78,0s11.03-21.99,11.03-21.99c0,0-14.85-7.88-9.48-17.12,5.37-9.24,21.53-2.42,21.53-2.42Z"/>
    <path class="cls-1" d="M598.79,464.13s3.42-20.2,21.91-17.12c18.49,3.08,12.91,19.86,12.91,19.86,0,0,24.16-4.93,26.32,10.87,2.16,15.8-19.91,24.4-19.91,24.4,0,0,7.8,14.93-2.67,24.25-10.48,9.31-27.49,2.34-29.42-3.09,0,0-11.85,21.99-28.81,5.9s0-36.64,0-36.64c0,0-15.58-12.33-7.54-26.02,8.04-13.7,27.22-2.4,27.22-2.4Z"/>
    <path class="cls-1" d="M569.13,320.19s-.36-24.58,19.88-23.49c20.24,1.08,18.43,27.9,18.43,27.9,0,0,33.25-3.68,32.89,15.11-.36,18.79-27.11,19.88-27.11,19.88,0,0,13.73,24.22-3.98,29.64-17.71,5.42-35.21,1.89-38.39-16.59,0,0-16.63,15.15-26.89-6.36-10.26-21.51,10.7-22.18,10.7-22.18,0,0-22.13-11.62-10.7-26.44s25.16,2.53,25.16,2.53Z"/>
    <path class="cls-1" d="M679.41,449.23s5.03-23.77,24.05-15.7c19.01,8.07,6.49,24.56,6.49,24.56,0,0,22.29,5.5,16.19,22.91-6.11,17.41-19.4,20.69-30.23,13.99,0,0,4.91,23.85-24.43,16.99-29.34-6.86-6.11-36.47-6.11-36.47,0,0-24.53-7.64-16.23-25.96,8.29-18.32,30.28-.31,30.28-.31Z"/>
    <path class="cls-1" d="M621.38,391.54s5.03-25.07,26.03-20.79c21,4.28,10,27.79,10,27.79,0,0,33.81,4.89,29.88,20.46-3.93,15.58-18.89,14.42-29.88,12.86,0,0-.57,17.68-17.08,21.04-16.51,3.36-26.93-14.81-27.51-21.04,0,0-22.19,6.32-20.26-21.9,1.93-28.22,28.81-18.42,28.81-18.42Z"/>
    <circle class="cls-2" cx="451.18" cy="396.42" r="10.32"/>
    <ellipse class="cls-2" cx="509.28" cy="322.33" rx="13.36" ry="10.92"/>
    <ellipse class="cls-2" cx="588.71" cy="345.1" rx="14.07" ry="8.3"/>
    <ellipse class="cls-2" cx="640.02" cy="415.92" rx="12.79" ry="10.18"/>
    <circle class="cls-2" cx="687.62" cy="470.85" r="8.85"/>
    <ellipse class="cls-2" cx="614.49" cy="490.35" rx="13.3" ry="10.66"/>
    <ellipse class="cls-2" cx="646.54" cy="557.65" rx="9.73" ry="15.7" transform="translate(-197.3 687.71) rotate(-49.54)"/>
    <circle class="cls-2" cx="579.11" cy="625.11" r="8.38"/>
    <circle class="cls-2" cx="551.35" cy="550.14" r="9.88"/>
    <circle class="cls-2" cx="539.24" cy="411.86" r="9.18"/>
    <circle class="cls-2" cx="485.87" cy="491" r="11.31"/>
    <ellipse class="cls-2" cx="497.18" cy="605.34" rx="8.56" ry="11.7"/>
    <ellipse class="cls-2" cx="406.15" cy="568.08" rx="17" ry="13.06"/>
    <ellipse class="cls-2" cx="385.78" cy="462.92" rx="12.46" ry="9.61"/>
  </g>
  <g id="_文字" data-name="文字">
    <g>
      <path class="cls-6" d="M246.79,272.56c3.33,4.47,8.71,11.02,14.16,17.5,5.47,6.32,10.94,12.63,14.41,16.41,9.3,10.52,6.46,22.53-1.76,29.89-6.93,6.13-14.64,7.53-20.06,4.38,1.93,6.09-2.96,16.19-9.2,20.72-7.25,5.23-21.09,6.26-28.07-2.71-3.55-4.73-8.35-10.59-13.23-16.39-5.61-6.49-11.23-12.98-15.43-17.45l11.3-9.23c2.99,3.89,6.98,8.98,11.29,14.09.93,1.11,1.87,2.21,2.8,3.32,4.95,5.88,10.01,11.53,13.78,15.49,3.34,3.45,8.23,2.68,11.38.02,3.41-2.87,4.75-7.5,1.07-12.56-3.41-4.56-8.55-11.01-13.56-17.13-4.81-5.71-9.72-11.19-13.29-14.73l11.49-9.53c3.19,4.3,8.06,10.25,13.01,16.13,5.11,5.89,10.15,11.7,13.55,15.39,4.63,4.98,9.66,3.51,12.81.86,2.39-2.01,4.37-6.74.04-12.57-3.05-4.13-7.83-10.16-12.78-16.03-.93-1.11-1.87-2.21-2.8-3.32-4.45-5.28-8.86-10.16-11.84-13.19l10.92-9.35Z"/>
      <path class="cls-6" d="M309.17,272.53c-4.55,2.58-9.05,5.27-12.72,7.6.38.68.77,1.36,1.21,2.13,5.83,10.27,14.42,13.21,20.52,9.75,7.85-4.45,1.39-16.29,1.39-16.29l13.35-6.04c5.59,10.53,4.23,26.42-8.17,33.46-12.5,7.09-29.73,2.91-40.14-15.65-9.8-17.5-6.92-34.76,7.52-42.96,16.96-9.62,30.03,5.5,37.04,17.41-5.45,2.58-12.83,6.51-20,10.58ZM297.56,255.68c-5.04,2.86-6.19,8.51-4.63,15.31,3.79-1.9,7.92-4.11,11.89-6.36,2.33-1.32,4.6-2.74,6.82-4-3.94-4.68-8.85-7.92-14.08-4.95Z"/>
      <path class="cls-6" d="M380.44,275.62c-3.68,1.29-7.49,1.32-10.93.14.4,1.04,1.01,2,1.47,2.9l-14.56,5.59c-4.38-13.59-9.86-28.79-15.41-43.25-.6-1.56-1.16-3.02-1.76-4.58-5.19-13.52-10.44-25.95-14.92-35.44l14.56-5.59c2.86,8.69,6.06,17.96,9.36,27.19,1.47-2.71,5.04-5.52,8.99-7.03,15-6,29.62,3.19,36.08,20.64,7.38,19.84-1.32,35.11-12.9,39.44ZM360.56,225.98c-5.2,2-6.88,6.94-6.62,11.97,3.43,8.94,6.85,17.54,10.01,25.15,2.45,2.04,6.42,3.98,11.58,1.88,6.37-2.68,9.27-11.91,5.25-23.02-4.45-11.9-11.9-19.18-20.22-15.99Z"/>
      <path class="cls-6" d="M483.72,253.87c-.02-1.01-.73-6.2-.77-7.32-2.56,2.71-5.8,4.5-9.76,5.15-11.69,1.7-27.52-7.28-30.28-28.38-2.39-18.45,8.82-33.58,22.95-35.5,4.19-.57,7.45.22,10.04,1.9-1.54-9.69-3.08-19.37-4.75-28.36l15.35-2.08c.69,11.71,2.43,26.99,4.62,43.11,2.08,15.35,5.37,35.36,8.06,49.39l-15.46,2.1ZM466.77,198.6c-8.26,1.24-11.55,11.8-9.8,24.72,1.59,11.7,8.47,17.63,15.42,16.68,5.5-.86,8.08-4.25,9.25-7.22-.89-8.2-2.02-17.38-3.31-26.87-2.08-4.55-6.06-8.17-11.56-7.31Z"/>
      <path class="cls-6" d="M541.74,214.57c-5.24-.08-10.47-.06-14.82.09-.01.78-.02,1.56-.04,2.45-.19,11.81,5.71,18.7,12.73,18.81,9.02.15,9.46-13.33,9.46-13.33l14.57,1.57c-.53,11.91-9.76,24.91-24.02,24.68-14.37-.23-27.09-12.58-26.64-33.86.44-20.05,11.68-33.46,28.28-33.19,19.49.31,23.07,19.98,23.07,33.8-6.01-.54-14.36-.9-22.6-1.03ZM540.28,194.16c-5.79-.09-9.65,4.19-11.76,10.84,4.23.29,8.91.48,13.47.55,2.67.04,5.35-.02,7.91.02-1.02-6.03-3.6-11.31-9.62-11.41Z"/>
      <path class="cls-6" d="M595.77,253.55c-16.2-2.39-17.72-14.22-16.97-19.29l.9-6.06,13.12,1.94-.81,5.51c-.39,2.65,1.55,5.52,5.63,6.12,4.08.6,6.31-.76,7.06-3.57.53-2.06.54-4.42-5-8.06l-7.48-5.05c-7.7-5.08-10.15-12.09-9.03-19.69.18-1.21.45-2.3.74-3.49,3.4-11.55,13.08-16.09,21.67-14.82,8.93,1.32,16.71,8.89,14.87,21.34l-.8,5.4-12.23-1.81.8-5.4c.57-3.86-2-6.26-4.87-6.69-2.76-.41-5.88.93-7.1,4.58-2.59,7.61,5.9,11.12,10.63,14.18,11.62,7.46,12.49,14.57,10.91,21.43-1.72,7.07-7.37,15.58-22.03,13.41Z"/>
      <path class="cls-6" d="M630.28,258.02c2.46-6.5,5.91-18.27,8.93-30.15,2.88-11.34,5.47-22.86,6.44-30.32l15.12,3.84c-2.59,6.58-5.28,15.79-7.72,25.4-.33,1.3-.69,2.7-1.02,3.99-2.94,11.55-5.31,23.14-6.64,31.07l-15.12-3.84ZM655.01,193.73c-4.97-1.26-8.16-5.87-7.04-10.3,1.12-4.43,6.13-6.95,11.1-5.68s8.16,5.87,7.04,10.3c-1.12,4.43-6.13,6.95-11.1,5.68Z"/>
      <path class="cls-6" d="M673.3,305.35c-15.62-5.95-16.5-19.28-11.5-32.4l1.55-4.06,12.6,4.8-1.43,3.75c-3.21,8.43-1.71,12.94,3.49,14.92,6.98,2.66,9.46-2,12.72-8.98,1.7-3.52,3.54-7.71,5.39-12.26-4.68,2.27-9.54,2.21-14.12.46-1.87-.71-3.73-1.78-5.51-3.05-7.52-5.61-12.14-16.31-6-32.45,6.19-16.24,16.84-26.37,29.19-23.1,7.77,2.13,11.51,7.96,13.24,12.2.59-2.16,1.09-4.11,1.52-5.86l14.58,5.55c-3.28,6.74-7.38,16.86-11.35,27.27-5.16,13.53-10.2,27.71-12.93,36.44-4.84,15.21-19.66,21.24-31.42,16.76ZM703.29,253.23c1.94-5.1,3.82-10.35,5.58-15.28-1.02-4.2-2.52-8.71-7.21-10.5-5.52-2.1-13.68,3.37-17.21,13.24-3.56,9.97-3.66,18.99,4.12,21.72,4.2,1.48,8.88-.79,12.56-3.56l2.14-5.62Z"/>
      <path class="cls-6" d="M753.71,311.72c3.48-4.94,8.06-12.46,12.55-20.28.89-1.55,1.72-2.99,2.61-4.54,3.23-5.85,6.37-11.76,8.64-16.62,2.83-5.82-.68-10.67-5.28-12.28-5.62-2.07-12.05-.5-17.11,3.4-1.72,3-3.44,5.99-5.16,8.98-5.22,9.08-10.27,18.77-14.51,27.51l-13.52-7.77c5.46-8.17,11.41-17.86,17-27.36,5.49-9.56,12.25-22,15.84-29.83l13.52,7.77c-1.79,2.44-5.42,8.32-7.29,11.36,3.18-2.41,9.48-5.99,19.63-1.96,1.17.42,2.33,1.08,3.4,1.69,4.25,2.44,7.74,5.99,9.61,9.89,1.86,4.15,1.74,8.83-1.4,13.84-3.62,5.63-7.64,12.18-11.45,18.6-1.65,2.65-3.2,5.35-4.7,7.96-3.66,6.38-6.85,12.38-9.03,17.29l-13.33-7.66Z"/>
      <path class="cls-6" d="M821.96,317.04c-4.08-3.27-8.24-6.46-11.77-9.01-.49.61-.98,1.22-1.53,1.91-7.39,9.21-6.94,18.28-1.46,22.67,7.04,5.64,15.65-4.74,15.65-4.74l10.55,10.17c-7.72,9.09-22.98,13.71-34.11,4.79-11.21-8.99-13.7-26.54-.31-43.08,12.63-15.58,29.73-19.29,42.69-8.9,15.21,12.19,5.99,29.93-2.47,40.85-4.42-4.11-10.8-9.51-17.23-14.66ZM833.32,300.02c-4.52-3.62-10.19-2.6-15.94,1.36,3.16,2.82,6.75,5.83,10.31,8.69,2.09,1.67,4.24,3.26,6.24,4.86,2.89-5.39,4.08-11.15-.61-14.91Z"/>
      <path class="cls-6" d="M875.04,364.04s5.33-4.25,8.5-7.55c3.33-3.29,2.34-6.94-.46-8.45-5.2-2.76-10.44-1.34-15.79.79-1.87,1.76-3.81,3.59-5.68,5.35-8.6,8.25-16.9,16.67-22.28,22.66l-10.62-11.27c5.49-4.25,14.72-12.32,23.64-20.73.89-.84,1.7-1.6,2.6-2.44,7.62-7.18,14.78-14.53,19.19-19.6l10.62,11.28c-1.78,1.37-3.71,2.88-5.73,4.48,4.77-1.27,11.59-.04,15.72,4.18,7.11,7.23,4.01,15.96-1.68,21.62-5.68,5.5-8.8,9.51-8.8,9.51l-9.24-9.81Z"/>
    </g>
    <g>
      <path class="cls-10" d="M246.79,272.56c3.33,4.47,8.71,11.02,14.16,17.5,5.47,6.32,10.94,12.63,14.41,16.41,9.3,10.52,6.46,22.53-1.76,29.89-6.93,6.13-14.64,7.53-20.06,4.38,1.93,6.09-2.96,16.19-9.2,20.72-7.25,5.23-21.09,6.26-28.07-2.71-3.55-4.73-8.35-10.59-13.23-16.39-5.61-6.49-11.23-12.98-15.43-17.45l11.3-9.23c2.99,3.89,6.98,8.98,11.29,14.09.93,1.11,1.87,2.21,2.8,3.32,4.95,5.88,10.01,11.53,13.78,15.49,3.34,3.45,8.23,2.68,11.38.02,3.41-2.87,4.75-7.5,1.07-12.56-3.41-4.56-8.55-11.01-13.56-17.13-4.81-5.71-9.72-11.19-13.29-14.73l11.49-9.53c3.19,4.3,8.06,10.25,13.01,16.13,5.11,5.89,10.15,11.7,13.55,15.39,4.63,4.98,9.66,3.51,12.81.86,2.39-2.01,4.37-6.74.04-12.57-3.05-4.13-7.83-10.16-12.78-16.03-.93-1.11-1.87-2.21-2.8-3.32-4.45-5.28-8.86-10.16-11.84-13.19l10.92-9.35Z"/>
      <path class="cls-10" d="M309.17,272.53c-4.55,2.58-9.05,5.27-12.72,7.6.38.68.77,1.36,1.21,2.13,5.83,10.27,14.42,13.21,20.52,9.75,7.85-4.45,1.39-16.29,1.39-16.29l13.35-6.04c5.59,10.53,4.23,26.42-8.17,33.46-12.5,7.09-29.73,2.91-40.14-15.65-9.8-17.5-6.92-34.76,7.52-42.96,16.96-9.62,30.03,5.5,37.04,17.41-5.45,2.58-12.83,6.51-20,10.58ZM297.56,255.68c-5.04,2.86-6.19,8.51-4.63,15.31,3.79-1.9,7.92-4.11,11.89-6.36,2.33-1.32,4.6-2.74,6.82-4-3.94-4.68-8.85-7.92-14.08-4.95Z"/>
      <path class="cls-10" d="M380.44,275.62c-3.68,1.29-7.49,1.32-10.93.14.4,1.04,1.01,2,1.47,2.9l-14.56,5.59c-4.38-13.59-9.86-28.79-15.41-43.25-.6-1.56-1.16-3.02-1.76-4.58-5.19-13.52-10.44-25.95-14.92-35.44l14.56-5.59c2.86,8.69,6.06,17.96,9.36,27.19,1.47-2.71,5.04-5.52,8.99-7.03,15-6,29.62,3.19,36.08,20.64,7.38,19.84-1.32,35.11-12.9,39.44ZM360.56,225.98c-5.2,2-6.88,6.94-6.62,11.97,3.43,8.94,6.85,17.54,10.01,25.15,2.45,2.04,6.42,3.98,11.58,1.88,6.37-2.68,9.27-11.91,5.25-23.02-4.45-11.9-11.9-19.18-20.22-15.99Z"/>
      <path class="cls-10" d="M483.72,253.87c-.02-1.01-.73-6.2-.77-7.32-2.56,2.71-5.8,4.5-9.76,5.15-11.69,1.7-27.52-7.28-30.28-28.38-2.39-18.45,8.82-33.58,22.95-35.5,4.19-.57,7.45.22,10.04,1.9-1.54-9.69-3.08-19.37-4.75-28.36l15.35-2.08c.69,11.71,2.43,26.99,4.62,43.11,2.08,15.35,5.37,35.36,8.06,49.39l-15.46,2.1ZM466.77,198.6c-8.26,1.24-11.55,11.8-9.8,24.72,1.59,11.7,8.47,17.63,15.42,16.68,5.5-.86,8.08-4.25,9.25-7.22-.89-8.2-2.02-17.38-3.31-26.87-2.08-4.55-6.06-8.17-11.56-7.31Z"/>
      <path class="cls-10" d="M541.74,214.57c-5.24-.08-10.47-.06-14.82.09-.01.78-.02,1.56-.04,2.45-.19,11.81,5.71,18.7,12.73,18.81,9.02.15,9.46-13.33,9.46-13.33l14.57,1.57c-.53,11.91-9.76,24.91-24.02,24.68-14.37-.23-27.09-12.58-26.64-33.86.44-20.05,11.68-33.46,28.28-33.19,19.49.31,23.07,19.98,23.07,33.8-6.01-.54-14.36-.9-22.6-1.03ZM540.28,194.16c-5.79-.09-9.65,4.19-11.76,10.84,4.23.29,8.91.48,13.47.55,2.67.04,5.35-.02,7.91.02-1.02-6.03-3.6-11.31-9.62-11.41Z"/>
      <path class="cls-10" d="M595.77,253.55c-16.2-2.39-17.72-14.22-16.97-19.29l.9-6.06,13.12,1.94-.81,5.51c-.39,2.65,1.55,5.52,5.63,6.12,4.08.6,6.31-.76,7.06-3.57.53-2.06.54-4.42-5-8.06l-7.48-5.05c-7.7-5.08-10.15-12.09-9.03-19.69.18-1.21.45-2.3.74-3.49,3.4-11.55,13.08-16.09,21.67-14.82,8.93,1.32,16.71,8.89,14.87,21.34l-.8,5.4-12.23-1.81.8-5.4c.57-3.86-2-6.26-4.87-6.69-2.76-.41-5.88.93-7.1,4.58-2.59,7.61,5.9,11.12,10.63,14.18,11.62,7.46,12.49,14.57,10.91,21.43-1.72,7.07-7.37,15.58-22.03,13.41Z"/>
      <path class="cls-10" d="M630.28,258.02c2.46-6.5,5.91-18.27,8.93-30.15,2.88-11.34,5.47-22.86,6.44-30.32l15.12,3.84c-2.59,6.58-5.28,15.79-7.72,25.4-.33,1.3-.69,2.7-1.02,3.99-2.94,11.55-5.31,23.14-6.64,31.07l-15.12-3.84ZM655.01,193.73c-4.97-1.26-8.16-5.87-7.04-10.3,1.12-4.43,6.13-6.95,11.1-5.68s8.16,5.87,7.04,10.3c-1.12,4.43-6.13,6.95-11.1,5.68Z"/>
      <path class="cls-10" d="M673.3,305.35c-15.62-5.95-16.5-19.28-11.5-32.4l1.55-4.06,12.6,4.8-1.43,3.75c-3.21,8.43-1.71,12.94,3.49,14.92,6.98,2.66,9.46-2,12.72-8.98,1.7-3.52,3.54-7.71,5.39-12.26-4.68,2.27-9.54,2.21-14.12.46-1.87-.71-3.73-1.78-5.51-3.05-7.52-5.61-12.14-16.31-6-32.45,6.19-16.24,16.84-26.37,29.19-23.1,7.77,2.13,11.51,7.96,13.24,12.2.59-2.16,1.09-4.11,1.52-5.86l14.58,5.55c-3.28,6.74-7.38,16.86-11.35,27.27-5.16,13.53-10.2,27.71-12.93,36.44-4.84,15.21-19.66,21.24-31.42,16.76ZM703.29,253.23c1.94-5.1,3.82-10.35,5.58-15.28-1.02-4.2-2.52-8.71-7.21-10.5-5.52-2.1-13.68,3.37-17.21,13.24-3.56,9.97-3.66,18.99,4.12,21.72,4.2,1.48,8.88-.79,12.56-3.56l2.14-5.62Z"/>
      <path class="cls-10" d="M753.71,311.72c3.48-4.94,8.06-12.46,12.55-20.28.89-1.55,1.72-2.99,2.61-4.54,3.23-5.85,6.37-11.76,8.64-16.62,2.83-5.82-.68-10.67-5.28-12.28-5.62-2.07-12.05-.5-17.11,3.4-1.72,3-3.44,5.99-5.16,8.98-5.22,9.08-10.27,18.77-14.51,27.51l-13.52-7.77c5.46-8.17,11.41-17.86,17-27.36,5.49-9.56,12.25-22,15.84-29.83l13.52,7.77c-1.79,2.44-5.42,8.32-7.29,11.36,3.18-2.41,9.48-5.99,19.63-1.96,1.17.42,2.33,1.08,3.4,1.69,4.25,2.44,7.74,5.99,9.61,9.89,1.86,4.15,1.74,8.83-1.4,13.84-3.62,5.63-7.64,12.18-11.45,18.6-1.65,2.65-3.2,5.35-4.7,7.96-3.66,6.38-6.85,12.38-9.03,17.29l-13.33-7.66Z"/>
      <path class="cls-10" d="M821.96,317.04c-4.08-3.27-8.24-6.46-11.77-9.01-.49.61-.98,1.22-1.53,1.91-7.39,9.21-6.94,18.28-1.46,22.67,7.04,5.64,15.65-4.74,15.65-4.74l10.55,10.17c-7.72,9.09-22.98,13.71-34.11,4.79-11.21-8.99-13.7-26.54-.31-43.08,12.63-15.58,29.73-19.29,42.69-8.9,15.21,12.19,5.99,29.93-2.47,40.85-4.42-4.11-10.8-9.51-17.23-14.66ZM833.32,300.02c-4.52-3.62-10.19-2.6-15.94,1.36,3.16,2.82,6.75,5.83,10.31,8.69,2.09,1.67,4.24,3.26,6.24,4.86,2.89-5.39,4.08-11.15-.61-14.91Z"/>
      <path class="cls-10" d="M875.04,364.04s5.33-4.25,8.5-7.55c3.33-3.29,2.34-6.94-.46-8.45-5.2-2.76-10.44-1.34-15.79.79-1.87,1.76-3.81,3.59-5.68,5.35-8.6,8.25-16.9,16.67-22.28,22.66l-10.62-11.27c5.49-4.25,14.72-12.32,23.64-20.73.89-.84,1.7-1.6,2.6-2.44,7.62-7.18,14.78-14.53,19.19-19.6l10.62,11.28c-1.78,1.37-3.71,2.88-5.73,4.48,4.77-1.27,11.59-.04,15.72,4.18,7.11,7.23,4.01,15.96-1.68,21.62-5.68,5.5-8.8,9.51-8.8,9.51l-9.24-9.81Z"/>
    </g>
    <g>
      <path class="cls-5" d="M141.83,876.62s-14.97,3.96-19.52-14.1c-2.88-11.44,6.9-19.42,19.73-22.08,4.87-1.04,10.62-2.39,16.72-3.83-.63-2.12-1.21-4.07-1.87-5.9l11.26-2.84c.2,1.95.61,3.93.95,6.04,4.45-1.21,8.87-2.52,13.12-3.78l3.13,12.43c-3.82.68-8.61,1.69-13.7,2.97,1.87,7.42,3.08,11.11,5.04,16.23l-11.26,2.83c-1.2-6.26-1.8-9.81-3.49-16.52-5.81,1.46-9.7,2.63-16.99,4.66-11.76,3.15-13.31,6.77-12.93,9.43.63,3.26,3.41,4.47,7.18,3.99l2.63,10.46Z"/>
      <path class="cls-5" d="M167.38,906.85s5.46-1.42,8.97-2.84c3.62-1.37,4.1-4.46,2.5-6.54-3-3.83-7.44-4.53-12.2-4.72-2,.7-4.09,1.43-6.09,2.13-9.28,3.34-18.39,6.92-24.47,9.63l-4.23-12.1c5.58-1.36,15.27-4.36,24.85-7.71.96-.33,1.83-.64,2.79-.97,8.18-2.86,16.07-6.01,21.11-8.36l4.23,12.1c-1.8.43-3.78.93-5.84,1.46,4.03.64,8.77,3.87,10.47,8.45,2.94,7.86-2.34,13.42-8.55,15.78-6.15,2.25-9.85,4.23-9.85,4.23l-3.68-10.53Z"/>
      <path class="cls-5" d="M166.76,980.38c-1.13-1.3-2.09-2.68-2.68-3.93-1.7-3.58-1.29-7.04.55-10.26-3.72-1.4-8.2-4.17-10.64-9.54-4.53-10.2.95-17.59,6.12-20.04,5.08-2.41,13.47-3.01,18.24,7.07,2.53,5.33,2.6,9.79,2.04,12.91l9.41-4.46c5.25-2.49,9.49-6.03,6.53-12.27-2.92-6.17-12.45-4.3-17.61-1.86l-4.78-10.08c12.21-5.89,26.16-4.64,32.2,8.1,6.36,13.41.23,22.23-12.84,27.81-2.87,1.26-6.95,2.99-10.7,4.76-2.58,1.22-5.04,2.49-6.88,3.57-3.09,1.87-2.5,3.33-1.79,4.83l-7.16,3.39ZM172.38,960.38c.06-2.88-.06-6.81-1.25-9.3-1.85-3.92-4-3.92-6.17-2.89s-2.27,3.83-.92,6.66c.95,2,4.36,4.46,7,6.17l1.33-.63Z"/>
      <path class="cls-5" d="M175.5,992.54c5.24-2.37,14.14-7.25,22.86-12.44,8.32-4.96,16.57-10.2,21.5-13.99l6.61,11.09c-5.37,2.34-12.32,6.16-19.37,10.36-.95.57-1.98,1.18-2.93,1.75-8.48,5.05-16.64,10.45-22.06,14.32l-6.61-11.09ZM227.58,969.34c-2.17-3.64-1.35-8.21,1.9-10.15,3.25-1.94,7.65-.48,9.83,3.16,2.17,3.64,1.35,8.21-1.9,10.15-3.25,1.94-7.65.48-9.83-3.16Z"/>
      <path class="cls-5" d="M208.62,1045.83c4.25-2.63,10.17-6.87,16.13-11.37,1.18-.89,2.28-1.72,3.46-2.61,4.36-3.41,8.66-6.89,11.97-9.85,4.05-3.52,2.94-8.34-.04-11.06-3.61-3.4-9.01-4.29-14.13-2.96-2.28,1.72-4.56,3.44-6.84,5.17-6.92,5.22-13.9,10.96-19.97,16.24l-7.78-10.3c6.81-4.45,14.48-9.89,21.82-15.32,7.28-5.5,16.46-12.78,21.74-17.57l7.78,10.3c-2.15,1.28-6.83,4.58-9.24,6.28,3.21-.8,9.16-1.49,15.58,4.87.76.7,1.43,1.58,2.04,2.39,2.44,3.24,3.95,7.07,4.11,10.64.07,3.76-1.54,7.29-5.55,10.09-4.58,3.11-9.77,6.8-14.75,10.45-2.12,1.48-4.18,3.04-6.16,4.54-4.86,3.67-9.23,7.2-12.49,10.24l-7.67-10.15Z"/>
      <path class="cls-5" d="M230.09,1067.06c4.57-3.5,12.13-10.27,19.43-17.3,6.97-6.71,13.82-13.69,17.76-18.51l8.95,9.3c-4.7,3.5-10.6,8.8-16.51,14.49-.8.77-1.66,1.6-2.46,2.37-7.11,6.84-13.83,13.95-18.23,18.96l-8.95-9.3ZM275.54,1032.65c-2.94-3.05-3.18-7.69-.46-10.31,2.72-2.62,7.35-2.21,10.29.85,2.94,3.05,3.18,7.69.46,10.31-2.72,2.62-7.35,2.21-10.29-.85Z"/>
      <path class="cls-5" d="M275.38,1111.49c3.48-3.59,8.19-9.15,12.87-14.97.92-1.15,1.79-2.23,2.72-3.38,3.4-4.37,6.72-8.79,9.21-12.47,3.06-4.4.82-8.81-2.73-10.72-4.33-2.42-9.79-1.96-14.43.58-1.79,2.23-3.58,4.45-5.38,6.68-5.43,6.75-10.81,14.02-15.41,20.62l-10.06-8.09c5.52-5.97,11.63-13.13,17.42-20.18,5.72-7.11,12.85-16.41,16.79-22.34l10.06,8.09c-1.78,1.77-5.5,6.1-7.42,8.35,2.91-1.56,8.52-3.68,16.3.92.91.49,1.77,1.19,2.56,1.82,3.16,2.54,5.56,5.89,6.58,9.32.98,3.63.28,7.45-2.93,11.14-3.68,4.14-7.82,8.98-11.76,13.73-1.69,1.95-3.31,3.96-4.87,5.9-3.81,4.74-7.2,9.24-9.61,12.98l-9.91-7.98Z"/>
      <path class="cls-5" d="M307.28,1161.55c-12.08-6.74-11.2-17.76-5.54-27.91l1.75-3.14,9.74,5.44-1.62,2.9c-3.64,6.52-2.95,10.39,1.08,12.64,5.39,3.01,7.99-.5,11.49-5.83,1.81-2.68,3.82-5.89,5.88-9.39-4.1,1.3-8.08.66-11.62-1.31-1.45-.81-2.84-1.9-4.15-3.16-5.49-5.49-7.99-14.81-1.03-27.29,7.01-12.56,16.95-19.58,26.66-15.42,6.11,2.67,8.47,7.9,9.38,11.57.74-1.7,1.39-3.24,1.94-4.62l11.27,6.29c-3.49,5.12-8.06,12.92-12.55,20.97-5.84,10.47-11.67,21.47-14.95,28.29-5.78,11.87-18.64,15.04-27.74,9.96ZM338.08,1122.46c2.2-3.94,4.37-8.01,6.4-11.84-.33-3.57-1.02-7.44-4.65-9.46-4.27-2.38-11.61,1.12-15.67,8.78-4.11,7.74-5.27,15.11.78,18.28,3.27,1.72,7.37.42,10.71-1.41.81-1.45,1.62-2.9,2.43-4.35Z"/>
      <path class="cls-5" d="M425.44,1158.78c-3.08,9.38-13.34,17.67-24.65,14.31-11.49-3.42-18.69-16.05-13.67-32.92,4.94-15.94,16.86-24.03,30.12-20.09,12.99,3.87,14.73,15.16,12.08,25.04l-11.05-2.62c1.49-5.33,1.19-11.09-4.74-12.85-6.98-2.08-12.73,4.96-15.81,15.3-2.79,9.37.38,16.18,5.95,17.83,7.16,2.13,10.6-8.48,10.6-8.48l11.17,4.48Z"/>
      <path class="cls-5" d="M454.91,1185.7c-11.73-1.95-19.82-12.35-16.76-30.82,2.87-17.28,14.05-25.52,25.8-23.67,12.55,2.08,20.05,11.55,16.86,30.74-3.35,20.19-14.08,25.7-25.9,23.74ZM462.12,1142.22c-5.64-.94-10.4,2.39-12.45,14.76-2.04,12.28,2.13,16.99,7.02,17.99,4.99.92,10.32-2.49,12.36-14.77,2.05-12.37-1.29-17.04-6.93-17.97Z"/>
      <path class="cls-5" d="M524.33,1190.82c.41-2.47.73-5.13.98-7.98-1.45,2.97-4.76,7.96-13.76,8.69-1.02.13-2.13.07-3.14.02-4.14-.22-8.04-1.54-10.79-3.71-2.92-2.37-4.58-5.88-4.14-10.75.57-5.51,1.09-11.76,1.51-18.02.25-3.03.4-5.8.54-8.37.25-4.79.38-8.94.14-13.01l12.71.68c-.74,5.22-1.32,11.01-1.71,18.28-.06,1.1-.12,2.21-.18,3.31-.21,5.62-.31,11.06-.18,15.5.08,5.45,4.49,7.62,8.48,7.19,4.92-.57,9.09-4.23,11.37-9,.15-2.76.3-5.62.46-8.56.46-8.65.72-20.55.6-28.59l12.89.69c-.99,8.17-1.91,20.3-2.49,29.41-.48,9.12-.67,17.88-.4,24.91l-12.89-.69Z"/>
      <path class="cls-5" d="M576.97,1161.74s.26-5.64-.06-9.41c-.23-3.87-3.05-5.24-5.51-4.33-4.55,1.73-6.53,5.77-8.12,10.25.08,2.12.15,4.33.23,6.45.44,9.86,1.16,19.61,1.95,26.23l-12.81.46c.35-5.73.36-15.88,0-26.02-.04-1.01-.07-1.93-.11-2.95-.31-8.66-.98-17.13-1.73-22.64l12.81-.46c-.12,1.85-.23,3.88-.34,6.01,1.81-3.66,6.29-7.24,11.17-7.5,8.38-.48,12.12,6.21,12.54,12.84.33,6.54,1.12,10.66,1.12,10.66l-11.15.4Z"/>
      <path class="cls-5" d="M619.23,1188.64c-13.45,1.63-17.25-7.47-17.76-11.68l-.61-5.03,10.89-1.32.56,4.58c.27,2.2,2.44,4.07,5.83,3.66,3.39-.41,4.87-1.98,4.85-4.4-.03-1.76-.54-3.65-5.76-5.34l-7.07-2.39c-7.25-2.37-10.75-7.43-11.51-13.74-.12-1.01-.14-1.93-.17-2.95.18-9.96,6.92-15.7,14.06-16.57,7.41-.9,15.28,3.44,16.53,13.78l.54,4.48-10.16,1.23-.54-4.49c-.39-3.2-2.97-4.56-5.35-4.27-2.29.28-4.49,2.03-4.66,5.21-.4,6.64,7.14,7.58,11.59,9,10.91,3.41,13.15,8.9,13.4,14.72.17,6.02-2.47,14.04-14.65,15.52Z"/>
      <path class="cls-5" d="M665.61,1151.51c-4.22.98-8.42,2.05-11.88,3.04.15.63.29,1.26.46,1.98,2.21,9.52,8.33,13.88,13.98,12.56,7.27-1.69,4.94-12.59,4.94-12.59l12.02-1.65c1.96,9.67-2.86,21.96-14.36,24.62-11.59,2.68-24.27-4.69-28.16-21.87-3.66-16.19,2.7-29.21,16.08-32.31,15.72-3.64,22.52,11.44,25.28,22.53-4.93.76-11.71,2.15-18.36,3.69ZM660.37,1135.4c-4.67,1.08-6.91,5.29-7.28,11.06,3.45-.61,7.25-1.4,10.93-2.25,2.16-.5,4.29-1.09,6.36-1.57-2.02-4.64-5.16-8.36-10-7.24Z"/>
      <path class="cls-5" d="M755.14,1149.46c-16.6,8.23-29.47-3.6-36.39-17.56-8.48-17.1-11.07-44.53,9.41-54.69,3.47-1.72,9.33-2.57,13-2.23-.3,4.37-.52,7.25-1.23,11-2.18-.46-4.7.07-6.93,1.17-2.97,1.47-5.58,3.9-6.78,6.25-2.82,5.52-2.72,13.39-1.47,20.28,2.44-3.79,5.88-6.62,9.92-8.63,10.24-5.08,23.63-2.36,29.29,9.04,6.35,12.8,5.48,28.26-8.81,35.35ZM739.87,1115.55c-6.61,3.28-9.44,11.47-6.04,18.33,3.07,6.19,9.62,8.19,15.73,5.16,7.35-3.65,8.78-11.15,4.64-18.46-3.28-5.78-8.3-8.03-14.33-5.03Z"/>
      <path class="cls-5" d="M813.31,1093.09s9.43,12.29-5.48,23.45c-9.45,7.07-20.58,1.12-27.98-9.69-2.84-4.1-6.3-8.88-9.98-13.95-1.72,1.4-3.28,2.69-4.72,4l-6.96-9.3c1.72-.94,3.39-2.08,5.2-3.2-2.84-3.64-5.75-7.21-8.55-10.65l10.26-7.68c2.1,3.27,4.88,7.29,8.03,11.49,6.13-4.59,9.06-7.13,13.03-10.9l6.96,9.3c-5.31,3.52-8.36,5.45-13.89,9.59,3.59,4.8,6.17,7.93,10.85,13.88,7.44,9.63,11.39,9.67,13.69,8.29,2.77-1.84,2.81-4.87.91-8.17l8.64-6.46Z"/>
      <path class="cls-5" d="M855.89,1073.54c-3.06-3.34-7.4-7.75-12.26-12.27-1.62-1.51-3.37-3.01-5-4.51-4.12-3.7-8.3-7.33-11.73-10.14-4.23-3.3-8.59-1.31-10.89,1.97-1.99,2.68-1.8,6-1.13,10.02,9.32,8.66,19.37,17.49,28.39,24.98l-8.78,9.46c-5.78-6.25-14.03-14.29-23.16-22.76-1.28-1.19-2.57-2.38-3.85-3.58-8.78-8.16-18.29-16.48-27.05-23.86l8.78-9.46c5.1,5.62,11.8,12.22,19.24,19.25-.58-3.44-.48-7.75,2.74-12.3.62-.81,1.25-1.61,1.94-2.36,2.82-3.04,6.26-5.25,9.76-5.91,3.69-.72,7.51.18,10.96,3.64,3.87,3.97,8.34,8.5,12.8,12.77,1.35,1.25,2.64,2.45,3.99,3.7,5.07,4.71,9.93,9.09,13.88,12.01l-8.66,9.32Z"/>
      <path class="cls-5" d="M892.61,978.57c8.55,4.92,14.59,16.66,9,27.05-5.68,10.55-19.52,15.04-35.02,6.69-14.61-8.07-20.1-21.4-13.54-33.58,6.43-11.93,17.83-11.34,26.98-6.73l-4.81,10.29c-4.92-2.54-10.62-3.42-13.55,2.02-3.45,6.41,2.27,13.48,11.77,18.59,8.6,4.63,15.92,2.92,18.67-2.2,3.54-6.58-6.15-12.11-6.15-12.11l6.66-10.03Z"/>
      <path class="cls-5" d="M915.94,971.94c-7.62-3.77-18.21-8.34-29.75-12.99-1.62-.66-3.25-1.31-4.87-1.97-11.15-4.4-22.97-8.87-33.78-12.63l4.83-11.97c8.67,4.39,20.37,9.41,32.85,14.44,11.92,4.71,24.46,9.37,35.56,13.15l-4.83,11.97Z"/>
      <path class="cls-5" d="M940.71,901.75c-.02,1.72-.22,3.39-.6,4.72-1.11,3.81-3.7,6.12-7.21,7.31,1.86,3.52,3.37,8.56,1.63,14.2-3.38,10.63-12.38,12.53-17.87,10.93-5.4-1.57-12.08-6.68-8.96-17.39,1.65-5.67,4.55-9.05,7.04-11.01l-10-2.91c-5.58-1.62-11.1-1.79-13.03,4.85-1.91,6.55,6.46,11.48,11.95,13.07l-3.12,10.71c-13.04-3.7-22.66-13.88-18.72-27.43,4.14-14.25,14.58-16.79,28.06-12.29,2.98.96,7.18,2.38,11.17,3.54,2.75.8,5.43,1.48,7.51,1.9,3.56.65,4.08-.83,4.55-2.42l7.61,2.21ZM923.23,912.99c-1.96,2.12-4.47,5.13-5.24,7.79-1.21,4.16.39,5.59,2.69,6.26,2.3.67,4.24-1.36,5.11-4.37.62-2.12-.3-6.23-1.15-9.26l-1.42-.41Z"/>
      <path class="cls-5" d="M946.95,871.57c-2.43,13.33-12.25,14.26-16.42,13.5l-4.99-.91,1.97-10.79,4.54.83c2.18.4,4.61-1.13,5.22-4.49s-.45-5.24-2.76-5.94c-1.69-.5-3.65-.57-6.81,3.92l-4.38,6.04c-4.41,6.22-10.28,8.06-16.54,6.92-1-.18-1.89-.44-2.87-.71-9.46-3.13-12.94-11.26-11.66-18.34,1.34-7.35,7.82-13.57,18.07-11.71l4.45.81-1.83,10.07-4.45-.81c-3.17-.58-5.24,1.48-5.67,3.84-.41,2.27.61,4.89,3.59,6,6.23,2.35,9.36-4.57,12.03-8.4,6.49-9.41,12.4-9.93,18.03-8.43,5.8,1.62,12.68,6.53,10.48,18.59Z"/>
      <path class="cls-5" d="M953.34,825.46c-1.32,13.49-11.03,15.23-15.25,14.81l-5.05-.5,1.07-10.92,4.59.45c2.2.22,4.5-1.5,4.83-4.9.33-3.4-.88-5.18-3.24-5.69-1.73-.35-3.68-.27-6.46,4.46l-3.87,6.38c-3.89,6.57-9.58,8.88-15.91,8.26-1.01-.1-1.92-.28-2.92-.47-9.68-2.34-13.83-10.16-13.13-17.31.73-7.43,6.67-14.17,17.04-13.16l4.5.44-1,10.19-4.5-.44c-3.21-.31-5.1,1.91-5.33,4.29-.22,2.29,1.01,4.82,4.08,5.68,6.4,1.83,8.95-5.33,11.29-9.36,5.7-9.91,11.54-10.91,17.27-9.89,5.91,1.13,13.18,5.46,11.98,17.66Z"/>
    </g>
    <g>
      <path class="cls-10" d="M141.83,876.62s-14.97,3.96-19.52-14.1c-2.88-11.44,6.9-19.42,19.73-22.08,4.87-1.04,10.62-2.39,16.72-3.83-.63-2.12-1.21-4.07-1.87-5.9l11.26-2.84c.2,1.95.61,3.93.95,6.04,4.45-1.21,8.87-2.52,13.12-3.78l3.13,12.43c-3.82.68-8.61,1.69-13.7,2.97,1.87,7.42,3.08,11.11,5.04,16.23l-11.26,2.83c-1.2-6.26-1.8-9.81-3.49-16.52-5.81,1.46-9.7,2.63-16.99,4.66-11.76,3.15-13.31,6.77-12.93,9.43.63,3.26,3.41,4.47,7.18,3.99l2.63,10.46Z"/>
      <path class="cls-10" d="M167.38,906.85s5.46-1.42,8.97-2.84c3.62-1.37,4.1-4.46,2.5-6.54-3-3.83-7.44-4.53-12.2-4.72-2,.7-4.09,1.43-6.09,2.13-9.28,3.34-18.39,6.92-24.47,9.63l-4.23-12.1c5.58-1.36,15.27-4.36,24.85-7.71.96-.33,1.83-.64,2.79-.97,8.18-2.86,16.07-6.01,21.11-8.36l4.23,12.1c-1.8.43-3.78.93-5.84,1.46,4.03.64,8.77,3.87,10.47,8.45,2.94,7.86-2.34,13.42-8.55,15.78-6.15,2.25-9.85,4.23-9.85,4.23l-3.68-10.53Z"/>
      <path class="cls-10" d="M166.76,980.38c-1.13-1.3-2.09-2.68-2.68-3.93-1.7-3.58-1.29-7.04.55-10.26-3.72-1.4-8.2-4.17-10.64-9.54-4.53-10.2.95-17.59,6.12-20.04,5.08-2.41,13.47-3.01,18.24,7.07,2.53,5.33,2.6,9.79,2.04,12.91l9.41-4.46c5.25-2.49,9.49-6.03,6.53-12.27-2.92-6.17-12.45-4.3-17.61-1.86l-4.78-10.08c12.21-5.89,26.16-4.64,32.2,8.1,6.36,13.41.23,22.23-12.84,27.81-2.87,1.26-6.95,2.99-10.7,4.76-2.58,1.22-5.04,2.49-6.88,3.57-3.09,1.87-2.5,3.33-1.79,4.83l-7.16,3.39ZM172.38,960.38c.06-2.88-.06-6.81-1.25-9.3-1.85-3.92-4-3.92-6.17-2.89s-2.27,3.83-.92,6.66c.95,2,4.36,4.46,7,6.17l1.33-.63Z"/>
      <path class="cls-10" d="M175.5,992.54c5.24-2.37,14.14-7.25,22.86-12.44,8.32-4.96,16.57-10.2,21.5-13.99l6.61,11.09c-5.37,2.34-12.32,6.16-19.37,10.36-.95.57-1.98,1.18-2.93,1.75-8.48,5.05-16.64,10.45-22.06,14.32l-6.61-11.09ZM227.58,969.34c-2.17-3.64-1.35-8.21,1.9-10.15,3.25-1.94,7.65-.48,9.83,3.16,2.17,3.64,1.35,8.21-1.9,10.15-3.25,1.94-7.65.48-9.83-3.16Z"/>
      <path class="cls-10" d="M208.62,1045.83c4.25-2.63,10.17-6.87,16.13-11.37,1.18-.89,2.28-1.72,3.46-2.61,4.36-3.41,8.66-6.89,11.97-9.85,4.05-3.52,2.94-8.34-.04-11.06-3.61-3.4-9.01-4.29-14.13-2.96-2.28,1.72-4.56,3.44-6.84,5.17-6.92,5.22-13.9,10.96-19.97,16.24l-7.78-10.3c6.81-4.45,14.48-9.89,21.82-15.32,7.28-5.5,16.46-12.78,21.74-17.57l7.78,10.3c-2.15,1.28-6.83,4.58-9.24,6.28,3.21-.8,9.16-1.49,15.58,4.87.76.7,1.43,1.58,2.04,2.39,2.44,3.24,3.95,7.07,4.11,10.64.07,3.76-1.54,7.29-5.55,10.09-4.58,3.11-9.77,6.8-14.75,10.45-2.12,1.48-4.18,3.04-6.16,4.54-4.86,3.67-9.23,7.2-12.49,10.24l-7.67-10.15Z"/>
      <path class="cls-10" d="M230.09,1067.06c4.57-3.5,12.13-10.27,19.43-17.3,6.97-6.71,13.82-13.69,17.76-18.51l8.95,9.3c-4.7,3.5-10.6,8.8-16.51,14.49-.8.77-1.66,1.6-2.46,2.37-7.11,6.84-13.83,13.95-18.23,18.96l-8.95-9.3ZM275.54,1032.65c-2.94-3.05-3.18-7.69-.46-10.31,2.72-2.62,7.35-2.21,10.29.85,2.94,3.05,3.18,7.69.46,10.31-2.72,2.62-7.35,2.21-10.29-.85Z"/>
      <path class="cls-10" d="M275.38,1111.49c3.48-3.59,8.19-9.15,12.87-14.97.92-1.15,1.79-2.23,2.72-3.38,3.4-4.37,6.72-8.79,9.21-12.47,3.06-4.4.82-8.81-2.73-10.72-4.33-2.42-9.79-1.96-14.43.58-1.79,2.23-3.58,4.45-5.38,6.68-5.43,6.75-10.81,14.02-15.41,20.62l-10.06-8.09c5.52-5.97,11.63-13.13,17.42-20.18,5.72-7.11,12.85-16.41,16.79-22.34l10.06,8.09c-1.78,1.77-5.5,6.1-7.42,8.35,2.91-1.56,8.52-3.68,16.3.92.91.49,1.77,1.19,2.56,1.82,3.16,2.54,5.56,5.89,6.58,9.32.98,3.63.28,7.45-2.93,11.14-3.68,4.14-7.82,8.98-11.76,13.73-1.69,1.95-3.31,3.96-4.87,5.9-3.81,4.74-7.2,9.24-9.61,12.98l-9.91-7.98Z"/>
      <path class="cls-10" d="M307.28,1161.55c-12.08-6.74-11.2-17.76-5.54-27.91l1.75-3.14,9.74,5.44-1.62,2.9c-3.64,6.52-2.95,10.39,1.08,12.64,5.39,3.01,7.99-.5,11.49-5.83,1.81-2.68,3.82-5.89,5.88-9.39-4.1,1.3-8.08.66-11.62-1.31-1.45-.81-2.84-1.9-4.15-3.16-5.49-5.49-7.99-14.81-1.03-27.29,7.01-12.56,16.95-19.58,26.66-15.42,6.11,2.67,8.47,7.9,9.38,11.57.74-1.7,1.39-3.24,1.94-4.62l11.27,6.29c-3.49,5.12-8.06,12.92-12.55,20.97-5.84,10.47-11.67,21.47-14.95,28.29-5.78,11.87-18.64,15.04-27.74,9.96ZM338.08,1122.46c2.2-3.94,4.37-8.01,6.4-11.84-.33-3.57-1.02-7.44-4.65-9.46-4.27-2.38-11.61,1.12-15.67,8.78-4.11,7.74-5.27,15.11.78,18.28,3.27,1.72,7.37.42,10.71-1.41.81-1.45,1.62-2.9,2.43-4.35Z"/>
      <path class="cls-10" d="M425.44,1158.78c-3.08,9.38-13.34,17.67-24.65,14.31-11.49-3.42-18.69-16.05-13.67-32.92,4.94-15.94,16.86-24.03,30.12-20.09,12.99,3.87,14.73,15.16,12.08,25.04l-11.05-2.62c1.49-5.33,1.19-11.09-4.74-12.85-6.98-2.08-12.73,4.96-15.81,15.3-2.79,9.37.38,16.18,5.95,17.83,7.16,2.13,10.6-8.48,10.6-8.48l11.17,4.48Z"/>
      <path class="cls-10" d="M454.91,1185.7c-11.73-1.95-19.82-12.35-16.76-30.82,2.87-17.28,14.05-25.52,25.8-23.67,12.55,2.08,20.05,11.55,16.86,30.74-3.35,20.19-14.08,25.7-25.9,23.74ZM462.12,1142.22c-5.64-.94-10.4,2.39-12.45,14.76-2.04,12.28,2.13,16.99,7.02,17.99,4.99.92,10.32-2.49,12.36-14.77,2.05-12.37-1.29-17.04-6.93-17.97Z"/>
      <path class="cls-10" d="M524.33,1190.82c.41-2.47.73-5.13.98-7.98-1.45,2.97-4.76,7.96-13.76,8.69-1.02.13-2.13.07-3.14.02-4.14-.22-8.04-1.54-10.79-3.71-2.92-2.37-4.58-5.88-4.14-10.75.57-5.51,1.09-11.76,1.51-18.02.25-3.03.4-5.8.54-8.37.25-4.79.38-8.94.14-13.01l12.71.68c-.74,5.22-1.32,11.01-1.71,18.28-.06,1.1-.12,2.21-.18,3.31-.21,5.62-.31,11.06-.18,15.5.08,5.45,4.49,7.62,8.48,7.19,4.92-.57,9.09-4.23,11.37-9,.15-2.76.3-5.62.46-8.56.46-8.65.72-20.55.6-28.59l12.89.69c-.99,8.17-1.91,20.3-2.49,29.41-.48,9.12-.67,17.88-.4,24.91l-12.89-.69Z"/>
      <path class="cls-10" d="M576.97,1161.74s.26-5.64-.06-9.41c-.23-3.87-3.05-5.24-5.51-4.33-4.55,1.73-6.53,5.77-8.12,10.25.08,2.12.15,4.33.23,6.45.44,9.86,1.16,19.61,1.95,26.23l-12.81.46c.35-5.73.36-15.88,0-26.02-.04-1.01-.07-1.93-.11-2.95-.31-8.66-.98-17.13-1.73-22.64l12.81-.46c-.12,1.85-.23,3.88-.34,6.01,1.81-3.66,6.29-7.24,11.17-7.5,8.38-.48,12.12,6.21,12.54,12.84.33,6.54,1.12,10.66,1.12,10.66l-11.15.4Z"/>
      <path class="cls-10" d="M619.23,1188.64c-13.45,1.63-17.25-7.47-17.76-11.68l-.61-5.03,10.89-1.32.56,4.58c.27,2.2,2.44,4.07,5.83,3.66,3.39-.41,4.87-1.98,4.85-4.4-.03-1.76-.54-3.65-5.76-5.34l-7.07-2.39c-7.25-2.37-10.75-7.43-11.51-13.74-.12-1.01-.14-1.93-.17-2.95.18-9.96,6.92-15.7,14.06-16.57,7.41-.9,15.28,3.44,16.53,13.78l.54,4.48-10.16,1.23-.54-4.49c-.39-3.2-2.97-4.56-5.35-4.27-2.29.28-4.49,2.03-4.66,5.21-.4,6.64,7.14,7.58,11.59,9,10.91,3.41,13.15,8.9,13.4,14.72.17,6.02-2.47,14.04-14.65,15.52Z"/>
      <path class="cls-10" d="M665.61,1151.51c-4.22.98-8.42,2.05-11.88,3.04.15.63.29,1.26.46,1.98,2.21,9.52,8.33,13.88,13.98,12.56,7.27-1.69,4.94-12.59,4.94-12.59l12.02-1.65c1.96,9.67-2.86,21.96-14.36,24.62-11.59,2.68-24.27-4.69-28.16-21.87-3.66-16.19,2.7-29.21,16.08-32.31,15.72-3.64,22.52,11.44,25.28,22.53-4.93.76-11.71,2.15-18.36,3.69ZM660.37,1135.4c-4.67,1.08-6.91,5.29-7.28,11.06,3.45-.61,7.25-1.4,10.93-2.25,2.16-.5,4.29-1.09,6.36-1.57-2.02-4.64-5.16-8.36-10-7.24Z"/>
      <path class="cls-10" d="M755.14,1149.46c-16.6,8.23-29.47-3.6-36.39-17.56-8.48-17.1-11.07-44.53,9.41-54.69,3.47-1.72,9.33-2.57,13-2.23-.3,4.37-.52,7.25-1.23,11-2.18-.46-4.7.07-6.93,1.17-2.97,1.47-5.58,3.9-6.78,6.25-2.82,5.52-2.72,13.39-1.47,20.28,2.44-3.79,5.88-6.62,9.92-8.63,10.24-5.08,23.63-2.36,29.29,9.04,6.35,12.8,5.48,28.26-8.81,35.35ZM739.87,1115.55c-6.61,3.28-9.44,11.47-6.04,18.33,3.07,6.19,9.62,8.19,15.73,5.16,7.35-3.65,8.78-11.15,4.64-18.46-3.28-5.78-8.3-8.03-14.33-5.03Z"/>
      <path class="cls-10" d="M813.31,1093.09s9.43,12.29-5.48,23.45c-9.45,7.07-20.58,1.12-27.98-9.69-2.84-4.1-6.3-8.88-9.98-13.95-1.72,1.4-3.28,2.69-4.72,4l-6.96-9.3c1.72-.94,3.39-2.08,5.2-3.2-2.84-3.64-5.75-7.21-8.55-10.65l10.26-7.68c2.1,3.27,4.88,7.29,8.03,11.49,6.13-4.59,9.06-7.13,13.03-10.9l6.96,9.3c-5.31,3.52-8.36,5.45-13.89,9.59,3.59,4.8,6.17,7.93,10.85,13.88,7.44,9.63,11.39,9.67,13.69,8.29,2.77-1.84,2.81-4.87.91-8.17l8.64-6.46Z"/>
      <path class="cls-10" d="M855.89,1073.54c-3.06-3.34-7.4-7.75-12.26-12.27-1.62-1.51-3.37-3.01-5-4.51-4.12-3.7-8.3-7.33-11.73-10.14-4.23-3.3-8.59-1.31-10.89,1.97-1.99,2.68-1.8,6-1.13,10.02,9.32,8.66,19.37,17.49,28.39,24.98l-8.78,9.46c-5.78-6.25-14.03-14.29-23.16-22.76-1.28-1.19-2.57-2.38-3.85-3.58-8.78-8.16-18.29-16.48-27.05-23.86l8.78-9.46c5.1,5.62,11.8,12.22,19.24,19.25-.58-3.44-.48-7.75,2.74-12.3.62-.81,1.25-1.61,1.94-2.36,2.82-3.04,6.26-5.25,9.76-5.91,3.69-.72,7.51.18,10.96,3.64,3.87,3.97,8.34,8.5,12.8,12.77,1.35,1.25,2.64,2.45,3.99,3.7,5.07,4.71,9.93,9.09,13.88,12.01l-8.66,9.32Z"/>
      <path class="cls-10" d="M892.61,978.57c8.55,4.92,14.59,16.66,9,27.05-5.68,10.55-19.52,15.04-35.02,6.69-14.61-8.07-20.1-21.4-13.54-33.58,6.43-11.93,17.83-11.34,26.98-6.73l-4.81,10.29c-4.92-2.54-10.62-3.42-13.55,2.02-3.45,6.41,2.27,13.48,11.77,18.59,8.6,4.63,15.92,2.92,18.67-2.2,3.54-6.58-6.15-12.11-6.15-12.11l6.66-10.03Z"/>
      <path class="cls-10" d="M915.94,971.94c-7.62-3.77-18.21-8.34-29.75-12.99-1.62-.66-3.25-1.31-4.87-1.97-11.15-4.4-22.97-8.87-33.78-12.63l4.83-11.97c8.67,4.39,20.37,9.41,32.85,14.44,11.92,4.71,24.46,9.37,35.56,13.15l-4.83,11.97Z"/>
      <path class="cls-10" d="M940.71,901.75c-.02,1.72-.22,3.39-.6,4.72-1.11,3.81-3.7,6.12-7.21,7.31,1.86,3.52,3.37,8.56,1.63,14.2-3.38,10.63-12.38,12.53-17.87,10.93-5.4-1.57-12.08-6.68-8.96-17.39,1.65-5.67,4.55-9.05,7.04-11.01l-10-2.91c-5.58-1.62-11.1-1.79-13.03,4.85-1.91,6.55,6.46,11.48,11.95,13.07l-3.12,10.71c-13.04-3.7-22.66-13.88-18.72-27.43,4.14-14.25,14.58-16.79,28.06-12.29,2.98.96,7.18,2.38,11.17,3.54,2.75.8,5.43,1.48,7.51,1.9,3.56.65,4.08-.83,4.55-2.42l7.61,2.21ZM923.23,912.99c-1.96,2.12-4.47,5.13-5.24,7.79-1.21,4.16.39,5.59,2.69,6.26,2.3.67,4.24-1.36,5.11-4.37.62-2.12-.3-6.23-1.15-9.26l-1.42-.41Z"/>
      <path class="cls-10" d="M946.95,871.57c-2.43,13.33-12.25,14.26-16.42,13.5l-4.99-.91,1.97-10.79,4.54.83c2.18.4,4.61-1.13,5.22-4.49s-.45-5.24-2.76-5.94c-1.69-.5-3.65-.57-6.81,3.92l-4.38,6.04c-4.41,6.22-10.28,8.06-16.54,6.92-1-.18-1.89-.44-2.87-.71-9.46-3.13-12.94-11.26-11.66-18.34,1.34-7.35,7.82-13.57,18.07-11.71l4.45.81-1.83,10.07-4.45-.81c-3.17-.58-5.24,1.48-5.67,3.84-.41,2.27.61,4.89,3.59,6,6.23,2.35,9.36-4.57,12.03-8.4,6.49-9.41,12.4-9.93,18.03-8.43,5.8,1.62,12.68,6.53,10.48,18.59Z"/>
      <path class="cls-10" d="M953.34,825.46c-1.32,13.49-11.03,15.23-15.25,14.81l-5.05-.5,1.07-10.92,4.59.45c2.2.22,4.5-1.5,4.83-4.9.33-3.4-.88-5.18-3.24-5.69-1.73-.35-3.68-.27-6.46,4.46l-3.87,6.38c-3.89,6.57-9.58,8.88-15.91,8.26-1.01-.1-1.92-.28-2.92-.47-9.68-2.34-13.83-10.16-13.13-17.31.73-7.43,6.67-14.17,17.04-13.16l4.5.44-1,10.19-4.5-.44c-3.21-.31-5.1,1.91-5.33,4.29-.22,2.29,1.01,4.82,4.08,5.68,6.4,1.83,8.95-5.33,11.29-9.36,5.7-9.91,11.54-10.91,17.27-9.89,5.91,1.13,13.18,5.46,11.98,17.66Z"/>
    </g>
  </g>
</svg>