<?xml version="1.0" encoding="UTF-8"?>
<svg id="_レイヤー_1" data-name="レイヤー 1" xmlns="http://www.w3.org/2000/svg" viewBox="0 0 1200 342">
  <defs>
    <style>
      .cls-1, .cls-2 {
        fill: #3e3a39;
      }

      .cls-2 {
        stroke: #3e3a39;
      }

      .cls-2, .cls-3, .cls-4 {
        stroke-linecap: round;
        stroke-linejoin: round;
        stroke-width: 4.4px;
      }

      .cls-3 {
        fill: none;
      }

      .cls-3, .cls-4 {
        stroke: #3d3939;
      }

      .cls-5 {
        fill: #f8d6e5;
      }

      .cls-6 {
        opacity: .6;
      }

      .cls-4 {
        fill: #fff;
      }
    </style>
  </defs>
  <g class="cls-6">
    <path class="cls-5" d="M1050.49,341.27c-20.18,0-39.74-7.19-55.07-20.24-7.94-6.76-17.75-10.14-27.56-10.14s-19.62,3.38-27.56,10.14c-15.33,13.05-34.89,20.24-55.07,20.24s-39.74-7.19-55.07-20.24c-7.94-6.76-17.75-10.14-27.56-10.14s-19.62,3.38-27.56,10.14c-15.33,13.05-34.88,20.24-55.06,20.24s-39.74-7.19-55.06-20.23c-7.94-6.77-17.76-10.15-27.57-10.15s-19.62,3.38-27.56,10.14c-15.33,13.05-34.89,20.24-55.07,20.24s-39.74-7.19-55.07-20.24c-7.94-6.76-17.75-10.14-27.56-10.14s-19.62,3.38-27.56,10.14c-15.33,13.05-34.89,20.24-55.07,20.24s-39.74-7.19-55.07-20.24c-7.94-6.76-17.75-10.14-27.56-10.14s-19.62,3.38-27.56,10.14c-15.33,13.05-34.89,20.24-55.07,20.24-27.43,0-52.47-12.72-68.69-34.9-8.14-11.13-20.99-17.42-34.32-17.42-3.9,0-7.83.54-11.71,1.65-7.52,2.15-15.37,3.26-23.35,3.28h-.15C39.18,293.88,1.03,255.81.94,209.02c-.06-30.25,16.17-58.51,42.36-73.76,14.34-8.35,22.51-24.28,20.93-40.79-.26-2.75-.4-5.56-.4-8.34C63.83,39.23,101.97,1.08,148.87,1.08c20.18,0,39.74,7.19,55.08,20.23,7.94,6.76,17.75,10.14,27.55,10.14s19.61-3.38,27.55-10.14c15.34-13.05,34.9-20.23,55.08-20.23s39.74,7.19,55.08,20.23c7.94,6.76,17.75,10.14,27.55,10.14s19.61-3.38,27.55-10.14c15.34-13.05,34.9-20.23,55.08-20.23s39.74,7.19,55.08,20.23c7.94,6.76,17.75,10.14,27.55,10.14s19.61-3.38,27.55-10.14c15.34-13.05,34.9-20.23,55.08-20.23s39.74,7.18,55.06,20.23c7.94,6.76,17.75,10.14,27.56,10.14s19.61-3.38,27.55-10.14c15.33-13.05,34.89-20.23,55.08-20.23s39.74,7.19,55.08,20.23c7.94,6.76,17.75,10.14,27.55,10.14s19.61-3.38,27.55-10.14c15.34-13.05,34.9-20.23,55.08-20.23,27.41,0,52.44,12.71,68.67,34.86,8.14,11.12,20.98,17.39,34.3,17.39,3.91,0,7.85-.54,11.74-1.65,7.53-2.16,15.36-3.27,23.27-3.31h.34c46.6,0,84.73,37.88,85.04,84.46v.78c0,30.2-16.25,58.4-42.41,73.61-14.37,8.35-22.56,24.31-20.96,40.85.25,2.63.38,5.37.38,8.16,0,46.89-38.15,85.04-85.04,85.04Z"/>
  </g>
  <g>
    <ellipse class="cls-5" cx="798.64" cy="184.85" rx="31.69" ry="32.47"/>
    <path class="cls-1" d="M432.34,174.63v-26.1c0-2.61,1.11-4.88,3.19-6.81,1.96-1.93,4.42-2.72,7.12-2.72s5.16.79,7.24,2.72c1.96,1.93,3.07,4.2,3.07,6.81v71.27c-.12,2.5-1.11,4.77-3.07,6.58-2.09,1.93-4.42,2.84-7.24,2.84s-5.16-.91-7.12-2.84c-2.09-1.81-3.07-4.08-3.19-6.58v-28.49h-38.43v28.49c0,2.5-.98,4.65-2.95,6.36-1.96,1.93-4.3,2.83-7,2.72-2.82.11-5.03-.79-7-2.72-1.96-1.7-2.95-3.86-3.07-6.36v-71.27c-.12-2.61.86-4.77,2.82-6.7,2.09-1.93,4.42-2.83,7.24-2.83s5.16.91,7.12,2.83c1.96,1.93,2.95,4.09,2.82,6.7v26.1h38.43Z"/>
    <path class="cls-1" d="M527.14,148.65c0-2.38.98-4.43,2.95-6.36,1.96-1.82,4.17-2.72,6.88-2.61,2.58.11,4.91,1.02,6.88,2.84,1.84,1.81,2.82,3.97,2.7,6.36v71.16c.12,2.5-.86,4.54-2.7,6.35-1.96,1.93-4.3,2.84-7,2.84s-5.03-.91-7-2.84c-1.84-1.81-2.82-3.86-2.7-6.35v-71.38Z"/>
    <path class="cls-1" d="M697.71,139c2.58-.11,4.66.57,6.51,2.27,1.72,1.7,2.7,3.63,2.7,6.01s-.99,4.2-2.7,5.9c-1.84,1.59-3.93,2.5-6.51,2.38h-24.93v64.12c.12,2.5-.74,4.77-2.58,6.58-2.09,2.04-4.54,2.95-7.25,2.83-2.82.11-5.16-.79-7.24-2.83-1.97-1.82-2.82-4.09-2.7-6.58v-64.12h-25.67c-2.58.11-4.66-.79-6.51-2.38-1.84-1.7-2.7-3.63-2.7-5.9,0-2.38.86-4.31,2.7-6.01s3.93-2.38,6.51-2.27h70.36Z"/>
    <path class="cls-1" d="M798.49,139c9.95,0,18.91,2.61,27.14,8.06,5.4,3.63,9.21,8.28,11.55,14.07,6.38,15.32,6.38,30.53,0,45.96-2.34,5.79-6.14,10.44-11.55,14.07-8.22,5.33-17.19,8.06-27.14,8.06s-18.91-2.72-27.14-8.06c-5.4-3.63-9.21-8.28-11.54-14.07-6.14-15.43-6.14-30.64,0-45.96,2.33-5.79,6.14-10.44,11.54-14.07,8.23-5.45,17.19-8.06,27.14-8.06ZM779.09,169.07c-3.44,10.55-3.44,20.99,0,31.55.86,2.61,2.46,4.88,4.91,6.47,4.18,3.07,8.84,4.54,14.24,4.54s10.07-1.48,14.25-4.54c2.46-1.59,4.05-3.86,4.91-6.47,3.56-10.56,3.56-21,0-31.55-.86-2.61-2.46-4.88-4.91-6.47-4.18-3.06-8.84-4.54-14.25-4.54s-10.07,1.48-14.24,4.54c-2.46,1.59-4.05,3.86-4.91,6.47Z"/>
    <path class="cls-1" d="M928.26,219.92c.12,2.5-.86,4.65-2.82,6.47-2.09,1.93-4.42,2.84-7.12,2.72-2.82.11-5.03-.79-7.12-2.72-1.97-1.81-2.95-3.97-2.95-6.47v-68.55c.12-2.95,1.35-5.67,3.44-7.83,2.09-2.27,4.79-3.75,8.1-4.2,3.19-.45,6.14.11,9.09,1.59,2.7,1.59,4.79,3.75,5.9,6.58l18.66,50.61,18.17-50.05c1.11-3.06,3.19-5.45,6.14-7.15,3.07-1.59,6.26-2.16,9.58-1.59,3.44.46,6.27,2.05,8.6,4.54,2.21,2.38,3.31,5.1,3.31,8.4v67.41c0,2.5-.98,4.77-2.94,6.58-2.09,2.04-4.54,2.95-7.37,2.95s-5.16-.91-7.12-2.95c-2.09-1.82-3.19-4.09-3.19-6.58v-36.09l-12.77,37.11c-.74,2.5-2.21,4.42-4.42,6.01-2.33,1.7-4.91,2.5-7.74,2.5s-5.4-.79-7.61-2.5c-2.33-1.59-3.81-3.52-4.54-6.01l-13.26-37.11v36.32Z"/>
    <path class="cls-1" d="M1079.07,148.65c0-2.38.98-4.43,2.94-6.36,1.97-1.82,4.18-2.72,6.88-2.61,2.58.11,4.91,1.02,6.88,2.84,1.84,1.81,2.82,3.97,2.7,6.36v71.16c.12,2.5-.86,4.54-2.7,6.35-1.97,1.93-4.3,2.84-7,2.84s-5.03-.91-7-2.84c-1.84-1.81-2.82-3.86-2.7-6.35v-71.38Z"/>
    <g>
      <ellipse class="cls-4" cx="141.06" cy="187.49" rx="40.08" ry="50.21"/>
      <ellipse class="cls-2" cx="141.06" cy="187.01" rx="24.26" ry="30.22"/>
      <ellipse class="cls-5" cx="141.06" cy="173.6" rx="13.71" ry="12.67"/>
      <path class="cls-3" d="M141.06,137.29c-5.32-5.42-10.3-17.49,0-32.63"/>
      <path class="cls-3" d="M123.48,140.67c-5.32-5.42-10.3-17.49,0-32.63"/>
      <path class="cls-3" d="M159.5,142.75c-5.32-5.42-10.3-17.49,0-32.63"/>
      <g>
        <ellipse class="cls-4" cx="269.89" cy="187.49" rx="40.08" ry="50.21"/>
        <ellipse class="cls-2" cx="269.89" cy="187.01" rx="24.26" ry="30.22"/>
        <ellipse class="cls-5" cx="269.89" cy="173.6" rx="13.71" ry="12.67"/>
        <path class="cls-3" d="M269.89,137.29c-5.32-5.42-10.3-17.49,0-32.63"/>
        <path class="cls-3" d="M252.3,140.67c-5.32-5.42-10.3-17.49,0-32.63"/>
        <path class="cls-3" d="M288.32,142.75c-5.32-5.42-10.3-17.49,0-32.63"/>
      </g>
    </g>
  </g>
</svg>