<?xml version="1.0" encoding="UTF-8"?>
<svg id="_レイヤー_1" data-name="レイヤー 1" xmlns="http://www.w3.org/2000/svg" xmlns:xlink="http://www.w3.org/1999/xlink" viewBox="0 0 1080 1080">
  <defs>
    <style>
      .cls-1 {
        fill: #006a97;
      }

      .cls-1, .cls-2, .cls-3, .cls-4, .cls-5, .cls-6, .cls-7, .cls-8, .cls-9, .cls-10 {
        stroke: #000;
        stroke-linecap: round;
        stroke-linejoin: round;
      }

      .cls-1, .cls-4, .cls-5, .cls-6, .cls-7, .cls-8, .cls-9, .cls-10 {
        stroke-width: 3px;
      }

      .cls-2, .cls-11, .cls-6 {
        fill: none;
      }

      .cls-2, .cls-3 {
        stroke-width: 5px;
      }

      .cls-12 {
        fill: url(#_新規パターンスウォッチ_3);
      }

      .cls-3 {
        fill: #f8fbee;
      }

      .cls-13 {
        fill: #e60012;
        font-family: 'AB-kokoro_no3-90ms-RKSJ-H', AB-kokoro_no3;
        font-size: 150px;
        letter-spacing: -.3em;
        stroke: #e60012;
        stroke-width: 12px;
      }

      .cls-13, .cls-14 {
        stroke-miterlimit: 10;
      }

      .cls-5 {
        fill: #de5d37;
      }

      .cls-14 {
        stroke: gray;
        stroke-width: 8px;
      }

      .cls-14, .cls-15 {
        mix-blend-mode: multiply;
      }

      .cls-14, .cls-16 {
        fill: #f6b99f;
      }

      .cls-7 {
        fill: #244198;
      }

      .cls-8 {
        fill: #fed200;
      }

      .cls-17 {
        fill: gray;
      }

      .cls-9 {
        fill: #fef4f4;
      }

      .cls-10 {
        fill: #e6f2fb;
      }
    </style>
    <pattern id="_新規パターンスウォッチ_3" data-name="新規パターンスウォッチ 3" x="0" y="0" width="100" height="100" patternTransform="translate(193.29 -15.03) scale(1.13 1.06)" patternUnits="userSpaceOnUse" viewBox="0 0 100 100">
      <g>
        <rect class="cls-11" y="0" width="100" height="100"/>
        <g class="cls-15">
          <rect class="cls-16" x="2" y="2" width="96" height="96"/>
          <path class="cls-17" d="M96,4H4v92h92V4M100,0v100H0V0h100Z"/>
        </g>
        <line class="cls-14" x1="50" y1="0" x2="50" y2="100"/>
        <line class="cls-14" x1="0" y1="50" x2="100" y2="50"/>
      </g>
    </pattern>
  </defs>
  <rect class="cls-12" x="-2.15" width="1082.15" height="1079.38"/>
  <path class="cls-3" d="M543.11,988.88s-241.84-2.35-252.78-124.94c0,0-6.18-501.32,3.06-553.85s29.86-95.83,40.71-112.37c10.85-16.54.64-21.89-26.12-29.67s-39.4-25.3-35.02-46.21c4.38-20.92,38.41-44.41,72.97-42.81,30.52,1.41,166.95,10.36,190.25,10.36,15.98-.49,169.37-8.41,203.91-10.36s68.59,21.89,72.97,42.81c4.38,20.92-8.27,38.43-35.02,46.21s-36.97,13.13-26.12,29.67c10.85,16.54,31.47,59.83,40.71,112.37,9.24,52.54,3.06,553.85,3.06,553.85-10.95,122.59-252.57,124.94-252.57,124.94"/>
  <path class="cls-2" d="M620.15,934.2c30.1-.77,125.84-25.28,138.86-72"/>
  <path class="cls-2" d="M386.55,122.67c5.05,11.28,73.31,31.01,142.09,31.01s154.43-4.23,160.94-15.51"/>
  <path class="cls-9" d="M444.67,390.05c-15.95-11.79-39.87-15.78-42.53,3.71s21.26,21.26,38.98,11.52l3.54-15.23Z"/>
  <path class="cls-9" d="M676.79,380.18c17.28-6.79,46.07-11.11,46.96,9.88s-51.83,11.69-51.83,11.69l4.87-21.56Z"/>
  <path class="cls-9" d="M638.25,465.09c8.42,19.49,12.4,47.84,12.4,47.84,0,0,38.11-58.92,47.18-106.32,9.08-47.4,36.1-129.35,36.1-129.35,0,0,25.25-15.9,22.34-25.86-2.9-9.95-13.27,1.66-13.27,1.66,0,0,14.1-15.76,7.05-19.08s-14.93,9.12-14.93,9.12c0,0,11.2-15.76,4.56-18.25s-17.83,11.2-17.83,11.2c0,0,8.37-16.59,1.9-15.76s-20.15,26.13-20.15,26.13c0,0,2.48-17.83-6.22-17.01s-2.9,43.13-2.9,43.13l-22.56,65.53-39.65,115.3,5.98,11.7Z"/>
  <path class="cls-9" d="M435.35,541.16c-8.41,17.83-22.92,79.22-22.92,90,0,0-28.2,3.73-25.71,17.42s16.59,4.98,16.59,4.98c0,0-17.01,17.83-7.05,25.3,9.95,7.47,18.25-8.71,18.25-8.71,0,0-8.3,16.59-1.24,19.49,7.05,2.9,13.27-13.27,13.27-13.27,0,0-4.15,14.8,4.98,13.62s34.84-140.54,34.84-140.54l-30.99-8.3Z"/>
  <g>
    <path class="cls-9" d="M473.39,697.94s8.3,107.42,4.56,105.76c0,0-50.76-13.69-51.51,18.25s28.28,20.32,47.36,21.15,29.03-.53,34.42,1.4l-7.05-150.29-27.79,3.73Z"/>
    <g>
      <path class="cls-6" d="M506.36,804.6l-5.18-110.4-27.79,3.73s6.73,87.22,5.33,103.25c9.93,2.08,19.98,3.63,27.63,3.41Z"/>
      <path class="cls-1" d="M478.73,801.19c-.15,1.76-.4,2.68-.77,2.51,0,0-50.76-13.69-51.51,18.25-.75,31.94,28.28,20.32,47.36,21.15,19.08.83,29.03-.53,34.42,1.4l-1.87-39.9c-7.65.21-17.7-1.33-27.63-3.41Z"/>
    </g>
  </g>
  <g>
    <polygon class="cls-6" points="566.11 791.95 589.52 702.91 566.11 791.95 566.11 791.95"/>
    <polygon class="cls-6" points="555.51 698.77 536.8 792.06 536.8 792.06 555.51 698.77"/>
    <rect class="cls-6" x="566.11" y="791.95"/>
    <rect class="cls-6" x="536.8" y="792.06"/>
    <polygon class="cls-6" points="565.75 793.33 566.11 791.95 566.11 791.95 565.75 793.33"/>
    <polygon class="cls-6" points="536.8 792.06 528.55 833.15 536.8 792.06 536.8 792.06"/>
    <path class="cls-6" d="M559.27,792.62s-.04,0-.06,0c.02,0,.04,0,.06,0Z"/>
    <polygon class="cls-6" points="536.8 792.06 536.8 792.06 536.8 792.06 536.8 792.06"/>
    <path class="cls-9" d="M536.8,792.06c7.86.98,15.38,1.06,22.41.57.02,0,.04,0,.06,0,2.33-.17,4.61-.39,6.83-.67,0,0,0,0,0,0l23.41-89.04-34.01-4.15-18.72,93.29s0,0,0,0Z"/>
    <polygon class="cls-6" points="566.11 791.95 566.11 791.95 566.11 791.95 566.11 791.95"/>
    <path class="cls-6" d="M566.11,791.95c-2.22.28-4.5.51-6.83.67,2.33-.17,4.61-.39,6.83-.67Z"/>
    <path class="cls-6" d="M536.8,792.06c7.86.98,15.38,1.06,22.41.57-7.03.49-14.55.42-22.41-.57Z"/>
    <path class="cls-1" d="M595.33,799.55c-14.93-7.47-29.58-6.22-29.58-6.22l.36-1.38s0,0,0,0c-2.22.28-4.5.51-6.83.67-.02,0-.04,0-.06,0-7.03.5-14.55.42-22.41-.57,0,0,0,0,0,0l-8.24,41.09s37.33-3.73,55.16,0,26.54-26.13,11.61-33.6Z"/>
  </g>
  <g>
    <path class="cls-11" d="M433.19,637.22c2.16-.83,4.48-1.65,7-2.45.3-.63.47-.96.47-.96-2.22.99-5.31,2.41-7.46,3.4Z"/>
    <path class="cls-6" d="M430.7,638.37s1.03-.48,2.49-1.16c-.84.32-1.65.64-2.44.96l-.05.2Z"/>
    <path class="cls-7" d="M440.18,634.77c-2.8,5.91-17.15,38.56-11.15,74.94l77.97,5.39,11.61-21.57,5.81,27.79s65.12-9.54,97.88,4.15c0,0,14.1-50.19,3.32-78.8l3.34-.42c-22.15-4.16-80.12-14.63-123.15-17.29-32.27-1.99-51.91,1.47-65.63,5.81Z"/>
    <path class="cls-10" d="M632.27,547.54s16.18-15.35,24.47-32.35l-24.47-73.83-111.15,35.67c-13.69,2.07-80.32,14.1-97.81,70.92l27.72,6.64-20.27,83.58c.79-.32,1.61-.64,2.44-.96,2.15-.99,5.24-2.42,7.46-3.4,0,0-.17.33-.47.96,13.72-4.34,33.36-7.8,65.63-5.81,43.03,2.66,101,13.13,123.15,17.29l3.29-.41s14.52-85.03,0-98.3Z"/>
  </g>
  <g>
    <path class="cls-8" d="M681.67,374.96c-8.85-79.56-82.9-88.84-127.59-88.84s-117.58,17.57-118.72,99.67c23.34-13.88,74.9-35.53,123.59-36.33,44.67-.73,92.66,11.85,122.72,25.5Z"/>
    <path class="cls-9" d="M558.95,349.47c-48.69.8-100.24,22.45-123.59,36.33-.02,1.39-.02,2.79,0,4.21,1.33,85.72,90.81,105.65,124.04,103.88,33.22-1.77,122.26-4.87,123.15-101,.06-6.34-.25-12.3-.88-17.92-30.07-13.64-78.05-26.23-122.72-25.5Z"/>
  </g>
  <path class="cls-6" d="M554.08,286.12c47.84,0,129.35,10.63,128.47,106.76-.89,96.13-89.93,99.23-123.15,101s-122.71-18.16-124.04-103.88,73.09-103.88,118.72-103.88Z"/>
  <path class="cls-6" d="M533.67,419.22c5.25-9.12,10.23-13.69,19.36-13.27s14.1,7.05,14.52,13.27"/>
  <path class="cls-6" d="M580.4,374.59c.41-1.41,6.22-14.16,17.42-7.99,11.2,6.17,4.98,17.37,4.98,17.37"/>
  <path class="cls-6" d="M512.38,380.18c0-1.19-1.66-14.8,7.05-15.25s14.24,9.67,14.24,9.67"/>
  <path class="cls-4" d="M528.19,391.29c-1.65,4.06-.57,8.33,2.4,9.53s6.72-1.11,8.36-5.17c1.75-4.32,1.22-8.07-2.4-9.53-2.97-1.2-6.72,1.11-8.36,5.17Z"/>
  <ellipse class="cls-4" cx="581.24" cy="395.62" rx="5.81" ry="7.93" transform="translate(-105.47 244.66) rotate(-21.84)"/>
  <path class="cls-5" d="M576.04,452.64c0,10.19-5.38,18.46-17.08,18.46s-25.28-8.26-25.28-18.46,5.24-21.81,16.94-21.81,25.43,11.61,25.43,21.81Z"/>
  <text class="cls-13" transform="translate(318.84 628.39)"><tspan x="0" y="0">ＭＩＬＫ</tspan></text>
</svg>