<?xml version="1.0" encoding="UTF-8"?>
<svg xmlns="http://www.w3.org/2000/svg" viewBox="0 0 425.2 212.6">
  <defs>
    <style>
      .cls-1 {
        fill: #fef3ee;
      }

      .cls-2 {
        stroke-width: 3.55px;
      }

      .cls-2, .cls-3, .cls-4, .cls-5, .cls-6 {
        stroke-linecap: round;
      }

      .cls-2, .cls-3, .cls-5, .cls-6 {
        stroke-linejoin: round;
      }

      .cls-2, .cls-4, .cls-5, .cls-6 {
        fill: none;
      }

      .cls-2, .cls-7, .cls-8 {
        stroke: #00a1e9;
      }

      .cls-3, .cls-6 {
        stroke-width: 2.21px;
      }

      .cls-3, .cls-6, .cls-9 {
        stroke: #00a0e9;
      }

      .cls-3, .cls-9 {
        fill: #00a0e9;
      }

      .cls-4, .cls-7, .cls-8, .cls-9, .cls-10 {
        stroke-miterlimit: 10;
      }

      .cls-4, .cls-5 {
        stroke: #231815;
        stroke-width: 3.51px;
      }

      .cls-7 {
        stroke-width: .35px;
      }

      .cls-7, .cls-8 {
        fill: #00a1e9;
      }

      .cls-8 {
        stroke-width: .47px;
      }

      .cls-11 {
        fill: #231815;
      }

      .cls-9 {
        stroke-width: 1.01px;
      }

      .cls-10 {
        fill: #fff;
        stroke: #fff;
        stroke-width: 1px;
      }
    </style>
  </defs>
  <g id="_レイヤー_6" data-name="レイヤー 6">
    <rect class="cls-10" x=".85" y="1.89" width="425.2" height="210.43"/>
  </g>
  <g id="_手" data-name="手">
    <path class="cls-1" d="M149.89,81.78c8.71,14.53,2.77,20.72-4.2,21.36-8.39.77-9.04-10.74-14.11-15.51-3.61-3.41-11.48-7-20.07-1.29-8.75,5.82-7.79,19.04-1.6,25.03,5.57,5.37,11.36,4.2,14.19,5.66,4.67,2.39,6.65,10.23,3.31,13.28-2.11,1.93-4.74,4.8-20.07.11,0,0,1.35,23.5,1.71,29.88l-47.1,5.08-.97-116.95s.18-16.18,16.9-10.62c0,0,.98-11.96,9.72-11.91,8.67.05,10.67,7.14,11.66,13.84.99,6.7,2.1,30.08,2.1,30.08,0,0,11.45-7.12,27.59-3.9,14.02,2.8,20.94,15.87,20.94,15.87Z"/>
    <path class="cls-5" d="M109.05,160.29c-.36-6.38-1.71-29.88-1.71-29.88,15.33,4.69,17.96,1.82,20.07-.11,3.34-3.05,1.36-10.88-3.31-13.28-2.84-1.46-8.62-.29-14.19-5.66-6.2-5.99-7.16-19.21,1.6-25.03,8.59-5.71,16.46-2.12,20.07,1.29,5.07,4.77,5.72,16.28,14.11,15.51,6.97-.64,12.91-6.83,4.2-21.36,0,0-6.92-13.06-20.94-15.87-16.14-3.22-27.59,3.9-27.59,3.9,0,0-1.11-23.39-2.1-30.08-.99-6.7-2.99-13.79-11.66-13.84-8.74-.05-9.72,11.91-9.72,11.91-16.73-5.55-16.9,10.62-16.9,10.62l.97,116.95"/>
    <path class="cls-4" d="M101.64,69.64c-2.9,1.96-9.43,7.04-11.16,16.02"/>
    <path class="cls-5" d="M77.89,37.79c-.4,1.81.94,39.08.94,39.08"/>
  </g>
  <g id="_円" data-name="円">
    <g>
      <rect class="cls-3" x="134.13" y="96.68" width="11.12" height="36.43" transform="translate(316.23 75.6) rotate(128.01)"/>
      <polygon class="cls-6" points="163.9 133.82 157.67 121.89 150.82 130.65 163.9 133.82"/>
      <polygon class="cls-9" points="161.86 132.28 159.99 128.7 157.94 131.33 161.86 132.28"/>
    </g>
    <path class="cls-2" d="M175.18,128.79c-.25.66-.5,1.32-.77,1.98"/>
    <path class="cls-2" d="M151.77,162.73c-14.87,13.07-34.36,20.99-55.71,20.99-46.63,0-84.42-37.8-84.42-84.42S49.43,14.87,96.06,14.87s84.42,37.8,84.42,84.42c0,10.38-1.87,20.31-5.3,29.5"/>
  </g>
  <g id="_くりっぷ" data-name="くりっぷ">
    <g>
      <path class="cls-11" d="M136.11,157.19c-1.14-.77-2.21-1.56-3.2-2.37-1.31.82-2.82,1.23-4.54,1.23-2.37,0-4.35-.75-5.95-2.26-1.89-1.79-2.83-4.19-2.83-7.2,0-2.53.69-4.64,2.06-6.34,1.65-2.04,3.89-3.06,6.73-3.06,2.63,0,4.77.88,6.39,2.65,1.61,1.74,2.42,3.98,2.42,6.73s-.81,4.88-2.44,6.68c1.13.78,2.11,1.41,2.95,1.89l-1.6,2.05ZM128.03,148.48c2.02,1.24,3.55,2.27,4.6,3.1.99-1.19,1.49-2.84,1.49-4.97,0-1.45-.25-2.71-.76-3.79-.39-.83-.92-1.52-1.57-2.06-.97-.8-2.1-1.2-3.4-1.2-1.71,0-3.1.66-4.18,1.99-1.04,1.28-1.55,2.97-1.55,5.06,0,1.81.39,3.33,1.18,4.57,1.09,1.72,2.64,2.57,4.66,2.57.97,0,1.8-.22,2.5-.66-1.64-1.14-3.09-2.08-4.36-2.84l1.4-1.76Z"/>
      <path class="cls-11" d="M148.42,137.62h2.93v15.45h8.25v2.56h-11.18v-18.01Z"/>
      <rect class="cls-11" x="169.26" y="142.52" width="2.93" height="13.11"/>
      <path class="cls-11" d="M182.8,137.62h6.26c1.98,0,3.52.29,4.62.88.61.33,1.14.78,1.57,1.36.69.93,1.03,2.02,1.03,3.25,0,1.56-.43,2.84-1.28,3.85-.67.8-1.58,1.34-2.76,1.64-.91.23-2,.35-3.28.35h-3.27v6.69h-2.91v-18.01ZM185.7,139.93v6.7h2.76c1.63,0,2.76-.22,3.41-.65.83-.55,1.24-1.48,1.24-2.8,0-2.16-1.43-3.25-4.29-3.25h-3.12Z"/>
      <circle class="cls-7" cx="170.72" cy="138.12" r="1.81"/>
    </g>
  </g>
  <g id="_社名" data-name="社名">
    <g>
      <path class="cls-11" d="M275.91,85.72c-1.56-1.05-3.02-2.13-4.38-3.24-1.79,1.12-3.86,1.68-6.21,1.68-3.24,0-5.95-1.03-8.14-3.09-2.58-2.44-3.88-5.73-3.88-9.85,0-3.45.94-6.35,2.82-8.67,2.26-2.79,5.33-4.19,9.21-4.19,3.6,0,6.52,1.21,8.75,3.62,2.21,2.38,3.31,5.45,3.31,9.21s-1.11,6.68-3.34,9.13c1.54,1.07,2.89,1.93,4.04,2.58l-2.18,2.81ZM264.86,73.79c2.76,1.69,4.86,3.11,6.3,4.25,1.36-1.62,2.03-3.89,2.03-6.8,0-1.98-.35-3.71-1.04-5.18-.53-1.14-1.25-2.08-2.15-2.82-1.33-1.1-2.88-1.65-4.65-1.65-2.34,0-4.24.91-5.72,2.72-1.42,1.75-2.12,4.06-2.12,6.92,0,2.48.54,4.56,1.62,6.25,1.49,2.35,3.61,3.52,6.37,3.52,1.33,0,2.47-.3,3.42-.91-2.24-1.55-4.23-2.85-5.97-3.89l1.92-2.41Z"/>
      <path class="cls-11" d="M292.75,58.94h4.01v21.13h11.29v3.5h-15.3v-24.64Z"/>
      <rect class="cls-11" x="321.25" y="65.64" width="4.01" height="17.94"/>
      <path class="cls-11" d="M339.77,58.94h8.57c2.7,0,4.81.4,6.33,1.2.84.45,1.56,1.06,2.15,1.86.94,1.28,1.41,2.76,1.41,4.44,0,2.13-.58,3.89-1.75,5.27-.91,1.09-2.17,1.84-3.77,2.24-1.24.32-2.73.48-4.49.48h-4.47v9.15h-3.98v-24.64ZM343.75,62.1v9.16h3.77c2.23,0,3.78-.3,4.66-.89,1.13-.75,1.69-2.03,1.69-3.83,0-2.96-1.96-4.44-5.87-4.44h-4.26Z"/>
      <circle class="cls-8" cx="323.26" cy="59.62" r="2.48"/>
    </g>
    <g>
      <path class="cls-11" d="M195.46,96.49h7.89c2.49,0,4.43.37,5.82,1.11.77.41,1.44.98,1.98,1.71.87,1.18,1.3,2.54,1.3,4.09,0,1.96-.54,3.58-1.61,4.85-.84,1-2,1.69-3.47,2.06-1.14.29-2.52.44-4.13.44h-4.11v8.42h-3.66v-22.68ZM199.12,99.4v8.44h3.47c2.05,0,3.48-.27,4.29-.82,1.04-.69,1.56-1.87,1.56-3.53,0-2.73-1.8-4.09-5.4-4.09h-3.92Z"/>
      <path class="cls-11" d="M220.41,107.61h.11c1.21-3.62,3.08-5.43,5.59-5.43.73,0,1.43.14,2.11.42l-.94,3.45c-.51-.17-1.03-.26-1.57-.26-1.39,0-2.56.7-3.49,2.11-.62.92-1.05,2.11-1.3,3.55v7.72h-3.64v-16.52h3.45l-.31,4.95Z"/>
      <path class="cls-11" d="M240.33,102.12c2.51,0,4.58.85,6.21,2.56,1.55,1.61,2.32,3.7,2.32,6.25s-.69,4.46-2.08,6.04c-1.62,1.84-3.79,2.76-6.49,2.76s-5-.98-6.62-2.93c-1.29-1.57-1.94-3.53-1.94-5.88,0-3.27,1.22-5.72,3.65-7.36,1.44-.97,3.09-1.45,4.95-1.45ZM240.28,104.93c-1.07,0-2.02.37-2.87,1.11-1.27,1.09-1.9,2.73-1.9,4.89,0,1.02.16,1.94.46,2.76.3.78.73,1.44,1.29,1.96.84.78,1.86,1.18,3.06,1.18,1.59,0,2.84-.67,3.73-2.01.69-1.05,1.04-2.35,1.04-3.9,0-1.8-.46-3.25-1.39-4.36-.91-1.08-2.05-1.63-3.42-1.63Z"/>
      <path class="cls-11" d="M268.06,102.66v12.29c0,2.18-.58,3.85-1.74,5.02-1.22,1.23-3.02,1.85-5.39,1.85-2.97,0-5.4-.7-7.27-2.11l1.57-2.57c1.5,1.19,3.31,1.79,5.44,1.79,2.53,0,3.8-1.18,3.8-3.55v-1.2c-1.08,1.18-2.45,1.76-4.12,1.76-1.85,0-3.44-.59-4.76-1.78-1.48-1.31-2.21-2.99-2.21-5.02,0-1.42.42-2.73,1.24-3.91.79-1.14,1.83-1.97,3.12-2.5.85-.35,1.73-.52,2.64-.52,1.71,0,3.14.6,4.28,1.79l.42-1.34h2.97ZM264.48,107.47c-.82-1.57-2.05-2.35-3.68-2.35-1.19,0-2.12.4-2.79,1.19-.62.73-.93,1.67-.93,2.82s.31,2.06.93,2.78c.67.77,1.59,1.15,2.76,1.15,1.74,0,2.98-.81,3.71-2.43v-3.14Z"/>
      <path class="cls-11" d="M278.26,107.61h.11c1.21-3.62,3.08-5.43,5.59-5.43.73,0,1.43.14,2.11.42l-.94,3.45c-.51-.17-1.03-.26-1.57-.26-1.39,0-2.56.7-3.49,2.11-.62.92-1.05,2.11-1.3,3.55v7.72h-3.64v-16.52h3.45l-.31,4.95Z"/>
      <path class="cls-11" d="M301.21,108.54v-.26c0-2.25-1.07-3.38-3.21-3.38-2,0-3.81.61-5.41,1.82l-1.39-2.53c2.11-1.38,4.42-2.06,6.93-2.06s4.23.7,5.43,2.09c.83.96,1.24,2.37,1.24,4.24v5.77c0,2.13.33,3.78.98,4.95h-3.34c-.39-.76-.65-1.62-.78-2.6h-.1c-.46.91-1.21,1.68-2.24,2.31-.84.51-1.95.77-3.32.77-1.63,0-2.98-.48-4.05-1.44-1.11-1-1.67-2.28-1.67-3.83,0-3.9,3.15-5.85,9.46-5.85h1.46ZM301.21,111.11h-1.09c-2.13,0-3.73.27-4.8.82-.91.46-1.37,1.27-1.37,2.41,0,.77.27,1.37.82,1.82.52.43,1.19.64,2.02.64,1.1,0,2.09-.39,2.97-1.18.97-.86,1.45-1.96,1.45-3.31v-1.2Z"/>
      <path class="cls-11" d="M314.86,102.66v2.91c.3-.83.8-1.53,1.5-2.11.91-.75,1.86-1.12,2.86-1.12,2.35,0,3.91,1.15,4.68,3.45.28-.78.68-1.44,1.2-1.96.99-.99,2.19-1.49,3.58-1.49,1.73,0,3.09.68,4.09,2.04.77,1.05,1.15,2.55,1.15,4.5v10.29h-3.55v-9.91c0-2.65-.85-3.98-2.54-3.98-.81,0-1.56.44-2.24,1.31-.57.74-.95,1.62-1.12,2.64v9.94h-3.58v-9.91c0-2.65-.85-3.98-2.54-3.98-.66,0-1.28.34-1.86,1.01-.69.81-1.18,1.88-1.45,3.2v9.68h-3.55v-16.52h3.39Z"/>
      <path class="cls-11" d="M344.23,102.66v2.91c.3-.83.8-1.53,1.5-2.11.91-.75,1.86-1.12,2.86-1.12,2.35,0,3.91,1.15,4.68,3.45.28-.78.68-1.44,1.2-1.96.99-.99,2.19-1.49,3.58-1.49,1.73,0,3.09.68,4.09,2.04.77,1.05,1.15,2.55,1.15,4.5v10.29h-3.55v-9.91c0-2.65-.85-3.98-2.54-3.98-.81,0-1.56.44-2.24,1.31-.57.74-.95,1.62-1.12,2.64v9.94h-3.58v-9.91c0-2.65-.85-3.98-2.54-3.98-.66,0-1.28.34-1.86,1.01-.69.81-1.18,1.88-1.45,3.2v9.68h-3.55v-16.52h3.39Z"/>
      <path class="cls-11" d="M370.2,95.55h4.03v3.75h-4.03v-3.75ZM370.36,102.66h3.69v16.52h-3.69v-16.52Z"/>
      <path class="cls-11" d="M383.75,102.66v2.86c1.53-2.11,3.45-3.17,5.74-3.17,1.61,0,2.95.46,4.02,1.39,1.2,1.05,1.8,2.76,1.8,5.14v10.29h-3.69v-9.83c0-1.29-.24-2.29-.72-2.98-.46-.67-1.25-1-2.35-1s-2.16.47-3.08,1.42c-.67.69-1.19,1.59-1.56,2.68v9.71h-3.69v-16.52h3.53Z"/>
      <path class="cls-11" d="M416.08,102.66v12.29c0,2.18-.58,3.85-1.74,5.02-1.22,1.23-3.02,1.85-5.39,1.85-2.97,0-5.4-.7-7.27-2.11l1.57-2.57c1.5,1.19,3.31,1.79,5.44,1.79,2.53,0,3.8-1.18,3.8-3.55v-1.2c-1.08,1.18-2.45,1.76-4.12,1.76-1.85,0-3.44-.59-4.76-1.78-1.48-1.31-2.21-2.99-2.21-5.02,0-1.42.42-2.73,1.24-3.91.79-1.14,1.83-1.97,3.12-2.5.85-.35,1.73-.52,2.64-.52,1.71,0,3.14.6,4.28,1.79l.42-1.34h2.97ZM412.5,107.47c-.82-1.57-2.05-2.35-3.68-2.35-1.19,0-2.12.4-2.79,1.19-.62.73-.93,1.67-.93,2.82s.31,2.06.93,2.78c.67.77,1.59,1.15,2.76,1.15,1.74,0,2.98-.81,3.71-2.43v-3.14Z"/>
    </g>
    <g>
      <path class="cls-11" d="M249.3,151.88c1.88,2.11,4.2,3.17,6.97,3.17,1.26,0,2.26-.25,3.02-.75.89-.61,1.34-1.46,1.34-2.54,0-.98-.39-1.79-1.16-2.41-.51-.41-1.74-1-3.69-1.76l-.52-.21-.93-.37c-.06-.03-.18-.07-.34-.14-2-.76-3.3-1.38-3.9-1.87-.09-.08-.21-.2-.34-.34-.98-1.05-1.46-2.31-1.46-3.79,0-1.91.68-3.44,2.05-4.61,1.43-1.22,3.36-1.83,5.8-1.83,1.7,0,3.21.25,4.54.75,1.06.41,2.11,1.04,3.16,1.89l-1.89,2.62c-1.61-1.53-3.54-2.3-5.78-2.3-1.47,0-2.53.34-3.2,1.03-.57.58-.85,1.29-.85,2.12,0,.95.41,1.7,1.23,2.27.52.36,1.62.85,3.31,1.45l1.09.4c2.41.87,4.06,1.71,4.95,2.54,1.24,1.16,1.86,2.61,1.86,4.36,0,2.17-.85,3.86-2.56,5.07-1.4.99-3.32,1.49-5.74,1.49-3.77,0-6.79-1.28-9.06-3.84l2.11-2.41Z"/>
      <path class="cls-11" d="M284.93,155.08c-1.83,2.07-4.29,3.1-7.37,3.1s-5.36-1.05-6.89-3.16c-1.08-1.49-1.61-3.33-1.61-5.54,0-2.32.64-4.3,1.93-5.93,1.59-1.99,3.71-2.98,6.36-2.98s5.02.83,6.89,2.49l-1.79,2.53c-1.44-1.4-3.03-2.11-4.77-2.11-1.59,0-2.83.63-3.72,1.9-.75,1.08-1.12,2.43-1.12,4.06s.39,3.04,1.16,4.06c.88,1.14,2.15,1.71,3.79,1.71,1.99,0,3.62-.82,4.91-2.46l2.24,2.32Z"/>
      <path class="cls-11" d="M289.67,133.68h3.69v10.23c1.37-2.08,3.23-3.12,5.58-3.12,2.01,0,3.55.67,4.62,2.02.8,1.01,1.2,2.51,1.2,4.5v10.31h-3.69v-9.83c0-1.33-.23-2.31-.68-2.93-.51-.7-1.32-1.05-2.43-1.05s-2.11.47-3.04,1.42c-.67.68-1.19,1.57-1.56,2.67v9.72h-3.69v-23.94Z"/>
      <path class="cls-11" d="M319.42,140.57c2.51,0,4.58.85,6.21,2.56,1.55,1.61,2.32,3.7,2.32,6.25s-.69,4.46-2.08,6.04c-1.62,1.84-3.79,2.76-6.49,2.76s-5-.98-6.62-2.93c-1.29-1.57-1.94-3.53-1.94-5.88,0-3.27,1.22-5.72,3.65-7.36,1.44-.97,3.09-1.45,4.95-1.45ZM319.36,143.37c-1.07,0-2.02.37-2.87,1.11-1.27,1.09-1.9,2.73-1.9,4.89,0,1.02.16,1.94.46,2.76.3.78.73,1.44,1.29,1.96.84.78,1.86,1.18,3.06,1.18,1.59,0,2.84-.67,3.73-2.01.69-1.05,1.04-2.35,1.04-3.9,0-1.8-.46-3.25-1.39-4.36-.91-1.08-2.05-1.63-3.42-1.63Z"/>
      <path class="cls-11" d="M341.53,140.57c2.51,0,4.58.85,6.21,2.56,1.55,1.61,2.32,3.7,2.32,6.25s-.69,4.46-2.08,6.04c-1.62,1.84-3.79,2.76-6.49,2.76s-5-.98-6.62-2.93c-1.29-1.57-1.94-3.53-1.94-5.88,0-3.27,1.22-5.72,3.65-7.36,1.44-.97,3.09-1.45,4.95-1.45ZM341.47,143.37c-1.07,0-2.02.37-2.87,1.11-1.27,1.09-1.9,2.73-1.9,4.89,0,1.02.16,1.94.46,2.76.3.78.73,1.44,1.29,1.96.84.78,1.86,1.18,3.06,1.18,1.59,0,2.84-.67,3.73-2.01.69-1.05,1.04-2.35,1.04-3.9,0-1.8-.46-3.25-1.39-4.36-.91-1.08-2.05-1.63-3.42-1.63Z"/>
      <path class="cls-11" d="M357.74,133.68h3.69v20.44c0,.43.21.64.64.64h2.27l-.4,2.86h-3.1c-.72,0-1.32-.13-1.79-.4-.88-.47-1.31-1.32-1.31-2.54v-21Z"/>
    </g>
  </g>
</svg>