<?xml version="1.0" encoding="UTF-8"?>
<svg id="_レイヤー_1" data-name="レイヤー 1" xmlns="http://www.w3.org/2000/svg" viewBox="0 0 1080 1080">
  <defs>
    <style>
      .cls-1, .cls-2, .cls-3, .cls-4, .cls-5, .cls-6, .cls-7, .cls-8, .cls-9, .cls-10, .cls-11 {
        stroke: #231815;
      }

      .cls-1, .cls-2, .cls-3, .cls-4, .cls-6, .cls-7, .cls-8, .cls-9, .cls-11 {
        stroke-linecap: round;
      }

      .cls-1, .cls-2, .cls-4, .cls-8, .cls-9, .cls-11 {
        stroke-linejoin: round;
      }

      .cls-1, .cls-10 {
        fill: #231815;
      }

      .cls-2, .cls-3, .cls-5, .cls-7, .cls-9 {
        fill: none;
      }

      .cls-2, .cls-7 {
        stroke-width: 2px;
      }

      .cls-12 {
        fill: #fff9bb;
      }

      .cls-3, .cls-4, .cls-5, .cls-8, .cls-9 {
        stroke-width: 3px;
      }

      .cls-3, .cls-5, .cls-6, .cls-7, .cls-10 {
        stroke-miterlimit: 10;
      }

      .cls-4 {
        fill: #f6cade;
      }

      .cls-13 {
        fill: #008441;
      }

      .cls-14 {
        fill: #009943;
      }

      .cls-6 {
        fill: #d09500;
      }

      .cls-15 {
        fill: #ea5c36;
      }

      .cls-8 {
        fill: #ffe46b;
      }

      .cls-16 {
        fill: #a8754a;
      }

      .cls-11 {
        fill: #f29518;
        stroke-width: 4px;
      }
    </style>
  </defs>
  <rect class="cls-15" y="-1.92" width="1081.23" height="1081.92"/>
  <path class="cls-6" d="M202.3,526.51l-66.76-153.91s-3.22-14.99,10.86-8.55l59.82,156.44-3.92,6.02Z"/>
  <path class="cls-6" d="M296.24,416.7l-51.91-125.87s.64-16.5,13.51-9.66l43.85,130.82-5.46,4.7Z"/>
  <path class="cls-6" d="M144.69,366.09c-.62,1.24-2.86,3.17-5.64,3.56"/>
  <path class="cls-6" d="M256.37,284.63c-1,1.62-3.56,4.33-6.65,4.56"/>
  <g>
    <path class="cls-9" d="M714.34,367.23c46.04-8.66,112.93,11.02,107.02,83.02-5.9,72.01-38.56,84.2-78.69,84.2s-112.14-18.49-102.7-89.71c9.44-71.22,74.37-77.51,74.37-77.51Z"/>
    <path class="cls-2" d="M819.88,424.8c11.42-3.6,31.77-7.94,36.85-7.94"/>
    <path class="cls-8" d="M714.91,375.78c-9.05-20.46-20.07-39.74,11.8-44.86,31.87-5.12,48.4,7.87,29.51,41.31-18.89,33.45-41.31,3.54-41.31,3.54Z"/>
    <path class="cls-8" d="M789.67,410.41c26.36-29.9,62.96-50.76,75.15-12.59,12.2,38.17,4.33,55.09-17.31,55.87-21.64.79-49.18-22.43-49.18-22.43l-8.66-20.85Z"/>
    <g>
      <path class="cls-9" d="M707.99,428.55s.01-.04.01-.04c0,0,0,.03-.01.04Z"/>
      <path class="cls-9" d="M766.71,426.57c.01-.14.03-.27.04-.42,0,0-.02.16-.04.42Z"/>
      <path class="cls-16" d="M688.72,437.16c16.33,1.9,19.09-7.92,19.27-8.62,0-.01.01-.04.01-.04,0,0,0,.02-.01.04-.22.87-7.53,31.05,14.96,31.44,22.82.39,20.46-17.31,20.46-17.31,0,0,20.89,15.97,23.29-16.11.02-.26.04-.42.04-.42-.01.15-.03.28-.04.42-.22,2.88-.75,19.91,17.63,18.47,9.48-.74,23.87-14.13,36.42-28.04-13.85-44.78-65.95-56.89-103.88-49.76,0,0-18.29,1.77-36.87,14.09-2.84,25.63-4.45,54.31,8.72,55.84Z"/>
      <path class="cls-12" d="M784.33,445.03c-18.38,1.44-17.85-15.59-17.63-18.47-2.4,32.08-23.29,16.11-23.29,16.11,0,0,2.36,17.71-20.46,17.31-22.49-.39-15.18-30.57-14.96-31.44-.17.69-2.94,10.51-19.27,8.62-13.16-1.53-11.56-30.21-8.72-55.84-16.42,10.89-33.07,30.01-37.5,63.42-9.44,71.22,62.56,89.71,102.7,89.71s72.79-12.2,78.69-84.2c1.04-12.67-.18-23.71-3.14-33.27-12.55,13.92-26.94,27.3-36.42,28.04Z"/>
    </g>
    <path class="cls-9" d="M714.34,367.23c46.04-8.66,112.93,11.02,107.02,83.02-5.9,72.01-38.56,84.2-78.69,84.2s-112.14-18.49-102.7-89.71c9.44-71.22,74.37-77.51,74.37-77.51Z"/>
    <path class="cls-4" d="M683.32,448.15c7.9.46,23.74,0,23.74,12.86s-9.65,15.09-19.78,14.84c-10.14-.25-20.03-3.46-20.28-12.12-.25-8.66,5.67-16.21,16.32-15.58Z"/>
    <path class="cls-1" d="M695.4,425.15c3.45,0,5.37,3.24,4.14,6.6-1.23,3.35-3.69,4.47-5.93,3.8s-4.81-3.69-3.24-6.37,3.8-4.03,5.03-4.03Z"/>
    <path class="cls-1" d="M680.17,418.7c2.41,1,5.61,2.93,3.95,6.96s-4.27,5.6-7.04,4.78-5.22-4.07-3.48-7.47,4.61-5.08,6.56-4.27Z"/>
    <path class="cls-2" d="M678.38,403.26c4.08-2.47,12.86-3.46,11.01,6.06"/>
    <path class="cls-2" d="M706.07,419.83c3.71-3.22,13.85-10.76,11.62,6.68"/>
    <path class="cls-2" d="M724.95,365.86s-3.6-13.28-3.23-18.74"/>
    <path class="cls-2" d="M734.84,365.33c-1.33-6.42-2.44-19.94-1.57-23.29"/>
    <path class="cls-2" d="M745.55,365.86c-.62-8.44-.87-20.47,0-22.34"/>
    <path class="cls-2" d="M813.92,404.57c5.96-2.85,26.18-10.18,33.25-10.05"/>
    <path class="cls-2" d="M818.27,414.62c3.23-1.12,24.07-8.44,31.27-8.31"/>
    <rect class="cls-14" x="700.79" y="377.32" width="4.86" height="4.86" transform="translate(401.8 -360.43) rotate(39.47)"/>
    <rect class="cls-14" x="723.63" y="389.39" width="4.86" height="4.86" transform="translate(414.68 -372.2) rotate(39.47)"/>
    <rect class="cls-14" x="738.45" y="378.27" width="4.86" height="4.86" transform="translate(1047.48 -393.79) rotate(84.4)"/>
    <rect class="cls-13" x="772.56" y="380.93" width="4.86" height="4.86" transform="translate(1538.38 -22.6) rotate(125.68)"/>
    <rect class="cls-13" x="762.57" y="391.14" width="4.86" height="4.86" rx=".02" ry=".02" transform="translate(931.82 -450.41) rotate(73.96)"/>
    <rect class="cls-14" x="757.56" y="410.8" width="4.86" height="4.86" transform="translate(-102.88 351.53) rotate(-24.44)"/>
    <rect class="cls-13" x="715.01" y="374.43" width="4.86" height="4.86" transform="translate(-91.64 330.66) rotate(-24.44)"/>
    <rect class="cls-14" x="705.39" y="393.58" width="4.86" height="4.86" transform="translate(77.73 -114.7) rotate(9.8)"/>
    <rect class="cls-14" x="742.84" y="400.05" width="4.86" height="4.86" transform="translate(79.38 -120.98) rotate(9.8)"/>
    <rect class="cls-13" x="752.18" y="384.32" width="4.86" height="4.86" transform="translate(1508.88 -.68) rotate(125.68)"/>
    <rect class="cls-13" x="737.72" y="416.07" width="4.86" height="4.86" transform="translate(1511.77 61.34) rotate(125.68)"/>
    <rect class="cls-14" x="774.8" y="398.94" width="4.86" height="4.86" transform="translate(432.42 -402.55) rotate(39.47)"/>
  </g>
  <g>
    <path class="cls-8" d="M616.72,442.75c15.47-11.21,42.92-40.21,58-2.32,15.08,37.89-20.11,49.88-32.48,45.63-12.37-4.25-27.07-28.91-27.07-28.91l1.55-14.4Z"/>
    <path class="cls-8" d="M540.54,388.91c-3.48-13.82-13.53-47.46,32.48-46.3s28.23,45.51,10.05,56.78c-18.17,11.27-42.53-10.48-42.53-10.48Z"/>
    <path class="cls-16" d="M509.03,444.3s-5.99,40.02,15.85,41.57c21.85,1.55,34.99-24.75,35.77-33.45,0,0,6.29,9.52,14.84,6.21,8.55-3.31,15.32-16.84,16.67-24.96,0,0,1.33,10.63,10.04,10.44,4.93-.11,11.89-14.45,17.01-26.88-16.8-25.46-48.7-41.71-79.45-38.43-23.9,2.55-43.65,13.2-57.72,28.47-2.21,19.97-1.37,43.39,26.98,37.03Z"/>
    <path class="cls-2" d="M512.59,416.28c-4.91-8.6-10.84-2.38-13.08,2.31,2.24-4.7,8.16-10.91,13.08-2.31Z"/>
    <path class="cls-12" d="M619.22,417.22c-5.12,12.43-12.08,26.77-17.01,26.88-8.71.19-10.04-10.44-10.04-10.44-1.35,8.12-8.12,21.65-16.67,24.96-8.55,3.31-14.84-6.21-14.84-6.21-.77,8.7-13.92,34.99-35.77,33.45-21.85-1.55-15.85-41.57-15.85-41.57-28.35,6.36-29.19-17.05-26.98-37.03-12.79,13.89-20.88,31.6-23.09,50.56-4.64,39.83,20.88,81.2,56.45,86.61,35.57,5.41,93.57-10.44,112.13-66.12,7.49-22.46,3.03-43.88-8.32-61.1Z"/>
    <path class="cls-2" d="M559.71,378.38s-.69-10.33-.55-17.49"/>
    <path class="cls-2" d="M566.87,379.89s-.83-14.18.83-19"/>
    <path class="cls-2" d="M575.49,383.32s1.97-19.26,6.24-22.43"/>
    <path class="cls-2" d="M629.95,442.98c4.23-1.15,26.26-6.66,29.29-6.79"/>
    <path class="cls-2" d="M631.24,450.64s14.23-2.62,18.22-2.62"/>
    <path class="cls-2" d="M631.18,458.63c.66,0,12.36-3.03,27.5-1.52"/>
    <path class="cls-9" d="M539.77,378.8c51.53-5.5,106.33,43.85,87.77,99.52-18.56,55.68-76.56,71.53-112.13,66.12-35.57-5.41-61.09-46.78-56.45-86.61,4.64-39.83,35.19-74.16,80.81-79.03Z"/>
    <path class="cls-1" d="M526.18,432c3.09.67,3.78,4.19,2.66,6.32s-2.19,4.55-5.02,3.96-3.25-4.13-2.36-6.56c.89-2.42,2.01-4.31,4.72-3.72Z"/>
    <path class="cls-1" d="M506,431.42c2.38-.41,5.02.82,5.02,4.66s-.35,5.96-3.48,6.26-5.2-1.89-5.08-4.72c.12-2.83.06-5.59,3.54-6.19Z"/>
    <path class="cls-2" d="M524.88,422.93c5.13-4.48,12.43-8.6,16.18,2.02"/>
    <path class="cls-4" d="M506.06,455.38c13.9-.4,22.66-.52,23.29,10.18s-9.68,13.66-20.12,14.44c-10.44.77-24.75-1.8-24.23-10.44.52-8.64,3.07-13.66,21.06-14.18Z"/>
    <rect class="cls-14" x="524.63" y="389.94" width="5.07" height="5.07" transform="translate(369.73 -245.61) rotate(39.47)"/>
    <rect class="cls-14" x="548.43" y="402.52" width="5.07" height="5.07" transform="translate(383.16 -257.87) rotate(39.47)"/>
    <rect class="cls-14" x="565.42" y="397.77" width="5.07" height="5.07" transform="translate(910.93 -204) rotate(84.4)"/>
    <rect class="cls-13" x="568.96" y="412.99" width="5.07" height="5.07" transform="translate(1242.34 193.63) rotate(125.68)"/>
    <rect class="cls-13" x="585.89" y="410.79" width="5.07" height="5.07" rx=".02" ry=".02" transform="translate(823.03 -266.42) rotate(73.96)"/>
    <rect class="cls-14" x="583.8" y="424.84" width="5.07" height="5.07" transform="translate(-124.29 280.93) rotate(-24.44)"/>
    <rect class="cls-13" x="539.45" y="386.92" width="5.07" height="5.07" transform="translate(-112.58 259.18) rotate(-24.44)"/>
    <rect class="cls-14" x="529.42" y="406.89" width="5.07" height="5.07" transform="translate(77.45 -84.57) rotate(9.8)"/>
    <rect class="cls-14" x="554.87" y="414.16" width="5.07" height="5.07" transform="translate(-122.47 268.01) rotate(-24.44)"/>
    <rect class="cls-13" x="508.48" y="397.77" width="5.07" height="5.07" transform="translate(1134.22 218.65) rotate(125.68)"/>
  </g>
  <g>
    <path class="cls-8" d="M336.59,398.87c-4.16-4.85-30.51-41.37,15.91-48.86,46.42-7.49,34.82,32.01,27.7,44.74-7.11,12.73-43.61,4.12-43.61,4.12Z"/>
    <path class="cls-8" d="M416.29,426.44c14.08-12.68,50.41-43.14,68.08-2.29s-34.37,48.96-53.03,42.79c-18.66-6.16-15.06-40.5-15.06-40.5Z"/>
    <path class="cls-2" d="M351,390.43c-1.62-2.61-6.96-18.65-7.09-23"/>
    <path class="cls-2" d="M358.57,390.49c-.98-5.28-2.1-17.72-1.6-23.81"/>
    <path class="cls-2" d="M366.42,391.18c-.12-5.22-.99-17.91,0-22.88"/>
    <path class="cls-2" d="M437.41,434.49s18.71-10.68,23.87-12.27"/>
    <path class="cls-2" d="M439.36,438.82s19.85-7.42,29.36-9.52"/>
    <path class="cls-2" d="M442.13,444.28c5.27-1.6,33.48-8.98,37.6-9.38"/>
    <g>
      <path class="cls-16" d="M292.96,456.54s-1.02,32.1,23.36,32.35c24.38.25,29.71-15.99,29.71-15.99,0,0,0,13.25,16.51,13.86,16.51.61,14.73-15.64,14.73-15.64,0,0,.76,6.09,9.65,5.08s13.21-5.59,14.73-15.24c0,0,2.54,4.57,12.95,3.3,5.34-.65,13.76-18.89,20.69-36.49-13.97-26.32-44.41-40.91-86.97-36.59-22.39,2.27-50,12.75-66.88,33.1-1.32,18.27-1.21,35.91,11.52,32.26Z"/>
      <path class="cls-12" d="M414.6,464.26c-10.41,1.27-12.95-3.3-12.95-3.3-1.52,9.65-5.84,14.22-14.73,15.24s-9.65-5.08-9.65-5.08c0,0,1.78,16.25-14.73,15.64-16.51-.61-16.51-13.86-16.51-13.86,0,0-5.33,16.25-29.71,15.99-24.38-.25-23.36-32.35-23.36-32.35-12.73,3.64-12.85-14-11.52-32.26-9.92,11.96-16.15,27.33-15.39,46.47,2.03,51.69,38.09,90.01,94.46,85.44,56.37-4.57,81.26-36.57,83.29-87.39.62-15.55-2.35-29.42-8.51-41.02-6.93,17.6-15.35,35.84-20.69,36.49Z"/>
    </g>
    <path class="cls-9" d="M348.32,391.18c61.31-6.23,97.51,26.79,95.48,77.61s-26.92,82.82-83.29,87.39c-56.37,4.57-92.43-33.75-94.46-85.44s46.72-75.96,82.28-79.57Z"/>
    <path class="cls-1" d="M305.29,446.6c2.78-1.39,5.75-.35,6.95,2.68s-.66,5.64-3.39,6.91-5.61-.57-6.54-2.23-1.36-5.18,2.98-7.36Z"/>
    <path class="cls-1" d="M323.37,447.15c2.63-1.28,5.56-.09,6.86,3.02s-.39,5.68-2.98,6.83-5.46-.83-6.44-2.55-1.55-5.3,2.56-7.31Z"/>
    <path class="cls-2" d="M293.93,431.58c2.4-5.01,9.48-10.36,12.54-1.31"/>
    <path class="cls-2" d="M321.18,431.58c4.03-3.82,13.08-9.05,18.31,5.45"/>
    <path class="cls-4" d="M316.71,464.83c10.88.65,15.59,6.54,15.15,12.54-.44,6-2.83,16.9-18.64,15.37-15.81-1.53-18.31-10.38-16.46-16.96,1.85-6.58,7.19-11.71,19.95-10.95Z"/>
    <rect class="cls-14" x="327.03" y="401.71" width="4.99" height="4.99" rx="1.66" ry="1.66" transform="translate(332.11 -117.3) rotate(39.47)"/>
    <rect class="cls-14" x="350.48" y="414.1" width="4.99" height="4.99" rx="1.66" ry="1.66" transform="translate(345.34 -129.38) rotate(39.47)"/>
    <rect class="cls-14" x="365.7" y="402.68" width="4.99" height="4.99" rx="1.66" ry="1.66" transform="translate(735.52 -.8) rotate(84.4)"/>
    <rect class="cls-13" x="370.7" y="424.42" width="4.99" height="4.99" rx="1.66" ry="1.66" transform="translate(937.64 372.74) rotate(125.68)"/>
    <rect class="cls-13" x="390.47" y="415.9" width="4.99" height="4.99" rx="1.67" ry="1.67" transform="translate(686.46 -74.89) rotate(73.96)"/>
    <rect class="cls-14" x="385.32" y="436.08" width="4.99" height="4.99" rx="1.66" ry="1.66" transform="translate(-146.72 199.79) rotate(-24.44)"/>
    <rect class="cls-13" x="341.63" y="398.73" width="4.99" height="4.99" rx="1.66" ry="1.66" transform="translate(-135.18 178.36) rotate(-24.44)"/>
    <rect class="cls-14" x="331.75" y="418.41" width="4.99" height="4.99" rx="1.66" ry="1.66" transform="translate(76.52 -50.75) rotate(9.8)"/>
  </g>
  <g>
    <path class="cls-8" d="M876,522.51c9.07-11.66,52.66-54.39,62.16,0,9.5,54.39-41.87,42.3-41.87,42.3l-20.29-6.91v-35.4Z"/>
    <path class="cls-8" d="M770.48,452.07s-20.96-57.16,27.43-60.58c48.39-3.43,46.49,22.86,41.91,36.2-4.57,13.34-20.96,28.58-20.96,28.58l-48.39-4.19Z"/>
    <path class="cls-2" d="M882.84,528.66s28.56-11.74,31.43-12.33"/>
    <path class="cls-2" d="M883.69,537.21s27.21-4.85,32.66-4.75"/>
    <path class="cls-2" d="M883.69,547.8c9.6.2,29.19-2.87,32.66-3.96"/>
    <path class="cls-2" d="M789.38,435.47s-2.28-22.56-2.28-24.25"/>
    <line class="cls-2" x1="801.26" y1="436.6" x2="802.05" y2="410.53"/>
    <line class="cls-2" x1="815.11" y1="440.03" x2="818.18" y2="411.23"/>
    <g>
      <path class="cls-16" d="M736.71,514.92s-.67,44.42,18.46,48.97c19.13,4.55,34.38-12.84,34.38-12.84,0,0-1.74,15.65,12.44,12.98,14.18-2.68,29.17-26.89,32.78-46.02,0,0,1.07,12.58,18.06,11.37,10.16-.72,18.9-17.43,24.28-30.74-14.13-40.62-52.51-62.67-92.64-62.02,0,0-38.22-1.43-67.13,43.22-.14,19.12,2.76,40.8,19.36,35.08Z"/>
      <path class="cls-12" d="M852.84,529.37c-16.99,1.2-18.06-11.37-18.06-11.37-3.61,19.13-18.6,43.35-32.78,46.02-14.18,2.68-12.44-12.98-12.44-12.98,0,0-15.25,17.39-34.38,12.84-19.13-4.55-18.46-48.97-18.46-48.97-16.6,5.71-19.5-15.97-19.36-35.08-9.83,15.18-18.58,35.69-24.39,63.4-22.88,109.21,71.23,100.15,109.21,95.4,37.99-4.75,75.11-25.9,80.29-94.97,1.26-16.87-.78-31.91-5.35-45.04-5.38,13.31-14.12,30.02-24.28,30.74Z"/>
    </g>
    <path class="cls-5" d="M784.48,436.61c53.1-.86,103.17,37.99,97.99,107.05-5.18,69.07-42.3,90.22-80.29,94.97-37.99,4.75-132.09,13.81-109.21-95.4,22.88-109.21,91.51-106.62,91.51-106.62Z"/>
    <path class="cls-10" d="M778.73,519.51c2.71,1.78,4.52,4.79,2.17,8.68-2.35,3.89-5.61,7.14-9.86,4.34-4.25-2.8-4.16-7.6-2.08-9.77,2.08-2.17,6.87-5.15,9.77-3.26Z"/>
    <path class="cls-10" d="M754.04,510.75c2.84,1.46,4.25,8.21.54,12.1-3.71,3.89-7.23,2.89-9.68,1.63s-2.53-6.15,0-9.95c2.53-3.8,6.87-4.94,9.13-3.78Z"/>
    <path class="cls-2" d="M745.18,499.07c1.99-2.71,15.28-6.48,18.72,1.55"/>
    <path class="cls-2" d="M784.06,509.11c2.8-.9,17.54-6.33,19.08,11.58"/>
    <path class="cls-4" d="M744.34,540.86c8.23,1.08,20.36,10,17.41,22.37-2.95,12.37-21.73,9.93-21.73,9.93,0,0-20.14-1.15-17.77-15.76s13.31-17.7,22.09-16.55Z"/>
    <rect class="cls-14" x="807.47" y="496.93" width="5.66" height="5.66" transform="translate(502.5 -401.13) rotate(39.47)"/>
    <rect class="cls-14" x="788.26" y="471.24" width="5.66" height="5.66" transform="translate(481.79 -394.78) rotate(39.47)"/>
    <rect class="cls-14" x="808.2" y="451.62" width="5.66" height="5.66" transform="translate(1733.35 337.78) rotate(143.53)"/>
    <rect class="cls-13" x="812.15" y="472.78" width="5.66" height="5.66" transform="translate(1676.62 90.97) rotate(125.68)"/>
    <rect class="cls-13" x="830.6" y="469.29" width="5.66" height="5.66" rx=".02" ry=".02" transform="translate(1056.82 -459.33) rotate(73.96)"/>
    <rect class="cls-13" x="775.25" y="449.84" width="5.66" height="5.66" transform="translate(-117.57 362.55) rotate(-24.44)"/>
    <rect class="cls-14" x="764.05" y="472.13" width="5.66" height="5.66" transform="translate(92.03 -123.6) rotate(9.8)"/>
  </g>
  <g>
    <path class="cls-8" d="M698.23,554.44c0-2.24,26.38-33.3,40.89-18.3,14.51,15,16.09,59.32,4.48,63.28-11.61,3.96-51.44-11.34-51.44-11.34l6.07-33.64Z"/>
    <path class="cls-8" d="M604.85,485.19c-4.62-10.09-21.9-35.09-7.12-40.63,14.77-5.54,47.75-13.19,49.07-1.85,1.32,11.34-10.02,39.04-10.02,39.04l-31.92,3.43Z"/>
    <path class="cls-7" d="M713.27,561s11.87-3.79,14.64-4.19"/>
    <line class="cls-7" x1="713.27" y1="570.66" x2="728.83" y2="570.66"/>
    <line class="cls-7" x1="712.12" y1="580.69" x2="726.99" y2="584.43"/>
    <line class="cls-7" x1="611.71" y1="473.79" x2="606.33" y2="453.63"/>
    <line class="cls-7" x1="620.96" y1="473.59" x2="619.38" y2="453.63"/>
    <line class="cls-7" x1="629.82" y1="474.32" x2="632.12" y2="450.93"/>
    <g>
      <path class="cls-5" d="M589.1,568.69c.33-1.01.55-1.92.69-2.62,0,0-.3,1-.69,2.62Z"/>
      <path class="cls-16" d="M544.37,547.97c1.54,7.66,8.47,19.27,24.25,8.85,0,0-7.31,19.59,5,21.52,10.1,1.58,13.98-5.05,15.48-9.64.38-1.63.69-2.62.69-2.62-.14.7-.36,1.62-.69,2.62-1.83,7.77-5.52,30.26,12.62,31.38,21.94,1.35,27.71-4.75,32.71-29.41,0,0,1.07,14.6,12.47,15.37,11.39.77,17.17-7.24,18.32-9.59,0,0,2.36,12.52,17.32,13.05,8.46.3,19.18-20.61,26.91-38.85-8.65-33.22-38.82-80.51-97.74-76.85-26.68,1.66-47.76,12.19-62.9,28.13-3.9,19.11-5.58,40.35-4.44,46.05Z"/>
      <path class="cls-12" d="M682.54,589.49c-14.96-.53-17.32-13.05-17.32-13.05-1.15,2.34-6.93,10.36-18.32,9.59-11.39-.77-12.47-15.37-12.47-15.37-5,24.66-10.78,30.76-32.71,29.41-18.14-1.12-14.44-23.61-12.62-31.38-1.5,4.59-5.38,11.22-15.48,9.64-12.32-1.92-5-21.52-5-21.52-15.78,10.43-22.71-1.19-24.25-8.85-1.14-5.69.54-26.94,4.44-46.05-18.08,19.04-27.68,45.82-28.11,74.52-.79,52.73,41.42,85.23,103.15,84.71,61.73-.53,85.47-61.47,88.11-88.53.55-5.6-.25-13.31-2.5-21.97-7.73,18.24-18.45,39.15-26.91,38.85Z"/>
    </g>
    <path class="cls-5" d="M611.71,473.79c74.28-4.61,102.88,71.75,100.24,98.82-2.64,27.07-26.38,88.01-88.11,88.53-61.73.53-103.94-31.97-103.15-84.71.79-52.73,32.45-99.01,91.01-102.65Z"/>
    <path class="cls-5" d="M611.71,473.79c74.28-4.61,102.88,71.75,100.24,98.82-2.64,27.07-26.38,88.01-88.11,88.53-61.73.53-103.94-31.97-103.15-84.71.79-52.73,32.45-99.01,91.01-102.65Z"/>
    <path class="cls-10" d="M597.05,555.4c2.81-2.43,5.33-3.63,8.03-1.1,2.7,2.53,1.17,5.32-.15,6.98s-5.24,4.16-8.59,1.36c-3.35-2.8.71-7.25.71-7.25Z"/>
    <path class="cls-10" d="M581.73,552.72c3.71.17,6.24,3.76,4.96,7.08-1.28,3.32-4.68,3.96-7.37,3.32s-4.39-3.58-3.69-6.01,2.27-4.57,6.1-4.39Z"/>
    <path class="cls-7" d="M570.88,535.45c2.38-4.02,9.64-11.39,16.73-3.39"/>
    <path class="cls-7" d="M610.49,536.92c3.57-2.96,11.34-9.36,16.24,4.34"/>
    <path class="cls-4" d="M591.88,576.69c8.85,1.58,13.85,7.45,12.81,16.68-1.04,9.23-7.3,13.4-20.55,12.51-13.25-.89-20.25-5.96-19.66-16.38.6-10.42,14.89-15.04,27.4-12.81Z"/>
    <rect class="cls-14" x="581.08" y="491.42" width="5.19" height="5.19" transform="translate(447.16 -258.38) rotate(39.47)"/>
    <rect class="cls-14" x="605.44" y="504.29" width="5.19" height="5.19" transform="translate(460.9 -270.93) rotate(39.47)"/>
    <rect class="cls-14" x="621.26" y="492.43" width="5.19" height="5.19" transform="translate(1055.64 -174.15) rotate(84.4)"/>
    <rect class="cls-13" x="626.45" y="515.01" width="5.19" height="5.19" transform="translate(1416.37 308.49) rotate(125.68)"/>
    <rect class="cls-13" x="646.98" y="506.16" width="5.19" height="5.19" rx=".02" ry=".02" transform="translate(958.99 -256.13) rotate(73.96)"/>
    <rect class="cls-14" x="641.63" y="527.13" width="5.19" height="5.19" transform="translate(-161.46 314.06) rotate(-24.44)"/>
    <rect class="cls-13" x="596.25" y="488.33" width="5.19" height="5.19" transform="translate(-149.47 291.81) rotate(-24.44)"/>
    <rect class="cls-14" x="585.98" y="508.76" width="5.19" height="5.19" transform="translate(95.62 -92.72) rotate(9.8)"/>
    <rect class="cls-13" x="642.01" y="488.88" width="5.19" height="5.19" transform="translate(1419.78 254.48) rotate(125.68)"/>
    <rect class="cls-14" x="565.45" y="507.03" width="5.19" height="5.19" transform="translate(1019.81 -105.44) rotate(84.4)"/>
    <rect class="cls-14" x="660.48" y="520.86" width="5.19" height="5.19" transform="translate(1119.33 -187.53) rotate(84.4)"/>
  </g>
  <g>
    <path class="cls-8" d="M516.59,560.68c1.15.54,51.17-28.7,52.33,2.85s-9.23,46.68-21.55,47.96c-12.31,1.28-35.01-13.23-35.01-13.23l4.23-37.58Z"/>
    <path class="cls-8" d="M423.86,499.3s-13.08-14.54-8.85-29.02c4.23-14.48,17.31-24.1,30.4-21.79,13.08,2.31,38.4,12.25,30.78,29.86-7.62,17.61-17.7,23.11-17.7,23.11l-34.63-2.16Z"/>
    <line class="cls-7" x1="525.97" y1="572.64" x2="556.97" y2="564.49"/>
    <path class="cls-7" d="M524.2,581.05c6.66-.76,25.62-3.76,27.78-3.92"/>
    <path class="cls-7" d="M522.78,590.09s22.71-3.14,30.7-1.48"/>
    <path class="cls-7" d="M438.21,489.77s-6.15-18.91-5.65-23.74"/>
    <path class="cls-7" d="M449.2,489.77c-.33-1.95-5.13-17.58-3.31-22.91"/>
    <path class="cls-7" d="M451.43,491.49c.76-1.35,2.76-17.98,8.41-21.3"/>
    <g>
      <path class="cls-5" d="M378.57,569.49s0-.07,0-.07c0,0,0,.04,0,.07Z"/>
      <path class="cls-5" d="M485.1,569.42s-.37,1.94-.11,4.39c.47-2.41.11-4.39.11-4.39Z"/>
      <path class="cls-16" d="M361.32,574.77c10.76,3.5,14.83.12,16.36-2.64.69-1.25.86-2.36.9-2.64,0-.03,0-.07,0-.07,0,0,0,.03,0,.07-.17,1.57-4.23,41.49,35.6,37.05,40.62-4.53,47.36-33.9,47.36-33.9,0,0,.42,10.82,13.05,9.57,7.4-.73,9.74-5,10.41-8.41-.26-2.44.11-4.39.11-4.39,0,0,.36,1.98-.11,4.39.46,4.35,2.94,10.3,13.17,9.69,10.05-.6,19.96-15.54,27.18-31.34-6.3-41.99-59.17-63.15-95.7-62.65-36.16.5-64.61,15.96-80.19,58.25.85,13.14,3.54,24.3,11.88,27.02Z"/>
      <path class="cls-12" d="M498.16,583.5c-10.23.61-12.71-5.34-13.17-9.69-.67,3.41-3.01,7.68-10.41,8.41-12.63,1.25-13.05-9.57-13.05-9.57,0,0-6.74,29.37-47.36,33.9-39.82,4.44-35.77-35.48-35.6-37.05-.03.28-.2,1.4-.9,2.64-1.53,2.75-5.6,6.14-16.36,2.64-8.33-2.71-11.02-13.88-11.88-27.02-3.82,10.36-6.88,22.31-9.07,36.08-11.16,69.93,24.62,85.51,95.03,85.12,70.41-.38,86.95-53.87,90.42-104.22.3-4.39.11-8.58-.49-12.58-7.22,15.8-17.13,30.75-27.18,31.34Z"/>
    </g>
    <path class="cls-5" d="M429.63,489.51c40.02-.55,99.65,24.88,96.19,75.23-3.46,50.35-20.01,103.83-90.42,104.22-70.41.38-106.19-15.19-95.03-85.12,11.16-69.93,44.25-93.71,89.26-94.33Z"/>
    <path class="cls-1" d="M432.76,560.19c4.9-.29,7.12,4.42,5.87,7.89-1.25,3.46-2.79,5.77-7.12,5.29s-5.68-5-4.52-7.6c1.15-2.6,2.5-5.39,5.77-5.58Z"/>
    <path class="cls-1" d="M412.65,560.18c4.67,1.53,4.04,5.5,2.31,8.19s-3.85,5-7.5,3.17-3.37-5.77-1.15-8.08,3.37-4.26,6.35-3.28Z"/>
    <path class="cls-2" d="M399.67,547.59c1.25-5.48,10.2-15.39,15.58-4.42"/>
    <path class="cls-2" d="M430.25,544.99c3.56-5.29,9.43-10.2,12.99.96"/>
    <path class="cls-4" d="M415.25,584.14c10.18.75,22.32,3.08,21.84,12.22-.48,9.14-5,14.04-17.7,13.95s-22.7-4.27-21.74-13.1c.96-8.83,8.39-13.74,17.6-13.06Z"/>
    <rect class="cls-14" x="401.03" y="505.45" width="5.04" height="5.04" transform="translate(414.96 -140.69) rotate(39.47)"/>
    <rect class="cls-14" x="424.72" y="517.97" width="5.04" height="5.04" transform="translate(428.32 -152.89) rotate(39.47)"/>
    <rect class="cls-14" x="440.09" y="506.44" width="5.04" height="5.04" transform="translate(905.96 18.8) rotate(84.4)"/>
    <rect class="cls-13" x="445.14" y="528.39" width="5.04" height="5.04" transform="translate(919.51 1040.45) rotate(177.34)"/>
    <rect class="cls-13" x="465.11" y="519.78" width="5.04" height="5.04" rx=".02" ry=".02" transform="translate(840.35 -71.46) rotate(73.96)"/>
    <rect class="cls-14" x="459.91" y="540.17" width="5.04" height="5.04" transform="translate(-183.12 240) rotate(-24.44)"/>
    <rect class="cls-13" x="415.78" y="502.45" width="5.04" height="5.04" transform="translate(-171.46 218.36) rotate(-24.44)"/>
    <rect class="cls-14" x="405.8" y="522.32" width="5.04" height="5.04" transform="translate(-251.52 442.45) rotate(-45)"/>
    <rect class="cls-14" x="388.91" y="517.97" width="5.04" height="5.04" transform="translate(-253.4 429.23) rotate(-45)"/>
    <rect class="cls-13" x="483.97" y="527.69" width="5.04" height="5.04" transform="translate(223.07 -139.42) rotate(21.06)"/>
    <rect class="cls-14" x="466.59" y="530.68" width="5.04" height="5.04" transform="translate(-178.59 241.91) rotate(-24.44)"/>
  </g>
  <g>
    <path class="cls-8" d="M251.72,518.46c-5.78-16.28-22.26-61.32,23.27-59.29,45.53,2.02,33.05,39.8,25.3,51.27-7.76,11.47-12.82,17.54-12.82,17.54l-35.75-9.51Z"/>
    <path class="cls-8" d="M343.13,591.04c10.32-10.12,14.17-22.6,31.37-22.6s30.02,14.5,26.31,30.02c-3.71,15.51-10.82,25.97-28.52,26.31-17.69.34-41.3-30.69-41.3-30.69l12.14-3.04Z"/>
    <path class="cls-2" d="M265.89,502.03s-2.7-18.91-2.02-25.32"/>
    <path class="cls-2" d="M273.31,505.05s-1.06-16.2,2.68-28.35"/>
    <path class="cls-2" d="M283.93,508.41s.17-19.22,4.22-26.65"/>
    <line class="cls-2" x1="352.58" y1="590.71" x2="381.91" y2="584.64"/>
    <line class="cls-2" x1="352.58" y1="598.46" x2="379.55" y2="599.81"/>
    <path class="cls-2" d="M349.61,602.48s23.53,5.09,27.58,5.09"/>
    <path class="cls-16" d="M179.21,564.06c1.69,13.15,7.76,13.49,7.76,13.49,0,0-.67,9.45,6.41,10.12,0,0,3.04,18.89,25.3,19.9s27.66-5.4,34.74-13.15c7.08-7.76,14.5-21.92,14.5-21.92,0,0-3.71,37.1,14.5,37.78s24.39-19.56,25.52-26.98c0,0,10.24,14.84,19.34,3.04,6.2-8.04,12.56-20.78,16.73-35.23-18.95-28.87-61.53-45.77-82.01-48.37-32.4-4.11-62.23,10.47-81.46,30.73-1.19,11.36-2.15,24.15-1.33,30.61Z"/>
    <path class="cls-12" d="M344.01,551.09c-4.17,14.45-10.53,27.19-16.73,35.23-9.11,11.8-19.34-3.04-19.34-3.04-1.13,7.42-7.3,27.66-25.52,26.98s-14.5-37.78-14.5-37.78c0,0-7.42,14.17-14.5,21.92-7.08,7.76-12.48,14.17-34.74,13.15s-25.3-19.9-25.3-19.9c-7.08-.67-6.41-10.12-6.41-10.12,0,0-6.07-.34-7.76-13.49-.83-6.46.13-19.25,1.33-30.61-11.77,12.4-19.57,26.93-21.53,40.62-5.15,36.05-12.51,86.8,67.68,98.57,80.18,11.77,111.12-22.66,125.05-77.97,4.18-16.61.4-31.2-7.73-43.58Z"/>
    <path class="cls-9" d="M261.99,502.72c29.27,3.71,103.68,36.64,89.74,91.95-13.94,55.31-44.87,89.74-125.05,77.97-80.18-11.77-72.83-62.53-67.68-98.57,5.15-36.05,50.76-77.97,102.99-71.35Z"/>
    <path class="cls-4" d="M217.18,586.55c11.29,1.45,25.47.32,25.47,14.83s-18.22,13.54-28.54,12.74c-10.32-.81-25.31-2.58-24.02-16.12s27.08-11.45,27.08-11.45Z"/>
    <path class="cls-1" d="M232.9,562.12c1.91.96,5.74,3.31,2.42,8.29s-5.74,5.74-8.67,4.08c-2.93-1.66-4.08-5.23-2.42-7.78s4.84-6.5,8.67-4.59Z"/>
    <path class="cls-1" d="M209.48,560.16c2.67-.85,8.35,3.41,3.92,8.3-4.43,4.89-6.6,5.4-9.4,3.11s-1.66-5.74,0-7.9c1.66-2.17,4.08-3.06,5.48-3.51Z"/>
    <path class="cls-2" d="M235.72,545.28c4.84-3.39,14.19-7.09,11.61,6.13"/>
    <path class="cls-2" d="M206.22,541.41c0-7.09,10.8-10.8,14.03-1.93"/>
    <rect class="cls-14" x="224.08" y="515.22" width="4.96" height="4.96" transform="translate(380.77 -25.95) rotate(39.47)"/>
    <rect class="cls-14" x="247.35" y="527.52" width="4.96" height="4.96" transform="translate(393.91 -37.94) rotate(39.47)"/>
    <rect class="cls-14" x="262.47" y="516.19" width="4.96" height="4.96" transform="translate(755.29 204.38) rotate(84.4)"/>
    <rect class="cls-13" x="267.43" y="537.77" width="4.96" height="4.96" transform="translate(866.18 636.06) rotate(125.68)"/>
    <rect class="cls-13" x="287.05" y="529.3" width="4.96" height="4.96" rx=".02" ry=".02" transform="translate(720.59 106.56) rotate(73.96)"/>
    <rect class="cls-14" x="281.94" y="549.35" width="4.96" height="4.96" transform="translate(-202.85 167.16) rotate(-24.44)"/>
    <rect class="cls-13" x="238.57" y="512.27" width="4.96" height="4.96" transform="translate(-191.4 145.88) rotate(-24.44)"/>
    <rect class="cls-14" x="228.76" y="531.8" width="4.96" height="4.96" transform="translate(94.31 -31.56) rotate(9.8)"/>
  </g>
  <path class="cls-11" d="M59.17,585.34s5.93,37.96,55.75,62.28c0,0-11.86,145.91,121,198.7,132.86,52.79,250.72,30.84,301.81,31.44,51.1.59,182.18-9.49,252.76-40.93,70.58-31.44,116.85-84.22,137.01-123.37,20.17-39.15,18.98-91.93,18.98-91.93,0,0,80.07-69.4,78.29-106.17,0,0-67.02,57.53-114.47,64.65s-208.78,40.93-364.18,49.23c-155.4,8.3-150.65,21.95-252.08,11.27-101.42-10.68-197.51-30.84-234.88-55.16Z"/>
  <path class="cls-3" d="M705.29,674.95c30.25-1.08,165.11-22.62,188.7-38"/>
  <path class="cls-3" d="M678.04,715.92c34.94-1.54,181.49-17.43,220.52-34.87"/>
  <path class="cls-3" d="M649.57,768.73c75.2-4.61,200.32-23.44,237.24-35.89"/>
  <path class="cls-3" d="M712.12,807.19c36.25-2.56,112.27-14.87,129.9-21.02"/>
</svg>