<?xml version="1.0" encoding="UTF-8"?>
<svg id="_レイヤー_1" data-name="レイヤー 1" xmlns="http://www.w3.org/2000/svg" viewBox="0 0 1080 1080">
  <defs>
    <style>
      .cls-1 {
        fill: #29446d;
      }

      .cls-1, .cls-2, .cls-3, .cls-4, .cls-5, .cls-6, .cls-7, .cls-8, .cls-9, .cls-10, .cls-11, .cls-12, .cls-13, .cls-14, .cls-15 {
        stroke-miterlimit: 10;
      }

      .cls-1, .cls-2, .cls-3, .cls-4, .cls-5, .cls-6, .cls-7, .cls-8, .cls-10, .cls-11, .cls-12, .cls-13, .cls-14, .cls-15 {
        stroke-width: 3px;
      }

      .cls-1, .cls-3, .cls-4, .cls-5, .cls-12, .cls-13 {
        stroke: #040000;
      }

      .cls-2, .cls-6, .cls-7, .cls-8, .cls-10, .cls-11, .cls-14, .cls-15 {
        stroke: #231815;
      }

      .cls-2, .cls-16 {
        fill: #f44a4a;
      }

      .cls-3 {
        fill: #f6faed;
      }

      .cls-4, .cls-8 {
        fill: none;
      }

      .cls-5 {
        fill: #5782c2;
      }

      .cls-17, .cls-13 {
        fill: #fff;
      }

      .cls-6, .cls-9 {
        fill: #d5e044;
      }

      .cls-7 {
        fill: #e0e1e1;
      }

      .cls-9 {
        stroke: #d5e044;
        stroke-width: 2.51px;
      }

      .cls-10 {
        fill: #feeed5;
      }

      .cls-11 {
        fill: #fedb6b;
      }

      .cls-12 {
        fill: #fff100;
      }

      .cls-14, .cls-18 {
        fill: #2c6bdb;
      }

      .cls-15 {
        fill: #231815;
      }
    </style>
  </defs>
  <rect class="cls-9" width="1078.77" height="1082.21"/>
  <path class="cls-11" d="M361.49,496.65s-103.16-161.86-27.13-200.22,347.52-33.46,347.52-33.46c0,0,110.44-5.24,65.86,70.44l-85.03,123.36s67.29,34.64,106.51,63.4c39.22,28.76,34.64,140.53-62.09,149.02-96.74,8.5-278.44,15.69-341.19,19.61s-173.86-23.53-92.81-142.49c0,0,23.13-26.14,88.37-49.67Z"/>
  <path class="cls-7" d="M484.29,682.71l-9.64,202.89c-27.35,6.15-64.95,57.89-70.88,80.68-5.93,22.79-4.1,20.97,16.86,24.84,20.97,3.87,119.19,11.62,161.35-4.79,42.16-16.41-15.27-87.97-30.77-97.54,0,0-8.2-4.56-10.94-5.7l10.62-212.09-66.61,11.71Z"/>
  <line class="cls-8" x1="474.54" y1="901.25" x2="474.66" y2="885.6"/>
  <line class="cls-8" x1="539" y1="897.17" x2="540.29" y2="883.09"/>
  <g>
    <path class="cls-3" d="M966.33,131.86c9.28-14.38,31.54-66.32,24.12-87.19-7.42-20.87,32,19.48,21.8,53.8-10.2,34.32-45.91,33.39-45.91,33.39Z"/>
    <path class="cls-3" d="M966.33,131.86c-7.42-12.99-22.72-71.74-10.67-92.92,0,0-38.49,15-29.68,59.52s40.35,33.39,40.35,33.39Z"/>
    <path class="cls-14" d="M954.54,133.1c11.47-1.2,13.09,22.83,11.79,31.76-1.3,8.93-10.9,34.37-32.1,35.71s-29.02-22.32-17.41-39.51c11.61-17.19,25.93-26.73,37.72-27.97Z"/>
    <path class="cls-6" d="M947.39,153.92c6.72,3.62,5.58,13.17,2.01,17.86-3.57,4.69-5.13,9.15-11.83,6.7s-5.13-10.04-1.34-17.19c3.79-7.14,9.32-8.36,11.16-7.37Z"/>
    <path class="cls-14" d="M975.3,131.86c18.43-5.67,36.83,3.98,39.73,25.18s.45,35.04-19.87,40.4c-20.31,5.36-31.7-14.21-31.92-36.38-.22-22.18,10.69-28.78,12.05-29.2Z"/>
    <path class="cls-6" d="M989.63,155.04c9.8,0,12.89,7.14,11.78,15.4-1.12,8.26-.89,12.5-8.71,12.95s-10.27-8.59-10.71-14.34,2.47-14.01,7.64-14.01Z"/>
  </g>
  <g>
    <path class="cls-3" d="M100.05,131.86c9.28-14.38,31.54-66.32,24.12-87.19-7.42-20.87,32,19.48,21.8,53.8-10.2,34.32-45.91,33.39-45.91,33.39Z"/>
    <path class="cls-3" d="M100.05,131.86c-7.42-12.99-22.72-71.74-10.67-92.92,0,0-38.49,15-29.68,59.52,8.81,44.52,40.35,33.39,40.35,33.39Z"/>
    <path class="cls-2" d="M88.26,133.1c11.47-1.2,13.09,22.83,11.79,31.76-1.3,8.93-10.9,34.37-32.1,35.71-21.21,1.34-29.02-22.32-17.41-39.51,11.61-17.19,25.93-26.73,37.72-27.97Z"/>
    <path class="cls-6" d="M81.11,153.92c6.72,3.62,5.58,13.17,2.01,17.86s-5.13,9.15-11.83,6.7-5.13-10.04-1.34-17.19c3.79-7.14,9.32-8.36,11.16-7.37Z"/>
    <path class="cls-2" d="M109.01,131.86c18.43-5.67,36.83,3.98,39.73,25.18s.45,35.04-19.87,40.4c-20.31,5.36-31.7-14.21-31.92-36.38-.22-22.18,10.69-28.78,12.05-29.2Z"/>
    <path class="cls-6" d="M123.35,155.04c9.8,0,12.89,7.14,11.78,15.4-1.12,8.26-.89,12.5-8.71,12.95s-10.27-8.59-10.71-14.34,2.47-14.01,7.64-14.01Z"/>
  </g>
  <g>
    <path class="cls-3" d="M100.05,948.07c9.28-14.38,31.54-66.32,24.12-87.19-7.42-20.87,32,19.48,21.8,53.8-10.2,34.32-45.91,33.39-45.91,33.39Z"/>
    <path class="cls-3" d="M100.05,948.07c-7.42-12.99-22.72-71.74-10.67-92.92,0,0-38.49,15-29.68,59.52s40.35,33.39,40.35,33.39Z"/>
    <path class="cls-14" d="M88.26,949.31c11.47-1.2,13.09,22.83,11.79,31.76s-10.9,34.37-32.1,35.71c-21.21,1.34-29.02-22.32-17.41-39.51,11.61-17.19,25.93-26.73,37.72-27.97Z"/>
    <path class="cls-6" d="M81.11,970.14c6.72,3.62,5.58,13.17,2.01,17.86s-5.13,9.15-11.83,6.7c-6.7-2.46-5.13-10.04-1.34-17.19s9.32-8.36,11.16-7.37Z"/>
    <path class="cls-14" d="M109.01,948.08c18.43-5.67,36.83,3.98,39.73,25.18s.45,35.04-19.87,40.4c-20.31,5.36-31.7-14.21-31.92-36.38-.22-22.18,10.69-28.78,12.05-29.2Z"/>
    <path class="cls-6" d="M123.35,971.25c9.8,0,12.89,7.14,11.78,15.4s-.89,12.5-8.71,12.95-10.27-8.59-10.71-14.34,2.47-14.01,7.64-14.01Z"/>
  </g>
  <g>
    <path class="cls-3" d="M966.33,948.07c9.28-14.38,31.54-66.32,24.12-87.19-7.42-20.87,32,19.48,21.8,53.8-10.2,34.32-45.91,33.39-45.91,33.39Z"/>
    <path class="cls-3" d="M966.33,948.07c-7.42-12.99-22.72-71.74-10.67-92.92,0,0-38.49,15-29.68,59.52,8.81,44.52,40.35,33.39,40.35,33.39Z"/>
    <path class="cls-2" d="M954.54,949.31c11.47-1.2,13.09,22.83,11.79,31.76s-10.9,34.37-32.1,35.71c-21.21,1.34-29.02-22.32-17.41-39.51,11.61-17.19,25.93-26.73,37.72-27.97Z"/>
    <path class="cls-6" d="M947.39,970.14c6.72,3.62,5.58,13.17,2.01,17.86s-5.13,9.15-11.83,6.7-5.13-10.04-1.34-17.19c3.79-7.14,9.32-8.36,11.16-7.37Z"/>
    <path class="cls-2" d="M975.3,948.08c18.43-5.67,36.83,3.98,39.73,25.18,2.9,21.21.45,35.04-19.87,40.4-20.31,5.36-31.7-14.21-31.92-36.38-.22-22.18,10.69-28.78,12.05-29.2Z"/>
    <path class="cls-6" d="M989.63,971.25c9.8,0,12.89,7.14,11.78,15.4s-.89,12.5-8.71,12.95-10.27-8.59-10.71-14.34c-.45-5.75,2.47-14.01,7.64-14.01Z"/>
  </g>
  <path class="cls-10" d="M495,634.23l-52.92-3.51s3.66,41.15,7.75,72.95c8.86-7.26,24.72-17.38,48.59-22.45-1.28-17.5-3.42-46.99-3.42-46.99Z"/>
  <path class="cls-10" d="M626.07,632.27l-60.46,4.58s-12.93,21.32-24.53,44.86c11.5,2.14,33.47,6.66,48.11,12.31,13.89-27.19,36.88-61.75,36.88-61.75Z"/>
  <g>
    <path class="cls-18" d="M653.36,445.99c-3.36-5.38-6.55-10.46-9.6-15.3-45.36,24.98-254.98,141.05-319.4,188.5-5.01,16.99-9.53,35.1-13.17,54.25,0,0,29.49-20.27,78.62-28.98,54.49-45.11,243.96-145.91,282.1-166.03-5.68-10.87-11.85-21.74-18.54-32.45Z"/>
    <path class="cls-16" d="M593.49,353.97c-24.99,8.11-77.38,26.98-122.98,55.6-38.97,24.46-62.79,39.26-75.2,46.93-3.82,5.47-6.81,10.39-8.63,14.5-6.64,14.99-20.79,40.59-35.67,75.06l265.42-158.08c-10.82-16.58-18.09-27.2-22.94-34Z"/>
    <path class="cls-18" d="M662.91,644.04c14.73-.1,36.15-5.86,42.91-.98,8.82,6.37,23.56,4.11,25.98,12.26,0,0-3.39-21.97-12.53-54.98l-56.36,43.7Z"/>
    <path class="cls-17" d="M593.49,353.97c-7.61-10.67-9.25-11.9-9.25-11.9l-98.53,13.73c-9.3,10.57-66.39,66.38-90.39,100.7,12.41-7.67,36.23-22.47,75.2-46.93,45.6-28.62,97.99-47.49,122.98-55.6Z"/>
    <path class="cls-17" d="M616.43,387.97l-265.42,158.08c-9.14,21.17-18.54,45.69-26.65,73.15,64.42-47.45,274.04-163.53,319.4-188.5-10.98-17.43-19.98-31.46-27.33-42.73Z"/>
    <path class="cls-17" d="M671.9,478.45c-38.13,20.12-227.61,120.92-282.1,166.03,17.91-3.18,38.44-4.82,61.09-3.38,14.28.91,26.05,1.52,35.84,1.94l203.43-126.02c-5.43-12.67-11.5-25.62-18.27-38.57Z"/>
    <path class="cls-17" d="M706.92,560.51l-130.18,85.25c28.59-2.48,67.4-8.07,75.15-3.68,2.64,1.49,6.52,1.99,11.02,1.96l56.36-43.7c-3.32-11.99-7.4-25.44-12.35-39.82Z"/>
    <path class="cls-16" d="M690.17,517.02l-203.43,126.02c48.35,2.06,48.18-.71,61.22,2.96,4.9,1.38,15.78.89,28.78-.24l130.18-85.25c-4.75-13.79-10.3-28.44-16.75-43.49Z"/>
  </g>
  <g>
    <path class="cls-4" d="M653.36,445.99c-3.36-5.38-6.55-10.46-9.6-15.3-45.36,24.98-254.98,141.05-319.4,188.5-5.01,16.99-9.53,35.1-13.17,54.25,0,0,29.49-20.27,78.62-28.98,54.49-45.11,243.96-145.91,282.1-166.03-5.68-10.87-11.85-21.74-18.54-32.45Z"/>
    <path class="cls-4" d="M593.49,353.97c-24.99,8.11-77.38,26.98-122.98,55.6-38.97,24.46-62.79,39.26-75.2,46.93-3.82,5.47-6.81,10.39-8.63,14.5-6.64,14.99-20.79,40.59-35.67,75.06l265.42-158.08c-10.82-16.58-18.09-27.2-22.94-34Z"/>
    <path class="cls-4" d="M662.91,644.04c14.73-.1,36.15-5.86,42.91-.98,8.82,6.37,23.56,4.11,25.98,12.26,0,0-3.39-21.97-12.53-54.98l-56.36,43.7Z"/>
    <path class="cls-4" d="M593.49,353.97c-7.61-10.67-9.25-11.9-9.25-11.9l-98.53,13.73c-9.3,10.57-66.39,66.38-90.39,100.7,12.41-7.67,36.23-22.47,75.2-46.93,45.6-28.62,97.99-47.49,122.98-55.6Z"/>
    <path class="cls-4" d="M616.43,387.97l-265.42,158.08c-9.14,21.17-18.54,45.69-26.65,73.15,64.42-47.45,274.04-163.53,319.4-188.5-10.98-17.43-19.98-31.46-27.33-42.73Z"/>
    <path class="cls-4" d="M671.9,478.45c-38.13,20.12-227.61,120.92-282.1,166.03,17.91-3.18,38.44-4.82,61.09-3.38,14.28.91,26.05,1.52,35.84,1.94l203.43-126.02c-5.43-12.67-11.5-25.62-18.27-38.57Z"/>
    <path class="cls-4" d="M706.92,560.51l-130.18,85.25c28.59-2.48,67.4-8.07,75.15-3.68,2.64,1.49,6.52,1.99,11.02,1.96l56.36-43.7c-3.32-11.99-7.4-25.44-12.35-39.82Z"/>
    <path class="cls-4" d="M690.17,517.02l-203.43,126.02c48.35,2.06,48.18-.71,61.22,2.96,4.9,1.38,15.78.89,28.78-.24l130.18-85.25c-4.75-13.79-10.3-28.44-16.75-43.49Z"/>
  </g>
  <path class="cls-10" d="M670.3,220.84c10.1-11.63,15.8-29.25,33.93-26.33s21.94,31.55,7.9,43.86c-14.04,12.3-17.84,16.11-39.2,6.45s-2.63-23.99-2.63-23.99Z"/>
  <path class="cls-10" d="M380.72,238.37c-9.65-9.34-30.71-21.33-42.41-4.08s4.69,44.59,21.21,44.46c16.51-.13,29.1-5.61,29.1-5.61l-7.9-34.77Z"/>
  <path class="cls-10" d="M520.28,111.77c136.99-9.39,166.29,77.66,161.02,126.36s-40.8,125.92-146.98,129.87c-106.18,3.95-154-47.39-161.9-107.06s71.08-143.91,147.86-149.18Z"/>
  <path class="cls-8" d="M543.82,230.88c2.01-9.86,10.77-25.38,20.08-4.2"/>
  <path class="cls-8" d="M493.43,238.37c-9.49-4.93,4.38-24.83,13.88-10.41"/>
  <path class="cls-15" d="M510.77,254.25c-4.62-3.53-8.66,0-12,4.2s-6.08,9.86-2.24,13.33,8.22-.18,12.78-5.48,3.1-10.79,1.46-12.05Z"/>
  <path class="cls-15" d="M551.67,246.22c6.57-.19,8.95,6.94,7.85,10.59s-.91,7.49-7.85,7.85-9.13-5.12-9.13-9.22,2.92-9.04,9.13-9.22Z"/>
  <path class="cls-8" d="M507.31,292.96c0-10.59,27.75-33.96,40.53-6.02"/>
  <path class="cls-8" d="M470.51,303.5c48.04,24.18,53.27,23.2,60.13,22.55s50.33-12.09,81.05-59.48"/>
  <path class="cls-4" d="M760.3,569.1c5.66,9.91,5.66,19.47-14.51,27.25"/>
  <path class="cls-12" d="M678.43,199.58c-11.35-45.46-53.06-95.02-158.16-87.81-65.52,4.49-132.63,66.49-146,121.66,23.49-14.07,86.26-47.52,158.29-51.69,63.03-3.65,117.83,9.38,145.86,17.84Z"/>
  <path class="cls-13" d="M499.01,689.17c-.16-2.12-.36-4.84-.58-7.94-23.87,5.07-39.73,15.18-48.59,22.45,1.7,13.22,3.47,24.81,5.09,31.17,20.1-11.61,42.11-17.85,49.67-19.79-2.64-8.83-5.06-18.74-5.59-25.89Z"/>
  <path class="cls-1" d="M454.44,759.58c3.78-5.68-1.69-9.97-9.76-11.44-4,4.03-8.54,8.99-12.73,14.44,1.51.72,3.09,1.44,4.72,2.14,10.06,4.28,13.06,1.93,17.77-5.14Z"/>
  <path class="cls-5" d="M511.36,734.24c-1.45-3.06-4.21-10.62-6.77-19.18-7.56,1.94-29.57,8.18-49.67,19.79.3,1.18.6,2.2.88,2.99,0,0-4.88,4.02-11.13,10.31,8.07,1.47,13.54,5.76,9.76,11.44-4.71,7.07-7.71,9.42-17.77,5.14-1.63-.69-3.21-1.41-4.72-2.14-10.48,13.64-18.68,30.3-10.13,42.9,17.32,25.49,39.87-23.53,51.31-29.41,11.44-5.88,29.41-16.34,34.31-13.73,4.9,2.61,6.86-21.9,3.92-28.11Z"/>
  <path class="cls-13" d="M580.16,725.49c-3.75-3.11,1.19-16.11,9.03-31.47-14.64-5.66-36.61-10.17-48.11-12.31-4.27,8.68-8.37,17.65-11.56,25.97,6.26,1.06,17.01,3.24,24.48,6.7,9.11,4.22,16.07,9.71,26.16,11.1Z"/>
  <path class="cls-5" d="M600.38,737.28c-7.54,10.1-18.12,21.42-23.64,14.59-6.58-8.15,2.26-16.75,10.05-24.12-1.68-.61-3.5-1.17-5.49-1.69-.45-.12-.82-.31-1.14-.58-10.09-1.39-17.05-6.88-26.16-11.1-7.47-3.46-18.22-5.64-24.48-6.7-3.73,9.7-6.24,18.52-6.39,24.92-.65,26.8,26.8,37.26,32.03,39.22,5.23,1.96,12.42,5.56,12.42,13.07s9.8,16.99,19.94,7.84c10.13-9.15,20.59-31.05,17.65-43.79-1.09-4.71-2.58-8.52-4.78-11.66Z"/>
  <path class="cls-1" d="M576.74,751.87c5.52,6.83,16.09-4.49,23.64-14.59-2.97-4.23-7.25-7.24-13.59-9.53-7.79,7.37-16.63,15.97-10.05,24.12Z"/>
</svg>