<?xml version="1.0" encoding="UTF-8"?>
<svg xmlns="http://www.w3.org/2000/svg" viewBox="0 0 425.2 425.2">
  <defs>
    <style>
      .cls-1 {
        fill: #5ab75a;
        stroke: #5ab75a;
        stroke-width: 1.5px;
      }

      .cls-1, .cls-2, .cls-3, .cls-4, .cls-5, .cls-6, .cls-7, .cls-8, .cls-9, .cls-10, .cls-11, .cls-12 {
        stroke-linecap: round;
        stroke-linejoin: round;
      }

      .cls-2 {
        opacity: 0;
      }

      .cls-2, .cls-3, .cls-4, .cls-5, .cls-6, .cls-7, .cls-8, .cls-9, .cls-10, .cls-11, .cls-12 {
        stroke: #f7b347;
      }

      .cls-2, .cls-4, .cls-5 {
        stroke-width: 4px;
      }

      .cls-2, .cls-4, .cls-13 {
        fill: none;
      }

      .cls-3, .cls-7, .cls-14, .cls-8, .cls-9, .cls-12 {
        fill: #f7b347;
      }

      .cls-15, .cls-5, .cls-6, .cls-10 {
        fill: #fff;
      }

      .cls-6, .cls-12 {
        stroke-width: 3.81px;
      }

      .cls-7, .cls-10, .cls-11 {
        stroke-width: 3.6px;
      }

      .cls-8 {
        stroke-width: 3.2px;
      }

      .cls-9 {
        stroke-width: 3px;
      }

      .cls-11 {
        fill: #f2f2f2;
      }

      .cls-16 {
        fill: #eb5f39;
      }
    </style>
  </defs>
  <g id="_レイヤー_1" data-name="レイヤー 1">
    <g id="_レイヤー_6" data-name="レイヤー 6">
      <rect class="cls-15" width="425.2" height="425.2"/>
    </g>
    <g>
      <path class="cls-12" d="M208.17,178.91c41.42-7.43,79.63,6.05,89.15,49.76,9.52,43.71-25.03,67.8-54.71,75.09-38.49,9.45-85.53,2.41-96.56-45.05-11.03-47.45,37.35-75.36,62.11-79.8Z"/>
      <path class="cls-5" d="M129.34,243.83s-3.12-61.93,63.1-77.9c0,0,3.2-12.18,17.19-14.35,13.99-2.18,22.08,8.86,22.08,8.86,0,0,65.64-7.75,81.22,61.32,0,0,17.92,2.08,13.76,20.77-4.15,18.7-16.88,16.88-16.88,16.88,0,0-8.05,53.23-73.23,61.54-65.18,8.31-89.85-18.18-103.87-37.91,0,0-18.83.13-21.55-19.22-2.73-19.35,18.18-19.99,18.18-19.99Z"/>
      <path class="cls-9" d="M204.01,165.24c-.86,1.75-.56,3.49.67,3.89s2.93-.69,3.78-2.44.56-3.49-.67-3.89-2.93.69-3.78,2.44Z"/>
      <path class="cls-9" d="M220.24,163.04c1.33,1.54,1.52,3.3.43,3.91s-3.04-.13-4.37-1.67c-1.33-1.54-1.52-3.3-.43-3.91s3.04.13,4.37,1.67Z"/>
      <path class="cls-13" d="M250.67,178.99c-.02.16-.05.33-.08.5.02,0,.04.01.06.02,0-.18,0-.35.01-.51Z"/>
      <path class="cls-13" d="M250.67,178.99c.25-1.83.22-3.16.22-3.16,0,0-.16,1.3-.22,3.16Z"/>
      <path class="cls-13" d="M228.44,173.61s.04,1.4.42,3.37c.01,0,.02,0,.03,0-.16-1.98-.46-3.37-.46-3.37Z"/>
      <path class="cls-13" d="M184.83,181.95s.71,1.98,1.37,4.77c.23-.12.46-.23.69-.35-1.36-2.45-2.07-4.42-2.07-4.42Z"/>
      <path class="cls-13" d="M207.32,174.61s-.14,1.89.24,4.37c-.02-2.56-.24-4.37-.24-4.37Z"/>
      <path class="cls-13" d="M207.56,178.98s0,.03,0,.05c0,0,0,0,0,0,0-.02,0-.03,0-.05Z"/>
      <line class="cls-7" x1="229.59" y1="287.08" x2="233.89" y2="292.49"/>
      <g>
        <path class="cls-13" d="M230.07,173.98s-.14,1.19-.18,3.01c.01,0,.03,0,.04,0,.14-1.82.14-3.01.14-3.01Z"/>
        <path class="cls-13" d="M204.06,177.92c.08.46.19,1.08.29,1.83.04-.01.09-.02.13-.03-.19-.73-.33-1.34-.42-1.79Z"/>
        <path class="cls-13" d="M255.02,176.34s-.27,1.74-.4,4.27c0,0,0,0,.01,0,.37-2.5.39-4.28.39-4.28Z"/>
        <path class="cls-13" d="M184.99,184.21s.1,1.19.45,2.9c.07-.03.13-.07.2-.1-.35-1.71-.65-2.8-.65-2.8Z"/>
        <path class="cls-13" d="M204.06,177.92c-.1-.53-.16-.84-.16-.84,0,0,.05.31.16.84Z"/>
        <path class="cls-11" d="M262.42,200.27c6.39,1.85,10.74-3.83,13.21-8.68-6.14-4.95-13.24-8.57-20.99-10.97,0,.05-.01.09-.02.14-.31,6.29.27,17.33,7.8,19.51Z"/>
        <path class="cls-7" d="M254.63,180.62s0,0-.01,0c0,.05,0,.1,0,.14,0-.05.01-.09.02-.14Z"/>
        <path class="cls-11" d="M180.52,208.44c6.87-2.21,6.57-12.21,5.6-18.65-.3-.96-.52-1.87-.69-2.67-7.05,3.68-14.21,8.5-20.52,14.39,3.05,4.91,8.03,9.36,15.6,6.93Z"/>
        <path class="cls-11" d="M241.16,196.51c9.59.47,12.54-9.68,13.45-15.76,0-.05,0-.1,0-.14-7.67-2.37-15.99-3.54-24.69-3.62-.01.18-.03.36-.05.55-.06,6.22,1.12,18.48,11.28,18.97Z"/>
        <path class="cls-7" d="M297.32,228.67c-3.6-16.51-11.29-28.7-21.7-37.09-2.47,4.85-6.82,10.54-13.21,8.68-7.53-2.18-8.11-13.22-7.8-19.51-.91,6.08-3.86,16.22-13.45,15.76-10.16-.49-11.34-12.75-11.28-18.97-.54,5.97-2.7,17.44-11.23,18.09-8.89.68-12.83-10.64-14.18-15.92-.04.01-.09.02-.13.03.8,5.73,1.66,18.78-6.98,19.64-6.7.67-9.82-5-11.24-9.6.97,6.44,1.26,16.45-5.6,18.65-7.57,2.43-12.56-2.02-15.6-6.93-14.48,13.53-24.55,32.78-18.87,57.21,3.2,13.76,9.43,24.11,17.59,31.66,6.02-8.8,17.78-21.77,34.78-21.95,25.75-.27,31.16,14.95,31.16,14.95,0,0,3.51-10.83,18.52-11.11,9.99-.18,20.17,10.21,25.86,17.18,17.34-12.63,29.47-32.64,23.34-60.77Z"/>
        <path class="cls-6" d="M248.11,272.27c-15.01.27-18.52,11.11-18.52,11.11,0,0-5.41-15.22-31.16-14.95-17,.18-28.76,13.15-34.78,21.95,20,18.48,51.63,20.1,78.97,13.38,10.57-2.6,21.76-7.33,31.36-14.32-5.69-6.97-15.87-17.36-25.86-17.18Z"/>
        <path class="cls-11" d="M197.37,199.38c8.64-.86,7.78-13.91,6.98-19.64-5.63,1.41-12.12,3.85-18.71,7.27.16.8.33,1.74.49,2.78,1.42,4.6,4.54,10.26,11.24,9.6Z"/>
        <path class="cls-7" d="M185.64,187.01c-.07.03-.13.07-.2.1.17.8.39,1.71.69,2.67-.15-1.03-.33-1.97-.49-2.78Z"/>
        <path class="cls-11" d="M218.65,195.63c8.53-.65,10.68-12.11,11.23-18.09,0-.19,0-.37,0-.55-7.04-.06-14.33.6-21.72,1.92-1.18.21-2.41.48-3.69.8,1.35,5.28,5.29,16.6,14.18,15.92Z"/>
        <path class="cls-7" d="M229.93,176.99s-.03,0-.04,0c0,.18,0,.36,0,.55.02-.19.03-.37.05-.55Z"/>
      </g>
      <g>
        <path class="cls-13" d="M230.07,173.98s-.14,1.19-.18,3.01c.01,0,.03,0,.04,0,.14-1.82.14-3.01.14-3.01Z"/>
        <path class="cls-13" d="M204.06,177.92c.08.46.19,1.08.29,1.83.04-.01.09-.02.13-.03-.19-.73-.33-1.34-.42-1.79Z"/>
        <path class="cls-13" d="M255.02,176.34s-.27,1.74-.4,4.27c0,0,0,0,.01,0,.37-2.5.39-4.28.39-4.28Z"/>
        <path class="cls-13" d="M184.99,184.21s.1,1.19.45,2.9c.07-.03.13-.07.2-.1-.35-1.71-.65-2.8-.65-2.8Z"/>
        <path class="cls-13" d="M204.06,177.92c-.1-.53-.16-.84-.16-.84,0,0,.05.31.16.84Z"/>
        <path class="cls-10" d="M262.42,200.27c6.39,1.85,10.74-3.83,13.21-8.68-6.14-4.95-13.24-8.57-20.99-10.97,0,.05-.01.09-.02.14-.31,6.29.27,17.33,7.8,19.51Z"/>
        <path class="cls-7" d="M254.63,180.62s0,0-.01,0c0,.05,0,.1,0,.14,0-.05.01-.09.02-.14Z"/>
        <path class="cls-10" d="M180.52,208.44c6.87-2.21,6.57-12.21,5.6-18.65-.3-.96-.52-1.87-.69-2.67-7.05,3.68-14.21,8.5-20.52,14.39,3.05,4.91,8.03,9.36,15.6,6.93Z"/>
        <path class="cls-10" d="M241.16,196.51c9.59.47,12.54-9.68,13.45-15.76,0-.05,0-.1,0-.14-7.67-2.37-15.99-3.54-24.69-3.62-.01.18-.03.36-.05.55-.06,6.22,1.12,18.48,11.28,18.97Z"/>
        <path class="cls-10" d="M197.37,199.38c8.64-.86,7.78-13.91,6.98-19.64-5.63,1.41-12.12,3.85-18.71,7.27.16.8.33,1.74.49,2.78,1.42,4.6,4.54,10.26,11.24,9.6Z"/>
        <path class="cls-7" d="M185.64,187.01c-.07.03-.13.07-.2.1.17.8.39,1.71.69,2.67-.15-1.03-.33-1.97-.49-2.78Z"/>
        <path class="cls-10" d="M218.65,195.63c8.53-.65,10.68-12.11,11.23-18.09,0-.19,0-.37,0-.55-7.04-.06-14.33.6-21.72,1.92-1.18.21-2.41.48-3.69.8,1.35,5.28,5.29,16.6,14.18,15.92Z"/>
        <path class="cls-7" d="M229.93,176.99s-.03,0-.04,0c0,.18,0,.36,0,.55.02-.19.03-.37.05-.55Z"/>
      </g>
      <line class="cls-4" x1="229.59" y1="283.38" x2="231.74" y2="290.38"/>
    </g>
  </g>
  <g id="_円" data-name="円">
    <circle class="cls-2" cx="222.49" cy="253.37" r="127.17"/>
  </g>
  <g id="_スプーン" data-name="スプーン">
    <g>
      <ellipse class="cls-8" cx="77.94" cy="262.42" rx="15.72" ry="18.71" transform="translate(-162.73 131.98) rotate(-45)"/>
      <polygon class="cls-8" points="127.13 317.07 132.58 311.61 89.07 271.37 86.89 273.55 127.13 317.07"/>
    </g>
    <g>
      <polygon class="cls-8" points="307.99 303.12 313.44 308.58 353.68 265.06 351.5 262.88 307.99 303.12"/>
      <path class="cls-3" d="M350.02,266.54c3.29,3.29,9.32,5.06,14.46,4.04,6.73-1.33,19.85-23.62,17.52-25.96-1.14-1.14-13.05,15.92-16.55,12.6s12.96-16.01,11.52-17.63c-1.62-1.44-14.31,15.03-17.63,11.52-3.32-3.5,13.36-15.22,12.6-16.55-1.64-2.87-24.63,10.79-25.96,17.52-1.02,5.14.75,11.17,4.04,14.46Z"/>
    </g>
  </g>
  <g id="_文字" data-name="文字">
    <g>
      <path class="cls-14" d="M64.52,218.83c-1.87.43-3.72-.73-4.1-2.59l-1.22-5.64c-.45-1.82.72-3.67,2.59-4.1,1.87-.43,3.72.73,4.1,2.59l1.22,5.64c.43,1.87-.72,3.67-2.59,4.1ZM64.69,204.74c-1.81-.65-2.7-2.63-2.06-4.39l2.12-5.87-1.47-.53c-1.81-.65-2.7-2.63-2.06-4.39.65-1.81,2.6-2.76,4.41-2.11l1.47.53,2.35-6.5c.65-1.81,2.63-2.7,4.39-2.06,1.81.65,2.72,2.58,2.06,4.39l-2.35,6.5,1.71.62s1.02-2.84,1.98-5.48c.55-1.52,2.23-2.35,3.75-1.8l10.51,3.8c1.52.55,2.13,2.21,1.73,3.78-1.75,7.44-3.3,11.13-5.95,16.92-.69,1.46-2.38,2.29-3.89,1.75l-10.51-3.8c-1.52-.55-2.23-2.41-1.66-3.97.81-2.25,1.65-4.71,1.65-4.71l-1.66-.6-2.12,5.87c-.64,1.76-2.63,2.7-4.39,2.06ZM75.4,223.76c-1.89.48-3.73-.69-4.18-2.51l-2.18-8.97c-.43-1.87.69-3.73,2.55-4.16,1.82-.45,3.68.67,4.11,2.54l.41,1.47,22.06,7.97c1.76.64,2.7,2.63,2.06,4.39-.65,1.81-2.65,2.75-4.41,2.11l-17.85-6.45c.17,1.67-.94,3.2-2.57,3.6ZM78.73,200.75l-.57,1.56,3.47,1.25c.17-.32.49-1.21.61-1.55l-3.52-1.27ZM83.78,198.26c.11-.29.48-1.32.58-1.61l-3.67-1.33-.58,1.61,3.67,1.33ZM85.58,192.83c.14-.39.36-1.14.5-1.53l-3.47-1.25-.55,1.52,3.52,1.27ZM99.97,218.49c-1.4,1.26-3.58,1.19-4.85-.2l-4-4.38c-1.28-1.35-1.21-3.53.2-4.85,1.4-1.26,3.58-1.19,4.85.2l3.95,4.36c1.33,1.37,1.21,3.53-.15,4.87ZM94.86,200.49l6.02,2.17c.66-1.53,1.18-3.11,1.68-4.81-.1-.04-.68-.25-.78-.28-1.16-.92-1.91-2.52-1.38-3.98.62-1.71,2.62-2.81,4.53-2.12l3.13,1.13c1.69.67,2.64,2.5,2.07,4.23-.97,4.07-2.4,8.03-4,11.38-.83,1.69-2.68,2.68-4.44,2.04l-9.15-3.3c-1.81-.65-2.72-2.58-2.06-4.39.65-1.81,2.58-2.71,4.39-2.06ZM99.25,197.99c-.55,1.52-2.28,2.33-3.79,1.78l-.88-.32c-1.52-.55-2.33-2.28-1.78-3.79.55-1.52,2.28-2.33,3.79-1.78l.88.32c1.52.55,2.33,2.28,1.78,3.79ZM95.52,187.35c.57-1.57,2.28-2.33,3.79-1.78l.88.32c1.52.55,2.35,2.23,1.78,3.79-.55,1.52-2.26,2.28-3.78,1.73l-.88-.32c-1.52-.55-2.35-2.23-1.8-3.75Z"/>
      <path class="cls-14" d="M124.03,148.31l-14.48,16.77,1.22.98,13.33-15.36c1.16-1.26,3.27-1.71,4.92-.29,0,0,5.87,5.06,8.42,7.27,1.24,1.27,1.28,3.37.09,4.75l-2.75,3.19c-1.26,1.46-3.42,1.58-4.84.36-1.46-1.26-1.62-3.46-.36-4.84l.14-.16-3.9-3.36c-3.88,4.42-7.01,8.04-10.57,12.17.7.06,1.39.3,1.98.81l2.32,2c.31-.35,1.29-1.57,1.59-1.92l-1.22-1.05c-1.34-1.16-1.69-2.9-.53-4.24s3.18-1.45,4.47-.33l3.31,2.85c1.3,1.12,1.37,3.03.29,4.44-1.97,2.76-8.25,10.19-11.48,13.38-1.56,1.33-3.17,1.04-4.27.09l-3.58-3.09c-1.3-1.12-1.61-2.91-.46-4.24,1.16-1.34,2.94-1.58,4.28-.43l1.73,1.5c.27-.32,1.18-1.45,1.49-1.81l-2.36-2.04c-.71-.61-1.14-1.46-1.17-2.31-1.15.45-2.52.3-3.55-.59l-18.85-16.2c-1.42-1.22-1.58-3.42-.36-4.84.51-.59,1.02-1.18,1.56-1.81-1.74-.54-2.79-2.34-2.33-4.14l1.49-5.31c.49-1.84,2.52-2.84,4.36-2.35,1.84.49,2.78,2.27,2.29,4.11l-.38,1.32c1.7-1.97,3.3-3.82,4.69-5.43,1.33-1.54,3.67-1.71,5.21-.38l7.68,6.63c1.81,1.56,1.67,3.64.49,5.16-3.55,4.43-6.41,7.66-9.47,11.13l1.18,1.02,14.48-16.77c.95-1.1,2.57-1.22,3.67-.27,1.06.92,1.18,2.53.23,3.63ZM102.05,144.32l-7.07,8.19,1.18,1.02,7.07-8.19-1.18-1.02ZM106.42,148.09l-7.07,8.19,1.22,1.05c2.18-2.45,4.63-5.21,6.99-8.26l-1.14-.99Z"/>
      <path class="cls-16" d="M172.83,108.27c2.27,5.82.48,11.68-4.61,17.06-1.45,1.6-4.26,2.25-6.03.34-1.36-1.37-1.46-3.22.37-5.84,2.14-2.97,4.6-5.69,3.19-8.39-.92-1.72-2.64-2.71-5.26-1.41-2.87,1.36-7.38,4.62-11.67,7.77l17.42,22.89c1.41,1.75,1.05,4.31-.73,5.67-1.7,1.39-4.26,1.02-5.62-.75l-17.69-23.3c-3.14,2.04-4.89,3.18-4.89,3.18-1.91,1.22-4.37.67-5.51-1.22-1.17-1.94-.48-4.26,1.38-5.45,1.42-.98,2.49-1.58,4.35-2.91l-3.64-4.73c-1.36-1.78-1.05-4.31.73-5.67s4.26-1.02,5.62.75l3.97,5.25c1.53-1.03,2.73-1.9,4.76-3.18l-2.82-5.68c-1-2.02-.29-4.28,1.68-5.26,2.02-1,4.53-.34,5.53,1.68l2.58,5.19c.27-.14.74-.43,1.01-.57,8.31-4.67,13.72-.89,15.89,4.58Z"/>
      <path class="cls-16" d="M230.77,97.35c.09,2.19-1.67,4.1-3.92,4.19l-4.02.16,2.93,9.04c.99,3.32-1.22,5.97-3.72,6.07l-6.28.25c-2.25.09-4.1-1.67-4.19-3.92-.09-2.19,1.67-4.1,3.86-4.18l1.22-.05-2.23-6.87-18.22.74c-2.19.09-4.1-1.67-4.18-3.86-.09-2.25,1.67-4.1,3.86-4.18l15.97-.64-2.1-6.63c-.63-2.11.56-4.36,2.67-5.05,2.17-.64,4.42.62,5.05,2.73l2.79,8.62,6.28-.25c2.26-.09,4.15,1.6,4.25,3.86ZM195.07,118.81c-.09-2.19,1.22-4.63,4.4-4.39,1.47.06,3.46.96,3.6,4.56.19,4.81,3.37,6.27,6.99,6.74,2.76.38,4.81,1.21,4.97,3.64.22,2.43-1.35,4.27-4.4,4.33-7.93.2-15.08-4.52-15.56-14.88Z"/>
      <path class="cls-16" d="M255.04,110.47c1.8-4.41,3.89-8.56,6.01-12.3,1.11-1.92,3.74-2.56,5.64-1.39,1.9,1.17,2.49,3.59,1.38,5.5-1.9,3.37-3.96,6.95-5.43,10.89-1.41,3.77-2.71,7.13-3.13,11.04,1.05-.16,2.05-.35,2.76-.46,2.2-.22,4.33,1.17,4.61,3.4.28,2.22-1.45,4.35-3.61,4.65-5.01.66-8.75,1.43-10.62.34-2.96-1.14-2.58-9.02,2.4-21.69ZM284.11,117.53c-.14-2.23,1.32-4.21,3.57-4.54,2.17-.3,4.24,1.4,4.46,3.6.41,4.98.29,9.14-.34,14.22-.27,2.26-2.34,3.79-4.5,3.43-2.24-.32-3.77-2.39-3.52-4.6.51-4.14.56-8.47.34-12.12Z"/>
      <path class="cls-14" d="M296.87,155.73c-1.37-1.94-1.34-3.82.01-5.18l24.35-24.56c1.43-1.44,3.75-1.41,5.19.01,5.35,5.31,12.52,12.42,18.13,17.98,1.59,1.5,1.34,3.89.06,5.18l-24.35,24.56c-1.43,1.44-3.3,1.63-5.19.06-5.02-3.8-13.03-11.9-18.2-18.05ZM317.33,166.2l7.91-7.98-12.89-12.78-7.95,8.01c3.51,4.07,8.86,9.38,12.92,12.74ZM317.55,140.2l12.89,12.78,6.34-6.39-12.89-12.78-6.33,6.39Z"/>
      <path class="cls-14" d="M347.5,178.4l.1-.04-1.18-2.61c-.79-1.75-.06-3.8,1.69-4.59,1.71-.77,3.77,0,4.56,1.76l1.18,2.61,1.89-.86-.96-1.11c-1.34-1.33-1.22-3.45.14-4.74,1.33-1.34,3.56-1.21,4.86.14l7.04,7.6c1.32,1.4,1.28,3.59-.07,4.88-1.4,1.32-3.54,1.26-4.88-.07l-1.25-1.38-3.93,1.78.86,1.9c.79,1.75,0,3.77-1.71,4.54-1.75.79-3.75.04-4.54-1.71l-.86-1.9-.14.06-.76,4.62c-.31,2.08-2.43,3.33-4.3,2.98-1.55-.27-2.57-1.64-2.71-2.83-.03-.33.03-.81.05-1.28l-12.18,5.51c-1.75.79-3.75.04-4.54-1.71-.77-1.71-.04-3.75,1.71-4.54l11.23-5.08-2.78-1.08c-1.77-.63-2.83-2.6-2.23-4.42.63-1.77,2.67-2.81,4.48-2.2l9.23,3.76ZM344.46,217.84c-1.75.79-3.7.02-4.59-1.69-1.78-3.3-4.8-9.59-6.01-13.15-.59-1.67-.36-3.83,1.72-4.77l27.01-12.22c1.75-.79,3.77,0,4.54,1.71.04.09,6.03,13.31,6.03,13.31.88,1.94-.08,3.86-1.74,4.61l-26.96,12.2ZM365.51,200.78l-3.21-7.11-20.85,9.43c.81,2.03,1.83,4.42,3.22,7.11l20.85-9.43Z"/>
    </g>
  </g>
  <g id="_葉っぱ" data-name="葉っぱ">
    <path class="cls-1" d="M149.06,97.99s15.64-5.3,11.97-17.06c0,0-12.95-1.4-11.97,17.06Z"/>
  </g>
</svg>