<?xml version="1.0" encoding="UTF-8"?>
<svg xmlns="http://www.w3.org/2000/svg" viewBox="0 0 1080 1080">
  <defs>
    <style>
      .cls-1 {
        fill: #df677e;
      }

      .cls-1, .cls-2, .cls-3, .cls-4, .cls-5, .cls-6, .cls-7, .cls-8, .cls-9, .cls-10, .cls-11, .cls-12, .cls-13, .cls-14, .cls-15, .cls-16, .cls-17, .cls-18, .cls-19, .cls-20, .cls-21, .cls-22, .cls-23, .cls-24, .cls-25, .cls-26, .cls-27, .cls-28, .cls-29, .cls-30, .cls-31, .cls-32, .cls-33, .cls-34, .cls-35 {
        stroke: #231815;
      }

      .cls-1, .cls-2, .cls-3, .cls-4, .cls-5, .cls-6, .cls-7, .cls-8, .cls-9, .cls-10, .cls-11, .cls-12, .cls-14, .cls-15, .cls-16, .cls-17, .cls-18, .cls-20, .cls-21, .cls-22, .cls-23, .cls-24, .cls-25, .cls-26, .cls-27, .cls-29, .cls-30, .cls-31, .cls-32, .cls-33, .cls-34, .cls-35 {
        stroke-linecap: round;
      }

      .cls-1, .cls-3, .cls-5, .cls-11, .cls-12, .cls-13, .cls-19, .cls-20, .cls-22, .cls-28, .cls-29, .cls-31, .cls-32, .cls-33, .cls-34 {
        stroke-miterlimit: 10;
      }

      .cls-1, .cls-11, .cls-15, .cls-22, .cls-32, .cls-34 {
        stroke-width: 2px;
      }

      .cls-2 {
        fill: #c7e8fa;
      }

      .cls-2, .cls-3, .cls-4, .cls-5, .cls-6, .cls-7, .cls-8, .cls-9, .cls-10, .cls-12, .cls-13, .cls-14, .cls-16, .cls-17, .cls-18, .cls-19, .cls-21, .cls-23, .cls-24, .cls-25, .cls-26, .cls-27, .cls-28, .cls-29, .cls-30, .cls-31, .cls-33, .cls-35 {
        stroke-width: 3px;
      }

      .cls-2, .cls-4, .cls-6, .cls-7, .cls-8, .cls-9, .cls-10, .cls-14, .cls-15, .cls-16, .cls-17, .cls-18, .cls-21, .cls-23, .cls-24, .cls-25, .cls-26, .cls-27, .cls-30, .cls-35 {
        stroke-linejoin: round;
      }

      .cls-36 {
        fill: #003791;
      }

      .cls-3 {
        fill: #e6001a;
      }

      .cls-4 {
        fill: #17ab3c;
      }

      .cls-5 {
        fill: #e62764;
      }

      .cls-6 {
        fill: #7cbd27;
      }

      .cls-7 {
        fill: #fff100;
      }

      .cls-8 {
        fill: #973a34;
      }

      .cls-9 {
        fill: #ffdc00;
      }

      .cls-10 {
        fill: #50b55c;
      }

      .cls-11 {
        fill: #dc3640;
      }

      .cls-12 {
        fill: #e60012;
      }

      .cls-13, .cls-15, .cls-23, .cls-31, .cls-32 {
        fill: none;
      }

      .cls-14 {
        fill: #e84137;
      }

      .cls-16 {
        fill: #cbd6e0;
      }

      .cls-17 {
        fill: #e4007f;
      }

      .cls-18 {
        fill: #eb5d34;
      }

      .cls-19 {
        fill: #fce3dd;
      }

      .cls-20, .cls-37 {
        fill: #231815;
      }

      .cls-21 {
        fill: #f2f9f6;
      }

      .cls-22 {
        fill: #701f72;
      }

      .cls-24 {
        fill: #008341;
      }

      .cls-25 {
        fill: #eff8fe;
      }

      .cls-26 {
        fill: #daf0fc;
      }

      .cls-27 {
        fill: #f5a400;
      }

      .cls-28 {
        fill: #ce7b4e;
      }

      .cls-29 {
        fill: #fff34b;
      }

      .cls-30 {
        fill: #79a7d9;
      }

      .cls-33 {
        fill: #50b7e9;
      }

      .cls-34 {
        fill: #4e0040;
      }

      .cls-35 {
        fill: #e94f50;
      }
    </style>
  </defs>
  <g id="_背景" data-name="背景">
    <rect class="cls-36" x="-35.49" y="-23.54" width="1147.4" height="1112.17"/>
  </g>
  <g id="_りんごの惑星" data-name="りんごの惑星">
    <ellipse class="cls-12" cx="552.96" cy="1258.1" rx="653.11" ry="513.7"/>
    <path class="cls-23" d="M475.46,801.16c18.26,12.17,59.77,28.22,109.37,33.46,43.09,4.55,92.29.95,137.62-20.46"/>
    <path class="cls-8" d="M577.95,833.81c10.71-26.15,55.67-140.43,162.91-188.1l4.33,7.58s-119.7,61.51-153.82,180.51h-13.42Z"/>
  </g>
  <g id="_宇宙くま" data-name="宇宙くま">
    <path class="cls-33" d="M423.64,453.49s-24.43-4.58-23.66,19.85,11.83,26.72,30.91,25.95l-7.25-45.8Z"/>
    <path class="cls-21" d="M533.81,572.57c43.23,1.36,122.25-24.43,128.36-105.72s-40.71-127.09-118.63-119.46-133.54,44.68-123.72,125.18,40.97,97.7,113.99,99.99Z"/>
    <path class="cls-33" d="M574.45,562.72c11.89-1.94,73.55-4.15,67.19,60.28s-63.59,46.18-63.59,46.18l-3.59-106.45Z"/>
    <path class="cls-28" d="M505.64,578.71c-16.94,3.5-34.16,11.7-59.44-12.57,0,0-1.88-11.09-8.07-14.05s-10.71,2.17-10.83,5.25c0,0-9.7-9.23-14.08-4.02s-1.66,9.34.83,11.71c0,0-8.64.59-7.69,6.27s4.49,7.45,13.25,7.1c0,0-9.7,5.32-4.49,9.94s11-1.06,13.6-3.31c0,0,36.55,21.41,45.66,28.39l31.26-34.69Z"/>
    <path class="cls-28" d="M506.71,562.84c-2.15,4.3-6.45,12.91-7.53,17.48s0,1.34,0,1.34c0,0-37.65,5.38-41.15,58.63s19.36,69.39,43.84,73.42l-5.92,24.74s-25.82-1.34-26.89,12.64,18.56,8.07,31.2,10.22,56.75,2.96,56.75,2.96l23.13-44.64s21.78,5.11,27.97-15.87-4.84-27.7-10.49-29.58c0,0,3.23-45.72-5.38-77.46s-19.09-44.64-19.09-44.64l-66.43,10.76Z"/>
    <g>
      <path class="cls-13" d="M554.58,446.81c-.85,4.29-.85,7.29-.85,7.29,0,0,.48-2.9.85-7.29Z"/>
      <path class="cls-19" d="M531.08,522.89c-43.47,1.3-50.28,19.42-51.96,32.55,13.58,10.41,34.32,13.96,54.29,13.6,22.66-.41,40.72-4.42,54.9-18.27-5.3-13.92-16.15-29.11-57.22-27.88Z"/>
      <path class="cls-28" d="M615.83,453.23c6.68-23.22-5.22-40.63-33.67-35.41-19.6,3.6-25.7,19.47-27.59,28.99-.37,4.39-.85,7.29-.85,7.29,0,0,0-3,.85-7.29.33-3.95.58-9.12.31-14.48-.58-11.32-11.03-21.48-22.93-23.51-11.9-2.03-29.9,5.51-38.31,24.38-8.42,18.87,13.93,33.41,13.06,33.38-23.51-.87-45.57,29.02-42.67,61.24,1.1,12.25,6.75,21.22,15.08,27.61,1.68-13.13,8.5-31.24,51.96-32.55,41.07-1.23,51.92,13.95,57.22,27.88,5.98-5.84,11.27-13.42,15.92-23.23,15.67-33.09-14.51-51.66-14.51-51.66,0,0,19.45.58,26.12-22.64Z"/>
    </g>
    <path class="cls-13" d="M506.7,466.58c.87.03-21.48-14.51-13.06-33.38s26.41-26.41,38.31-24.38,22.35,12.19,22.93,23.51-1.16,21.77-1.16,21.77c0,0,0-31.06,28.44-36.28s40.34,12.19,33.67,35.41-26.12,22.64-26.12,22.64c0,0,30.19,18.58,14.51,51.66s-38.6,40.92-70.82,41.5-66.47-9-69.37-41.21,19.16-62.11,42.67-61.24Z"/>
    <path class="cls-29" d="M530.14,514.83c5.13-1.51,11.46-.53,13.04,3.56s-2.11,8.03-8.3,9.75-11.72,1.84-13.3-3.03,4.08-8.96,8.56-10.27Z"/>
    <path class="cls-20" d="M525.5,497.61s-3.81-2.6-5.92,2.51-.31,6.32,1.1,7.15,4.41-.16,5.56-3.39.89-5.65-.73-6.26Z"/>
    <path class="cls-20" d="M540,496.89s-4.57-.61-4.15,4.91,2.57,5.78,4.21,5.88,3.87-2.13,3.43-5.54-1.76-5.44-3.48-5.26Z"/>
    <path class="cls-32" d="M513.8,490.86c-1.19-5.66,3.29-15.01,12.51-6.85"/>
    <path class="cls-31" d="M538.56,485.83c1.84-3.93,10.8-9.72,10.54,3.71"/>
    <path class="cls-3" d="M535.87,542.52c7.65-.98,14,4.88,14.26,10.16s-2.19,12.73-13.11,11.31-10.16-11.31-8.87-14.78,2.7-6.04,7.72-6.68Z"/>
    <path class="cls-23" d="M597.62,674.18c-1.71,6.64-6.53,23.44-8.87,27.8"/>
    <path class="cls-23" d="M563.24,614.4c4.82,4.51,22.4,30.8,4.2,48.06,0,0-13.57-5.08-14.41,5.71s6.56,8.44,8.44,8.35c0,0-5.25,6.94,1.97,10.5s9.38-6.28,9.38-6.28c0,0-2.91,6.99,4.03,7.06s6.75-5.84,5.72-8c0,0,2.9,5.16,6.18,1.78s1.31-6.28,0-7.41c0,0-1.03-11.72.94-18.85s3.47-25.32,3.94-26.73"/>
    <path class="cls-33" d="M636.75,461.58c9.44.59,17.42,11.45,12.44,23.76s-12.13,12.43-18.98,11.6-16.75-8.47-12.57-20.67,9.15-15.31,19.1-14.69Z"/>
  </g>
  <g id="_雲と星" data-name="雲と星">
    <g>
      <path class="cls-23" d="M99.27,335.42c-.61,8.98.16-52.62,43.58-72.1s78.89,7.78,78.89,7.78l-15.71,35c-8.79-2.44-47.31-27.68-72.81,35.11l-33.94-5.79Z"/>
      <path class="cls-6" d="M157.62,291.64c-19.54,6.63-26.57,28.98-32.43,48.2l8.02,1.37c25.5-62.78,64.03-37.55,72.81-35.11l3.98-8.87c-15.59-6.32-35.56-11.3-52.38-5.59Z"/>
      <path class="cls-17" d="M145.86,278.66c24.59-10.54,51.74-2.68,70.28,4.91l5.6-12.47s-35.48-27.26-78.89-7.78c-43.41,19.48-44.19,81.08-43.58,72.1l9.15,1.56c3.68-14.41,14.62-48.54,37.44-58.32Z"/>
      <path class="cls-7" d="M145.86,278.66c-22.83,9.78-33.76,43.91-37.44,58.32l16.77,2.86c5.86-19.22,12.89-41.57,32.43-48.2,16.82-5.71,36.79-.73,52.38,5.59l6.13-13.66c-18.54-7.6-45.68-15.45-70.28-4.91Z"/>
      <path class="cls-25" d="M103.08,326.55c1.21-7.19,8.68-6.13,9.9-1.26,0,0,14.93-12.53,23.27,8.34,0,0,7.95-2.14,6.26,5.68,0,0,17.91,1.61,5.44,16,0,0,11.29,22.08-13.32,23.9,0,0-3.6,22.01-28.03,9.64,0,0-15.98,21.08-32.63.89s8.13-30.32,8.13-30.32c0,0-19.55-6.89-10.22-25.37s31.19-7.5,31.19-7.5Z"/>
      <path class="cls-26" d="M208.42,271.7c-1.03-9.3,9.89-20.38,20.55-9.85,0,0,22.25-2.63,15.43,15.67,0,0,23.27,3.94,9.18,24.37,0,0,13.19,19.83-10.86,19.23,0,0-1.4,19.6-20.49,15.22-19.09-4.38-20.42-12.29-17.52-20.33,0,0-13.15,4.57-17.13-7.64-3.98-12.21,5.74-18.2,11.87-17.71,0,0-9.42-6.04-3.48-16.54s12.45-2.42,12.45-2.42Z"/>
    </g>
    <path class="cls-7" d="M968.97,144.71l-5.5-8.28c-.92-1.38-2.46-2.2-4.11-2.2h-9.94c-4.35.02-6.79-5.01-4.09-8.42l6.17-7.79c1.03-1.3,1.33-3.02.82-4.59l-3.08-9.45c-1.35-4.14,2.68-8.01,6.76-6.49l9.32,3.46c1.55.58,3.28.34,4.62-.64l8.03-5.85c3.52-2.56,8.44.07,8.26,4.42l-.41,9.93c-.07,1.65.7,3.23,2.03,4.2l8.05,5.83c3.53,2.56,2.54,8.05-1.65,9.23l-9.57,2.68c-1.59.45-2.86,1.66-3.36,3.23l-3.06,9.46c-1.34,4.14-6.87,4.91-9.29,1.28Z"/>
    <path class="cls-9" d="M653.5,76.07h-9.94c-1.65.01-3.2.84-4.11,2.22l-5.48,8.29c-2.4,3.63-7.94,2.88-9.29-1.26l-3.08-9.45c-.51-1.57-1.78-2.78-3.37-3.22l-9.58-2.65c-4.2-1.16-5.19-6.66-1.67-9.22l8.03-5.85c1.34-.97,2.1-2.55,2.02-4.2l-.44-9.93c-.19-4.35,4.73-7,8.25-4.44l8.05,5.83c1.34.97,3.07,1.2,4.62.63l9.31-3.48c4.08-1.53,8.12,2.33,6.78,6.48l-3.06,9.46c-.51,1.57-.2,3.3.83,4.59l6.19,7.78c2.71,3.41.29,8.44-4.07,8.45Z"/>
    <path class="cls-7" d="M762.99,437.51l-4.6-.34c-1.65-.12-3.25.59-4.26,1.9l-2.82,3.64c-2.67,3.44-8.13,2.28-9.17-1.95l-1.1-4.48c-.39-1.61-1.57-2.91-3.12-3.47l-4.34-1.56c-4.1-1.47-4.68-7.03-.98-9.32l3.92-2.43c1.41-.87,2.28-2.39,2.33-4.04l.14-4.61c.14-4.35,5.24-6.62,8.56-3.81l3.52,2.98c1.26,1.07,2.98,1.43,4.56.97l4.42-1.29c4.18-1.22,7.92,2.93,6.27,6.97l-1.74,4.27c-.63,1.53-.44,3.27.49,4.64l2.59,3.81c2.45,3.6-.34,8.44-4.69,8.12Z"/>
    <path class="cls-9" d="M976.18,625.89l-13.63-1.63c-1.64-.2-3.27.44-4.34,1.7l-8.89,10.45c-2.82,3.32-8.23,1.91-9.07-2.36l-2.66-13.47c-.32-1.62-1.43-2.98-2.96-3.61l-12.69-5.23c-4.03-1.66-4.36-7.23-.55-9.36l11.98-6.69c1.44-.81,2.39-2.28,2.51-3.93l1.05-13.68c.33-4.34,5.53-6.38,8.73-3.42l10.07,9.33c1.21,1.12,2.91,1.57,4.51,1.18l13.34-3.23c4.23-1.02,7.78,3.29,5.95,7.24l-5.76,12.46c-.69,1.5-.59,3.25.28,4.66l7.19,11.69c2.28,3.71-.73,8.41-5.05,7.9Z"/>
    <path class="cls-7" d="M807.17,740.59l-5.12-1.09c-1.62-.34-3.3.15-4.48,1.3l-3.74,3.67c-3.11,3.05-8.37,1.16-8.82-3.17l-.55-5.21c-.17-1.64-1.16-3.09-2.62-3.86l-4.64-2.42c-3.86-2.01-3.69-7.6.29-9.37l4.78-2.13c1.51-.67,2.58-2.06,2.86-3.69l.87-5.16c.72-4.29,6.09-5.85,9-2.62l3.5,3.89c1.11,1.23,2.75,1.82,4.39,1.58l5.18-.77c4.31-.64,7.45,3.98,5.27,7.75l-2.62,4.54c-.83,1.43-.88,3.18-.14,4.66l2.33,4.69c1.94,3.9-1.48,8.31-5.74,7.41Z"/>
    <path class="cls-9" d="M384.23,683.89l-1.97-2.95c-.92-1.38-2.46-2.2-4.11-2.2h-3.55c-4.35,0-6.79-5.02-4.09-8.43l2.2-2.78c1.03-1.3,1.33-3.02.82-4.59l-1.1-3.37c-1.35-4.14,2.68-8.01,6.76-6.49l3.33,1.24c1.55.58,3.28.34,4.62-.64l2.87-2.09c3.52-2.56,8.44.07,8.26,4.42l-.15,3.55c-.07,1.65.7,3.23,2.03,4.2l2.87,2.08c3.53,2.56,2.54,8.05-1.65,9.23l-3.42.96c-1.59.45-2.86,1.66-3.36,3.23l-1.09,3.38c-1.34,4.14-6.87,4.91-9.29,1.28Z"/>
    <path class="cls-7" d="M139.32,802.82l-8.38-12.59c-.92-1.38-2.46-2.2-4.11-2.2l-15.12.02c-4.35,0-6.79-5.02-4.09-8.44l9.39-11.86c1.03-1.3,1.33-3.02.82-4.59l-4.69-14.38c-1.35-4.14,2.68-8.01,6.76-6.49l14.18,5.26c1.55.58,3.28.34,4.62-.64l12.22-8.9c3.52-2.56,8.44.07,8.26,4.42l-.63,15.11c-.07,1.65.7,3.23,2.03,4.2l12.24,8.87c3.53,2.56,2.54,8.05-1.65,9.23l-14.56,4.07c-1.59.45-2.86,1.66-3.36,3.23l-4.65,14.39c-1.34,4.14-6.87,4.91-9.29,1.28Z"/>
    <path class="cls-9" d="M66.18,491.36l-1.29-3.95c-.51-1.57-1.78-2.78-3.37-3.22l-4.01-1.11c-4.2-1.16-5.19-6.66-1.67-9.22l3.36-2.45c1.34-.97,2.1-2.55,2.02-4.2l-.18-4.16c-.19-4.35,4.73-7,8.25-4.44l3.37,2.44c1.34.97,3.07,1.2,4.62.63l3.9-1.46c4.08-1.53,8.12,2.33,6.78,6.48l-1.28,3.96c-.51,1.57-.2,3.3.83,4.59l2.59,3.25c2.71,3.41.29,8.44-4.07,8.45h-4.16c-1.65,0-3.2.84-4.11,2.22l-2.3,3.47c-2.4,3.63-7.94,2.88-9.29-1.26Z"/>
    <path class="cls-7" d="M320.36,460.17l-15.57-5.43c-1.56-.54-3.29-.27-4.61.73l-13.13,9.97c-3.47,2.63-8.44.1-8.35-4.26l.35-16.48c.04-1.65-.76-3.21-2.12-4.16l-13.54-9.4c-3.58-2.48-2.7-8,1.47-9.26l15.78-4.76c1.58-.48,2.82-1.72,3.3-3.3l4.76-15.78c1.26-4.17,6.77-5.04,9.26-1.47l9.4,13.54c.94,1.36,2.5,2.15,4.16,2.12l16.48-.35c4.35-.09,6.89,4.88,4.26,8.35l-9.97,13.13c-1,1.32-1.27,3.05-.73,4.61l5.43,15.57c1.43,4.11-2.52,8.06-6.63,6.63Z"/>
    <path class="cls-9" d="M85.96,133.46l-8.18-12.29c-.92-1.38-2.46-2.2-4.11-2.2l-14.76.02c-4.35,0-6.79-5.02-4.09-8.44l9.16-11.57c1.03-1.3,1.33-3.02.82-4.59l-4.58-14.03c-1.35-4.14,2.68-8.01,6.76-6.49l13.84,5.14c1.55.58,3.28.34,4.62-.64l11.93-8.69c3.52-2.56,8.44.07,8.26,4.42l-.61,14.75c-.07,1.65.7,3.23,2.03,4.2l11.95,8.66c3.53,2.56,2.54,8.05-1.65,9.23l-14.22,3.98c-1.59.45-2.86,1.66-3.36,3.23l-4.54,14.05c-1.34,4.14-6.87,4.91-9.29,1.28Z"/>
    <path class="cls-9" d="M412.45,125.27l-1.98-2.98c-.92-1.38-2.46-2.2-4.11-2.2h-3.58c-4.35,0-6.79-5.02-4.09-8.43l2.22-2.8c1.03-1.3,1.33-3.02.82-4.59l-1.11-3.4c-1.35-4.14,2.68-8.01,6.76-6.49l3.35,1.24c1.55.58,3.28.34,4.62-.64l2.89-2.11c3.52-2.56,8.44.07,8.26,4.42l-.15,3.57c-.07,1.65.7,3.23,2.03,4.2l2.9,2.1c3.53,2.56,2.54,8.05-1.65,9.23l-3.44.96c-1.59.45-2.86,1.66-3.36,3.23l-1.1,3.4c-1.34,4.14-6.87,4.91-9.29,1.28Z"/>
    <path class="cls-7" d="M450.1,298.18l-3.75-5.64c-.92-1.38-2.46-2.2-4.11-2.2h-6.78c-4.35.01-6.79-5.01-4.09-8.43l4.21-5.31c1.03-1.3,1.33-3.02.82-4.59l-2.1-6.44c-1.35-4.14,2.68-8.01,6.76-6.49l6.35,2.36c1.55.58,3.28.34,4.62-.64l5.48-3.99c3.52-2.56,8.44.07,8.26,4.42l-.28,6.77c-.07,1.65.7,3.23,2.03,4.2l5.49,3.98c3.53,2.56,2.54,8.05-1.65,9.23l-6.53,1.83c-1.59.45-2.86,1.66-3.36,3.23l-2.09,6.45c-1.34,4.14-6.87,4.91-9.29,1.28Z"/>
    <path class="cls-7" d="M1004.41,861.22l-1.28-1.9c-.92-1.36-2.46-2.18-4.11-2.17h-2.18c-4.38.02-6.82-5.05-4.07-8.46l1.26-1.57c1.05-1.3,1.37-3.05.84-4.64l-.65-1.98c-1.36-4.13,2.64-8,6.72-6.52l2.21.8c1.53.56,3.24.32,4.56-.63l1.91-1.37c3.53-2.53,8.43.12,8.24,4.46l-.09,2.08c-.07,1.67.7,3.27,2.07,4.24l1.64,1.17c3.57,2.54,2.59,8.08-1.63,9.25l-2.1.58c-1.59.44-2.85,1.64-3.36,3.2l-.72,2.18c-1.36,4.1-6.84,4.86-9.26,1.28Z"/>
    <path class="cls-9" d="M1035.4,860.27l-5.5-8.28c-.92-1.38-2.46-2.2-4.11-2.2h-9.94c-4.35.02-6.79-5.01-4.09-8.42l6.17-7.79c1.03-1.3,1.33-3.02.82-4.59l-3.08-9.45c-1.35-4.14,2.68-8.01,6.76-6.49l9.32,3.46c1.55.58,3.28.34,4.62-.64l8.03-5.85c3.52-2.56,8.44.07,8.26,4.42l-.41,9.93c-.07,1.65.7,3.23,2.03,4.2l8.05,5.83c3.53,2.56,2.54,8.05-1.65,9.23l-9.57,2.68c-1.59.45-2.86,1.66-3.36,3.23l-3.06,9.46c-1.34,4.14-6.87,4.91-9.29,1.28Z"/>
    <path class="cls-9" d="M178.95,784.9l-1.97-2.95c-.92-1.38-2.46-2.2-4.11-2.2h-3.55c-4.35,0-6.79-5.02-4.09-8.43l2.2-2.78c1.03-1.3,1.33-3.02.82-4.59l-1.1-3.37c-1.35-4.14,2.68-8.01,6.76-6.49l3.33,1.24c1.55.58,3.28.34,4.62-.64l2.87-2.09c3.52-2.56,8.44.07,8.26,4.42l-.15,3.55c-.07,1.65.7,3.23,2.03,4.2l2.87,2.08c3.53,2.56,2.54,8.05-1.65,9.23l-3.42.96c-1.59.45-2.86,1.66-3.36,3.23l-1.09,3.38c-1.34,4.14-6.87,4.91-9.29,1.28Z"/>
    <path class="cls-9" d="M577.98,221.54l-5.5-8.28c-.92-1.38-2.46-2.2-4.11-2.2h-9.94c-4.35.02-6.79-5.01-4.09-8.42l6.17-7.79c1.03-1.3,1.33-3.02.82-4.59l-3.08-9.45c-1.35-4.14,2.68-8.01,6.76-6.49l9.32,3.46c1.55.58,3.28.34,4.62-.64l8.03-5.85c3.52-2.56,8.44.07,8.26,4.42l-.41,9.93c-.07,1.65.7,3.23,2.03,4.2l8.05,5.83c3.53,2.56,2.54,8.05-1.65,9.23l-9.57,2.68c-1.59.45-2.86,1.66-3.36,3.23l-3.06,9.46c-1.34,4.14-6.87,4.91-9.29,1.28Z"/>
  </g>
  <g id="_フルーツ惑星" data-name="フルーツ惑星">
    <g>
      <path class="cls-34" d="M963.81,271.37c0,7.65-6.2,13.85-13.85,13.85-7.65,0-13.85-6.2-13.85-13.85,0-7.65,6.2-13.85,13.85-13.85,7.65,0,13.85,6.2,13.85,13.85Z"/>
      <circle class="cls-22" cx="972.24" cy="264.28" r="12.06"/>
      <circle class="cls-34" cx="991.72" cy="254.12" r="11.35"/>
      <circle class="cls-22" cx="972.24" cy="281.87" r="10.5"/>
      <circle class="cls-34" cx="991.72" cy="274.36" r="10.86"/>
      <circle class="cls-34" cx="982.74" cy="292.37" r="9.74"/>
      <circle class="cls-22" cx="999.11" cy="290.83" r="11.28"/>
      <circle class="cls-34" cx="992.48" cy="305.61" r="8.46"/>
      <path class="cls-32" d="M975.34,252.63c-2.47-6.26-4.26-11.04-8.64-14.42"/>
      <path class="cls-32" d="M957.27,243.87c2.59-2.79,12.53-11.14,21.09-11.34"/>
    </g>
    <g>
      <circle class="cls-11" cx="913.45" cy="728.82" r="18.64"/>
      <circle class="cls-1" cx="955.8" cy="735.95" r="13.66"/>
      <path class="cls-15" d="M923.94,713.41l27.5-25.34s10.21,26.04,8.68,34.21"/>
      <path class="cls-15" d="M938.16,687.02c.45-.26,12.35-3.39,24.42,4.82"/>
    </g>
    <g>
      <path class="cls-4" d="M153.37,602.69s-11.67-11.48-18.67-11.93c-.26-.02-.52-.02-.76,0-6.87.41,13.26-3.26,15.18-3.43s.22.69.22.69l-5.36-19.12s8,6.68,12.22,6.52,1.57-15.74,1.57-15.74c0,0,15.44,21.16,18.69,20.41l-23.09,22.61Z"/>
      <path class="cls-5" d="M160.84,592.93c8.26-7,16.4-26.95,32.35-19.04s50.73,55.42,31.58,77.87c-19.15,22.45-75.58-.02-80.76-24.55-5.18-24.53,6.97-25.92,16.83-34.28Z"/>
      <path class="cls-37" d="M183.67,583.51s-2.16.86-.62,4.16,2.71,3.25,3.81,2.82.91-2.56-.1-4.77-2.41-2.75-3.09-2.21Z"/>
      <path class="cls-37" d="M197.22,596.16s-2.16.86-.62,4.16,2.71,3.25,3.81,2.82.91-2.56-.1-4.77-2.41-2.75-3.09-2.21Z"/>
      <path class="cls-37" d="M177.12,602.08s-1.71,1.57.9,4.11,3.69,2.07,4.56,1.28-.05-2.71-1.79-4.43-3.23-1.71-3.67-.97Z"/>
      <path class="cls-37" d="M161.79,607.3s-1.51,1.76,1.39,3.97,3.91,1.61,4.68.72-.38-2.69-2.31-4.18-3.41-1.31-3.76-.52Z"/>
      <path class="cls-37" d="M165.53,628.26s-1.01,2.09,2.36,3.49,4.2.56,4.71-.5-1.05-2.5-3.3-3.45-3.63-.4-3.77.46Z"/>
      <path class="cls-37" d="M186.03,620.68s-1.74,1.54.83,4.13,3.65,2.13,4.54,1.36,0-2.71-1.72-4.45-3.2-1.77-3.65-1.03Z"/>
      <path class="cls-37" d="M204.54,631.62s-2.16.86-.62,4.16,2.71,3.25,3.81,2.82.91-2.56-.1-4.77-2.41-2.75-3.09-2.21Z"/>
      <path class="cls-37" d="M186.12,640.77s-.86,2.16,2.6,3.31,4.22.26,4.67-.83-1.23-2.42-3.54-3.21-3.65-.14-3.73.73Z"/>
      <path class="cls-37" d="M207.59,609.98s-2.16.86-.62,4.16,2.71,3.25,3.81,2.82.91-2.56-.1-4.77-2.41-2.75-3.09-2.21Z"/>
      <path class="cls-37" d="M219.16,622.77s-2.23.66-1,4.09,2.41,3.48,3.54,3.15,1.14-2.46.33-4.76-2.15-2.95-2.88-2.48Z"/>
    </g>
    <g>
      <g>
        <path class="cls-24" d="M902.65,379.79c0,4.53-.72,9.17-2.02,13.85,25.45,5.41,63.05,20.29,43.28,69.04-24,59.18-77.86,63.83-90.26,62.18-11.18-1.49-33.2-5.48-43.02-34.19-4.31,2.2-7.22,3.05-8.04,2.22,10.82,46.39,59.95,48.72,80.62,45.56,20.67-3.16,65.42-37.86,78.95-91.35,13.52-53.49-59.5-67.31-59.5-67.31Z"/>
        <path class="cls-18" d="M853.64,524.85c12.4,1.65,66.27-3,90.26-62.18,19.77-48.75-17.83-63.63-43.28-69.04-11.42,41.15-68.45,86.04-90,97.02,9.82,28.71,31.85,32.7,43.02,34.19Z"/>
      </g>
      <path class="cls-23" d="M802.59,492.89c5.39,5.39,100.08-60.8,100.06-113.1,0,0,73.02,13.81,59.5,67.31-13.52,53.49-58.28,88.2-78.95,91.35-20.67,3.16-69.8.83-80.62-45.56Z"/>
      <ellipse class="cls-23" cx="855.68" cy="475.3" rx="1.12" ry="3.46" transform="translate(-103.79 281.62) rotate(-17.64)"/>
      <ellipse class="cls-23" cx="871.93" cy="481.21" rx="1.12" ry="3.46" transform="translate(-120 392.29) rotate(-23.77)"/>
      <ellipse class="cls-23" cx="884.66" cy="472.38" rx="1.12" ry="3.46" transform="translate(-111.95 584.34) rotate(-34.51)"/>
      <ellipse class="cls-23" cx="896.61" cy="461.58" rx="1.12" ry="3.46" transform="translate(48.57 1007.27) rotate(-60)"/>
      <ellipse class="cls-23" cx="904.37" cy="451.74" rx="1.12" ry="3.46" transform="translate(194.51 1171.5) rotate(-71.94)"/>
      <ellipse class="cls-23" cx="902.44" cy="422.6" rx="1.12" ry="3.46" transform="translate(412 1290.05) rotate(-85.61)"/>
      <ellipse class="cls-23" cx="866.91" cy="465.55" rx=".93" ry="3.05" transform="translate(-98.59 275.62) rotate(-17.11)"/>
      <ellipse class="cls-23" cx="878.77" cy="457.16" rx="1.12" ry="3.46" transform="translate(-4.88 904.81) rotate(-54.35)"/>
      <ellipse class="cls-23" cx="885.6" cy="446.28" rx="1.12" ry="3.46" transform="translate(78.17 1022.04) rotate(-62.24)"/>
      <ellipse class="cls-23" cx="897.46" cy="436.99" rx="1.12" ry="3.46" transform="translate(70.28 995.72) rotate(-60)"/>
    </g>
    <g>
      <path class="cls-10" d="M375.56,147.26c-.91,37.32-31.45,67.28-68.98,67.28-17.45,0-33.38-6.47-45.53-17.17,17.85-3.53,38.49-10.06,59.74-19.36,21.25-9.3,40.06-20.03,54.77-30.75Z"/>
      <path class="cls-10" d="M374.23,131.87c-10.61,12.22-31.47,26.32-57.19,37.58-25.72,11.25-50.22,16.99-66.39,16.5-5.68-7.84-9.74-16.91-11.72-26.74-.88-4.42-1.35-8.99-1.35-13.67,0-.58.01-1.15.02-1.72.91-37.32,31.45-67.28,68.98-67.28,17.45,0,33.38,6.47,45.53,17.17,3.88,3.39,7.37,7.23,10.4,11.42,5.68,7.84,9.74,16.91,11.72,26.74Z"/>
      <line class="cls-15" x1="288.81" y1="99.56" x2="263.13" y2="187.94"/>
      <line class="cls-15" x1="304.49" y1="103.47" x2="278.15" y2="195.34"/>
      <line class="cls-15" x1="321.47" y1="104.78" x2="294.04" y2="200.46"/>
      <line class="cls-15" x1="338.66" y1="108.05" x2="315.59" y2="198.39"/>
      <line class="cls-15" x1="354.56" y1="120.24" x2="335.83" y2="200.46"/>
      <line class="cls-15" x1="274.88" y1="109.13" x2="331.48" y2="108.05"/>
      <line class="cls-15" x1="263.13" y1="126.55" x2="344.33" y2="123.07"/>
      <line class="cls-15" x1="260.08" y1="140.26" x2="342.37" y2="138.09"/>
      <line class="cls-15" x1="260.08" y1="154.42" x2="358.48" y2="152.62"/>
      <line class="cls-15" x1="261.05" y1="167.48" x2="350.64" y2="168.35"/>
      <line class="cls-15" x1="294.04" y1="184.02" x2="344.33" y2="184.02"/>
      <line class="cls-15" x1="288.81" y1="196.43" x2="343.24" y2="196.43"/>
      <path class="cls-30" d="M375.56,147.26c-14.71,10.72-33.52,21.45-54.77,30.75-21.25,9.3-41.89,15.83-59.74,19.36-29.12,5.78-50.83,3.58-55.7-7.54-4.87-11.11,8.26-28.55,32.25-46.01,0,.57-.02,1.14-.02,1.72,0,4.68.47,9.25,1.35,13.67-6.37,7.33-9.05,13.99-6.88,18.94,2.17,4.95,8.88,7.5,18.6,7.8,16.17.49,40.67-5.25,66.39-16.5,25.72-11.26,46.58-25.36,57.19-37.58,6.37-7.33,9.05-13.99,6.88-18.94s-8.88-7.5-18.6-7.8c-3.03-4.19-6.52-8.03-10.4-11.42,29.12-5.78,50.83-3.58,55.7,7.54,4.87,11.11-8.26,28.55-32.25,46.01Z"/>
      <line class="cls-23" x1="291.32" y1="78.23" x2="288.81" y2="62.11"/>
      <path class="cls-23" d="M271.83,66.08c13.71-2.18,27.21-7.84,33.96-9.58"/>
    </g>
    <g>
      <circle class="cls-11" cx="296.66" cy="515.11" r="12.2"/>
      <circle class="cls-1" cx="273.93" cy="531.63" r="8.94"/>
      <path class="cls-15" d="M286.03,509.14l-23.5-6.83s1.6,18.24,4.88,22.58"/>
      <path class="cls-15" d="M270.01,497.81c-.34-.02-8.22,1.61-12.9,9.94"/>
    </g>
  </g>
  <g id="_ロケット" data-name="ロケット">
    <g>
      <path class="cls-27" d="M739.94,212.98c-11.22,4.94-42.79,17.31-43.55,34.23,0,0,3.26.95,8.95-.57,0,0-7.05,10.46-5.34,16.54,0,0,4.56-.76,10.46-4.37,0,0-21.68,24.15-14.07,41.27,0,0,22.25-5.51,32.9-31.19,0,0-2.09,5.51-.19,10.84,0,0,4.94,1.14,9.32-8.56,0,0-.95,7.23,1.52,11.98,0,0,29.67-24.83,32.52-55.58l-32.52-14.59Z"/>
      <path class="cls-14" d="M747.22,218.11c-5.61,2.47-21.39,8.65-21.77,17.12,0,0,1.63.48,4.47-.29,0,0-3.52,5.23-2.67,8.27,0,0,2.28-.38,5.23-2.19,0,0-10.84,12.08-7.04,20.63,0,0,11.13-2.76,16.45-15.59,0,0-1.05,2.76-.1,5.42,0,0,2.47.57,4.66-4.28,0,0-.48,3.61.76,5.99,0,0,14.83-12.42,16.26-27.79l-16.26-7.29Z"/>
      <path class="cls-35" d="M741.35,145.14c-12.82.99-50.64-.33-72.01,56.23,0,0,8.55,18.09,52.94-5.92l19.07-50.31Z"/>
      <path class="cls-35" d="M828.42,181.83c7.17,10.68,31.64,39.54.49,91.36,0,0-19.49,4.5-28.16-45.22l27.67-46.14Z"/>
      <g>
        <path class="cls-35" d="M860.95,137.28c.37-.79.73-1.57,1.08-2.33,14.47-31.57,4.27-93.39-57.87-54.58-11.58,7.23-22.23,15.5-31.85,24.25,30.09-2.74,66.04.65,88.64,32.67Z"/>
        <path class="cls-16" d="M772.31,104.61c-42.02,38.18-64.38,85.22-58.25,92.49,24.59,29.16,84.6,47.43,87.8,41.76,10.59-6.42,44.05-69.22,59.1-101.58-22.61-32.02-58.56-35.41-88.64-32.67Z"/>
      </g>
      <path class="cls-23" d="M714.06,197.1c-7.53-8.93,27.95-77.93,90.1-116.73s72.34,23.02,57.87,54.58-49.32,97.33-60.17,103.91c-3.2,5.67-63.2-12.6-87.8-41.76Z"/>
      <ellipse class="cls-2" cx="793.5" cy="153.93" rx="27" ry="23.11" transform="translate(326.24 813.47) rotate(-65.66)"/>
    </g>
  </g>
</svg>